<svg width="48" height="48" viewBox="0 0 48 48" fill="none" xmlns="http://www.w3.org/2000/svg">
<circle cx="24" cy="24" r="24" fill="#1780D9"/>
<g clip-path="url(#clip0_346_22)">
<path d="M24 14C18.475 14 14 18.475 14 24C14 28.425 16.8625 32.1625 20.8375 33.4875C21.3375 33.575 21.525 33.275 21.525 33.0125C21.525 32.775 21.5125 31.9875 21.5125 31.15C19 31.6125 18.35 30.5375 18.15 29.975C18.0375 29.6875 17.55 28.8 17.125 28.5625C16.775 28.375 16.275 27.9125 17.1125 27.9C17.9 27.8875 18.4625 28.625 18.65 28.925C19.55 30.4375 20.9875 30.0125 21.5625 29.75C21.65 29.1 21.9125 28.6625 22.2 28.4125C19.975 28.1625 17.65 27.3 17.65 23.475C17.65 22.3875 18.0375 21.4875 18.675 20.7875C18.575 20.5375 18.225 19.5125 18.775 18.1375C18.775 18.1375 19.6125 17.875 21.525 19.1625C22.325 18.9375 23.175 18.825 24.025 18.825C24.875 18.825 25.725 18.9375 26.525 19.1625C28.4375 17.8625 29.275 18.1375 29.275 18.1375C29.825 19.5125 29.475 20.5375 29.375 20.7875C30.0125 21.4875 30.4 22.375 30.4 23.475C30.4 27.3125 28.0625 28.1625 25.8375 28.4125C26.2 28.725 26.5125 29.325 26.5125 30.2625C26.5125 31.6 26.5 32.675 26.5 33.0125C26.5 33.275 26.6875 33.5875 27.1875 33.4875C29.173 32.8178 30.8983 31.5421 32.1205 29.84C33.3427 28.138 34 26.0954 34 24C34 18.475 29.525 14 24 14Z" fill="white"/>
</g>
<defs>
<clipPath id="clip0_346_22">
<rect width="20" height="20" fill="white" transform="translate(14 14)"/>
</clipPath>
</defs>
</svg>
