<svg width="523" height="479" viewBox="0 0 523 479" fill="none" xmlns="http://www.w3.org/2000/svg">
<g clip-path="url(#clip0_255_1075)">
<path d="M69.5588 431.498H61.2725V431.825H69.5588V431.498Z" fill="#EBEBEB"/>
<path d="M254.463 478.731C394.639 478.731 508.275 472.104 508.275 463.928C508.275 455.753 394.639 449.125 254.463 449.125C114.286 449.125 0.650391 455.753 0.650391 463.928C0.650391 472.104 114.286 478.731 254.463 478.731Z" fill="#F5F5F5"/>
<path d="M287.739 462.87H21.2679C15.8052 459.031 11.9506 453.316 10.4412 446.816C8.93183 440.317 9.87356 433.49 13.0863 427.641C14.2945 425.275 16.0992 423.265 18.3225 421.809C15.3425 416.195 14.4519 409.708 15.8092 403.501C17.1968 397.656 22.0403 393.693 27.0408 390.503C23.3391 369.106 27.5246 347.095 38.8223 328.545C50.054 310.316 68.5771 298.468 88.946 292.701C88.0148 284.897 88.7367 276.985 91.0648 269.478C93.3929 261.97 97.2752 255.036 102.46 249.124C107.644 243.213 114.015 238.456 121.159 235.164C128.302 231.871 136.059 230.115 143.926 230.011C144.511 224.471 146.296 219.125 149.155 214.342C152.014 209.56 155.881 205.456 160.486 202.314C165.018 199.235 170.183 197.21 175.602 196.388C181.021 195.567 186.556 195.97 191.798 197.567C192.61 193.644 194.305 189.957 196.754 186.785C199.204 183.614 202.344 181.04 205.936 179.26C209.532 177.566 213.473 176.732 217.447 176.825C221.421 176.918 225.319 177.936 228.831 179.796C239.539 176.762 251.321 182.477 256.178 192.651C261.034 202.824 257.788 216.32 248.821 223.028C258.94 238.093 258.495 261.683 247.747 276.29C253.664 277.885 256.23 286.359 257.107 292.531C259.64 310.472 256.587 328.756 248.363 344.904C259.28 344.381 269.844 352.515 276.35 361.459C279.578 366 281.68 371.241 282.484 376.752C283.287 382.263 282.769 387.886 280.971 393.157C287.307 392.765 292.687 397.773 295.803 403.383C298.14 408.042 299.637 413.075 300.227 418.252C300.477 418.769 300.666 419.313 300.79 419.873C304.181 434.755 298.957 452.447 287.739 462.87Z" fill="#1780D9"/>
<g opacity="0.6">
<path d="M287.739 462.87H21.2679C15.8052 459.031 11.9506 453.316 10.4412 446.816C8.93183 440.317 9.87356 433.49 13.0863 427.641C14.2945 425.275 16.0992 423.265 18.3225 421.809C15.3425 416.195 14.4519 409.708 15.8092 403.501C17.1968 397.656 22.0403 393.693 27.0408 390.503C23.3391 369.106 27.5246 347.095 38.8223 328.545C50.054 310.316 68.5771 298.468 88.946 292.701C88.0148 284.897 88.7367 276.985 91.0648 269.478C93.3929 261.97 97.2752 255.036 102.46 249.124C107.644 243.213 114.015 238.456 121.159 235.164C128.302 231.871 136.059 230.115 143.926 230.011C144.511 224.471 146.296 219.125 149.155 214.342C152.014 209.56 155.881 205.456 160.486 202.314C165.018 199.235 170.183 197.21 175.602 196.388C181.021 195.567 186.556 195.97 191.798 197.567C192.61 193.644 194.305 189.957 196.754 186.785C199.204 183.614 202.344 181.04 205.936 179.26C209.532 177.566 213.473 176.732 217.447 176.825C221.421 176.918 225.319 177.936 228.831 179.796C239.539 176.762 251.321 182.477 256.178 192.651C261.034 202.824 257.788 216.32 248.821 223.028C258.94 238.093 258.495 261.683 247.747 276.29C253.664 277.885 256.23 286.359 257.107 292.531C259.64 310.472 256.587 328.756 248.363 344.904C259.28 344.381 269.844 352.515 276.35 361.459C279.578 366 281.68 371.241 282.484 376.752C283.287 382.263 282.769 387.886 280.971 393.157C287.307 392.765 292.687 397.773 295.803 403.383C298.14 408.042 299.637 413.075 300.227 418.252C300.477 418.769 300.666 419.313 300.79 419.873C304.181 434.755 298.957 452.447 287.739 462.87Z" fill="white"/>
</g>
<path d="M223.805 157.84L306.157 144.488C306.446 144.445 306.74 144.479 307.012 144.586C307.283 144.692 307.522 144.868 307.703 145.096C307.885 145.324 308.004 145.596 308.047 145.884C308.09 146.172 308.057 146.466 307.951 146.738L276.625 223.982C276.519 224.251 276.344 224.487 276.118 224.666C275.891 224.845 275.622 224.961 275.336 225.002C275.05 225.043 274.758 225.008 274.49 224.9C274.222 224.792 273.988 224.615 273.811 224.388L222.757 160.494C222.577 160.268 222.46 159.998 222.417 159.712C222.375 159.426 222.408 159.134 222.514 158.865C222.62 158.596 222.795 158.36 223.022 158.18C223.249 158 223.518 157.883 223.805 157.84Z" fill="#1780D9"/>
<path opacity="0.2" d="M223.805 157.84L306.157 144.488C306.446 144.445 306.74 144.479 307.012 144.586C307.283 144.692 307.522 144.868 307.703 145.096C307.885 145.324 308.004 145.596 308.047 145.884C308.09 146.172 308.057 146.466 307.951 146.738L276.625 223.982C276.519 224.251 276.344 224.487 276.118 224.666C275.891 224.845 275.622 224.961 275.336 225.002C275.05 225.043 274.758 225.008 274.49 224.9C274.222 224.792 273.988 224.615 273.811 224.388L222.757 160.494C222.577 160.268 222.46 159.998 222.417 159.712C222.375 159.426 222.408 159.134 222.514 158.865C222.62 158.596 222.795 158.36 223.022 158.18C223.249 158 223.518 157.883 223.805 157.84Z" fill="white"/>
<path d="M229.682 189.002L234.814 182.372L230.35 176.775L222.731 180.306C223.259 182.142 224.145 183.855 225.338 185.347C226.531 186.84 228.007 188.082 229.682 189.002Z" fill="#263238"/>
<path opacity="0.2" d="M230.35 176.775L228.557 177.599C229.607 180.144 231.359 182.339 233.61 183.928L234.814 182.372L230.35 176.775Z" fill="white"/>
<path opacity="0.4" d="M226.645 178.488L225.219 179.155C226.442 182.274 228.583 184.95 231.358 186.831L232.314 185.589C229.982 183.61 228.057 181.199 226.645 178.488Z" fill="white"/>
<path d="M237.746 185.118C235.473 183.875 233.469 182.196 231.85 180.176C230.23 178.156 229.026 175.836 228.308 173.349L275.656 135.609C278.304 133.491 281.346 131.917 284.606 130.979C287.866 130.041 291.28 129.757 294.651 130.143C294.279 133.51 293.243 136.771 291.603 139.736C289.963 142.701 287.751 145.311 285.095 147.418L237.746 185.118Z" fill="#1780D9"/>
<path d="M275.656 135.57L231.031 171.152C232.762 176.02 236.082 180.166 240.456 182.921L285.095 147.339C287.751 145.233 289.963 142.622 291.603 139.657C293.243 136.692 294.279 133.432 294.651 130.065C291.278 129.684 287.862 129.974 284.602 130.919C281.342 131.864 278.301 133.445 275.656 135.57Z" fill="#1780D9"/>
<path opacity="0.5" d="M275.656 135.57L231.031 171.152C232.762 176.02 236.082 180.166 240.456 182.921L285.095 147.339C287.751 145.233 289.963 142.622 291.603 139.657C293.243 136.692 294.279 133.432 294.651 130.065C291.278 129.684 287.862 129.974 284.602 130.919C281.342 131.864 278.301 133.445 275.656 135.57Z" fill="white"/>
<path d="M275.656 135.57L273.614 137.205C275.596 141.929 278.86 146.006 283.039 148.974L285.095 147.339C287.751 145.233 289.963 142.622 291.603 139.657C293.243 136.692 294.279 133.432 294.651 130.065C291.278 129.684 287.862 129.974 284.602 130.919C281.342 131.864 278.301 133.445 275.656 135.57Z" fill="#1780D9"/>
<path opacity="0.2" d="M275.656 135.57L273.614 137.205C275.596 141.929 278.86 146.006 283.039 148.974L285.095 147.339C287.751 145.233 289.963 142.622 291.603 139.657C293.243 136.692 294.279 133.432 294.651 130.065C291.278 129.684 287.862 129.974 284.602 130.919C281.342 131.864 278.301 133.445 275.656 135.57Z" fill="white"/>
<path d="M254.567 218.189L259.699 211.546L255.235 205.962L247.629 209.493C248.154 211.328 249.038 213.041 250.228 214.534C251.419 216.026 252.894 217.269 254.567 218.189Z" fill="#263238"/>
<path opacity="0.2" d="M255.235 205.962L253.455 206.786C254.5 209.331 256.253 211.523 258.508 213.102L259.699 211.546L255.235 205.962Z" fill="white"/>
<path opacity="0.4" d="M251.544 207.676L250.117 208.33C251.331 211.454 253.468 214.135 256.243 216.019L257.212 214.711C254.884 212.755 252.958 210.366 251.544 207.676Z" fill="white"/>
<path d="M262.644 214.306C258.061 211.788 254.666 207.554 253.206 202.536L300.555 164.797C303.203 162.679 306.245 161.105 309.505 160.165C312.764 159.224 316.178 158.936 319.549 159.318C319.17 162.685 318.132 165.945 316.492 168.911C314.852 171.877 312.644 174.492 309.993 176.605L262.644 214.306Z" fill="#1780D9"/>
<path d="M300.555 164.757L255.916 200.326C257.653 205.195 260.977 209.339 265.354 212.095L309.993 176.527C312.644 174.413 314.852 171.798 316.492 168.832C318.132 165.866 319.17 162.606 319.549 159.239C316.175 158.863 312.76 159.157 309.5 160.104C306.241 161.051 303.2 162.633 300.555 164.757Z" fill="#1780D9"/>
<path opacity="0.5" d="M300.555 164.757L255.916 200.326C257.653 205.195 260.977 209.339 265.354 212.095L309.993 176.527C312.644 174.413 314.852 171.798 316.492 168.832C318.132 165.866 319.17 162.606 319.549 159.239C316.175 158.863 312.76 159.157 309.5 160.104C306.241 161.051 303.2 162.633 300.555 164.757Z" fill="white"/>
<path d="M300.555 164.758L298.512 166.379C300.494 171.104 303.759 175.18 307.938 178.148L309.993 176.514C312.644 174.4 314.853 171.786 316.492 168.819C318.132 165.853 319.17 162.593 319.549 159.226C316.174 158.852 312.759 159.149 309.499 160.098C306.239 161.047 303.2 162.631 300.555 164.758Z" fill="#1780D9"/>
<path opacity="0.2" d="M300.555 164.758L298.512 166.379C300.494 171.104 303.759 175.18 307.938 178.148L309.993 176.514C312.644 174.4 314.853 171.786 316.492 168.819C318.132 165.853 319.17 162.593 319.549 159.226C316.174 158.852 312.759 159.149 309.499 160.098C306.239 161.047 303.2 162.631 300.555 164.758Z" fill="white"/>
<path d="M241.307 208.604L249.606 197.907L242.393 188.871L230.101 194.573C230.949 197.535 232.376 200.3 234.299 202.708C236.222 205.116 238.604 207.12 241.307 208.604Z" fill="#263238"/>
<path opacity="0.2" d="M242.393 188.871L239.513 190.179C241.2 194.283 244.025 197.822 247.655 200.379L249.606 197.881L242.393 188.871Z" fill="white"/>
<path opacity="0.4" d="M236.424 191.644L234.107 192.716C236.081 197.753 239.536 202.075 244.016 205.113L245.574 203.099C241.808 199.911 238.699 196.02 236.424 191.644Z" fill="white"/>
<path d="M254.279 202.34C250.61 200.32 247.376 197.596 244.763 194.324C242.151 191.053 240.211 187.297 239.055 183.274L315.491 122.349C319.768 118.935 324.678 116.397 329.939 114.882C335.2 113.368 340.709 112.905 346.149 113.523C345.545 118.958 343.872 124.22 341.226 129.007C338.579 133.794 335.012 138.011 330.728 141.415L254.279 202.34Z" fill="#1780D9"/>
<path d="M315.543 122.35L243.545 179.783C246.313 187.668 251.657 194.394 258.717 198.875L330.78 141.442C335.064 138.037 338.632 133.82 341.278 129.033C343.924 124.246 345.598 118.984 346.201 113.549C340.763 112.928 335.255 113.386 329.994 114.896C324.733 116.406 319.822 118.939 315.543 122.35Z" fill="#1780D9"/>
<path opacity="0.6" d="M315.543 122.35L243.545 179.783C246.313 187.668 251.657 194.394 258.717 198.875L330.78 141.442C335.064 138.037 338.632 133.82 341.278 129.033C343.924 124.246 345.598 118.984 346.201 113.549C340.763 112.928 335.255 113.386 329.994 114.896C324.733 116.406 319.822 118.939 315.543 122.35Z" fill="white"/>
<path d="M315.543 122.349L312.244 124.965C315.435 132.617 320.71 139.222 327.469 144.031L330.781 141.415C335.064 138.011 338.632 133.794 341.278 129.007C343.924 124.22 345.598 118.958 346.201 113.523C340.761 112.905 335.252 113.368 329.991 114.882C324.73 116.397 319.82 118.935 315.543 122.349Z" fill="#1780D9"/>
<path opacity="0.2" d="M315.543 122.349L312.244 124.965C315.435 132.617 320.71 139.222 327.469 144.031L330.781 141.415C335.064 138.011 338.632 133.794 341.278 129.007C343.924 124.22 345.598 118.958 346.201 113.523C340.761 112.905 335.252 113.368 329.991 114.882C324.73 116.397 319.82 118.935 315.543 122.349Z" fill="white"/>
<path d="M312.31 149.628C311.21 150.502 309.876 151.031 308.476 151.147C307.075 151.264 305.672 150.964 304.442 150.284C303.213 149.605 302.213 148.577 301.568 147.329C300.923 146.082 300.663 144.672 300.82 143.277C300.977 141.882 301.545 140.565 302.451 139.492C303.357 138.42 304.561 137.639 305.911 137.25C307.261 136.86 308.696 136.879 310.036 137.304C311.375 137.729 312.558 138.541 313.435 139.637C314.611 141.111 315.153 142.992 314.942 144.865C314.731 146.738 313.784 148.451 312.31 149.628Z" fill="#1780D9"/>
<path d="M302.309 148.503C301.193 147.103 300.647 145.334 300.78 143.55C300.914 141.765 301.717 140.097 303.029 138.878C302.878 138.974 302.734 139.079 302.597 139.192C301.867 139.774 301.259 140.494 300.808 141.311C300.357 142.128 300.071 143.026 299.967 143.953C299.863 144.88 299.943 145.818 300.202 146.715C300.461 147.611 300.895 148.447 301.477 149.176C302.06 149.905 302.781 150.513 303.599 150.963C304.416 151.414 305.315 151.699 306.243 151.803C307.171 151.907 308.11 151.827 309.008 151.568C309.905 151.31 310.742 150.877 311.472 150.294L311.865 149.941C310.384 150.949 308.576 151.361 306.804 151.094C305.032 150.827 303.427 149.902 302.309 148.503Z" fill="#1780D9"/>
<path opacity="0.3" d="M302.309 148.503C301.193 147.103 300.647 145.334 300.78 143.55C300.914 141.765 301.717 140.097 303.029 138.878C302.878 138.974 302.734 139.079 302.597 139.192C301.867 139.774 301.259 140.494 300.808 141.311C300.357 142.128 300.071 143.026 299.967 143.953C299.863 144.88 299.943 145.818 300.202 146.715C300.461 147.611 300.895 148.447 301.477 149.176C302.06 149.905 302.781 150.513 303.599 150.963C304.416 151.414 305.315 151.699 306.243 151.803C307.171 151.907 308.11 151.827 309.008 151.568C309.905 151.31 310.742 150.877 311.472 150.294L311.865 149.941C310.384 150.949 308.576 151.361 306.804 151.094C305.032 150.827 303.427 149.902 302.309 148.503Z" fill="black"/>
<path d="M311.001 147.993C310.224 148.613 309.28 148.989 308.288 149.073C307.297 149.157 306.304 148.945 305.433 148.464C304.562 147.984 303.854 147.256 303.398 146.373C302.941 145.49 302.757 144.492 302.869 143.505C302.981 142.517 303.384 141.585 304.026 140.827C304.668 140.068 305.522 139.517 306.478 139.243C307.434 138.969 308.45 138.984 309.397 139.287C310.344 139.59 311.18 140.167 311.799 140.945C312.213 141.459 312.52 142.05 312.704 142.683C312.888 143.317 312.944 143.98 312.87 144.635C312.796 145.291 312.592 145.925 312.271 146.501C311.951 147.077 311.519 147.585 311.001 147.993Z" fill="white"/>
<path d="M303.801 146.986L312.65 142.553C312.476 142.011 312.21 141.502 311.865 141.049L303.042 145.456C303.209 146.004 303.466 146.521 303.801 146.986Z" fill="#1780D9"/>
<path d="M305.175 148.281L312.873 144.436C312.905 144.123 312.905 143.808 312.873 143.495L304.455 147.705C304.678 147.918 304.919 148.11 305.175 148.281Z" fill="#1780D9"/>
<g opacity="0.7">
<path d="M303.801 146.986L312.65 142.553C312.476 142.011 312.21 141.502 311.865 141.049L303.042 145.456C303.209 146.004 303.466 146.521 303.801 146.986Z" fill="white"/>
<path d="M305.176 148.281L312.873 144.436C312.905 144.123 312.905 143.808 312.873 143.495L304.456 147.705C304.678 147.918 304.919 148.11 305.176 148.281Z" fill="white"/>
</g>
<path d="M398.616 226.781H328.267V462.687H398.616V226.781Z" fill="#1780D9"/>
<path opacity="0.2" d="M347.969 226.755H328.097V462.556H347.969V226.755Z" fill="black"/>
<path d="M79.6908 397.08H9.34229V462.699H79.6908V397.08Z" fill="#1780D9"/>
<path opacity="0.2" d="M28.5594 397.015H8.68799V462.569H28.5594V397.015Z" fill="black"/>
<path d="M181.824 340.314H111.475V462.687H181.824V340.314Z" fill="#1780D9"/>
<path opacity="0.2" d="M130.862 340.262H110.991V462.569H130.862V340.262Z" fill="black"/>
<path d="M291.234 283.547H220.885V462.686H291.234V283.547Z" fill="#1780D9"/>
<path opacity="0.2" d="M240.43 283.508H220.558V462.569H240.43V283.508Z" fill="black"/>
<path d="M500.748 170.015H430.4V462.687H500.748V170.015Z" fill="#1780D9"/>
<path opacity="0.2" d="M450.271 170.015H430.4V462.569H450.271V170.015Z" fill="black"/>
<path d="M149.451 301.972L143.639 321.784L152.2 323.784L158.719 304.823L149.451 301.972Z" fill="#FF8B7B"/>
<path d="M154.124 321.496L144.319 319.6C144.131 319.572 143.94 319.609 143.776 319.704C143.612 319.799 143.485 319.947 143.416 320.123L139.894 328.361C139.735 328.697 139.712 329.081 139.832 329.433C139.952 329.785 140.204 330.076 140.536 330.244L140.811 330.336C144.371 330.951 147.579 331.343 152.003 332.193C157.239 333.2 155.76 333.618 161.886 334.887C165.565 335.645 167.123 331.277 165.643 330.754C158.653 328.414 158.378 325.955 156.166 322.673C155.667 322.027 154.933 321.605 154.124 321.496Z" fill="#263238"/>
<path d="M103.149 172.656L136.936 193.317L101.539 199.516L103.149 172.656Z" fill="#263238"/>
<path d="M157.305 314.421L145.105 312.238C145.105 312.238 149.647 295.342 154.569 272.249C155.328 268.692 165.133 241.623 165.133 241.623C165.133 241.623 116.698 218.948 115.926 218.699C115.311 218.503 111.344 218.202 105.152 213.364C93.6326 204.367 97.298 186.766 97.298 186.766L127.406 187.485C156.794 203.177 182.308 226.101 185.751 235.49C190.594 248.71 157.305 314.421 157.305 314.421Z" fill="#263238"/>
<path d="M36.4141 293.146L16.2939 297.879L18.7942 306.314L38.5086 302.6L36.4141 293.146Z" fill="#FF8B7B"/>
<path d="M21.7261 306.837L18.5059 297.343C18.4352 297.167 18.3085 297.019 18.1452 296.922C17.9819 296.825 17.7912 296.785 17.6026 296.807L8.68798 297.827C8.31748 297.854 7.97245 298.025 7.72748 298.304C7.48252 298.583 7.35731 298.947 7.37892 299.318C7.36653 299.409 7.36653 299.501 7.37892 299.593C8.60943 302.993 9.83994 305.974 11.3061 310.237C13.0209 315.272 11.9344 314.16 13.9242 320.149C15.0762 323.732 19.6709 322.948 19.3699 321.365C17.9561 314.147 19.9589 312.695 21.7261 309.152C22.0267 308.409 22.0267 307.579 21.7261 306.837Z" fill="#263238"/>
<path d="M29.4629 306.104L25.3394 294.44L89.339 258.805C89.339 258.805 85.1631 205.57 84.9667 204.746C84.7704 203.922 83.1341 200.522 84.286 192.741C86.4198 178.357 103.516 172.747 103.516 172.747L118.138 203.569C118.138 203.569 111.344 266.05 104.877 273.674C95.7795 284.41 29.4629 306.104 29.4629 306.104Z" fill="#263238"/>
<path opacity="0.2" d="M115.926 218.699L105.152 213.364L113.452 238.89L115.926 218.699Z" fill="black"/>
<path d="M141.701 134.903C136.151 136.093 130.574 137.152 124.998 138.185L120.809 138.944L117.078 139.584C115.462 139.928 113.975 140.716 112.784 141.86L106.906 147.875C104.943 149.915 102.979 151.955 100.976 153.956C97.0493 157.984 92.9912 161.998 88.9069 165.947C88.2627 166.569 87.4096 166.929 86.5142 166.956C85.6188 166.983 84.7456 166.675 84.065 166.093C83.3844 165.512 82.9454 164.697 82.8337 163.809C82.7221 162.921 82.9459 162.024 83.4613 161.292C86.7077 156.65 90.0066 152.138 93.4101 147.535C95.0726 145.234 96.7744 142.984 98.4761 140.735L103.712 133.844C106.287 130.734 109.712 128.44 113.57 127.24L118.099 126.011L122.183 124.938C127.642 123.552 133.087 122.166 138.572 120.911C140.353 120.681 142.156 121.124 143.626 122.154C145.096 123.183 146.129 124.724 146.521 126.475C146.912 128.225 146.635 130.058 145.744 131.615C144.852 133.172 143.41 134.34 141.701 134.89V134.903Z" fill="#1780D9"/>
<path opacity="0.1" d="M141.701 134.903C136.151 136.093 130.574 137.152 124.998 138.185L120.809 138.944L117.078 139.584C115.462 139.928 113.975 140.716 112.784 141.86L106.906 147.875C104.943 149.915 102.979 151.955 100.976 153.956C97.0493 157.984 92.9912 161.998 88.9069 165.947C88.2627 166.569 87.4096 166.929 86.5142 166.956C85.6188 166.983 84.7456 166.675 84.065 166.093C83.3844 165.512 82.9454 164.697 82.8337 163.809C82.7221 162.921 82.9459 162.024 83.4613 161.292C86.7077 156.65 90.0066 152.138 93.4101 147.535C95.0726 145.234 96.7744 142.984 98.4761 140.735L103.712 133.844C106.287 130.734 109.712 128.44 113.57 127.24L118.099 126.011L122.183 124.938C127.642 123.552 133.087 122.166 138.572 120.911C140.353 120.681 142.156 121.124 143.626 122.154C145.096 123.183 146.129 124.724 146.521 126.475C146.912 128.225 146.635 130.058 145.744 131.615C144.852 133.172 143.41 134.34 141.701 134.89V134.903Z" fill="black"/>
<path d="M82.3487 161.213L73.709 164.561L81.5633 172.119L88.1086 166.889C88.2925 166.744 88.4449 166.564 88.5564 166.359C88.6679 166.153 88.7362 165.927 88.757 165.694C88.7779 165.462 88.7509 165.227 88.6776 165.005C88.6044 164.783 88.4865 164.579 88.3311 164.404C87.5954 163.503 86.6876 162.757 85.6606 162.209C84.6336 161.661 83.5078 161.323 82.3487 161.213Z" fill="#FF8B7B"/>
<path d="M73.7087 164.561L72.3996 167.072C72.0731 167.676 71.9702 168.375 72.1091 169.047C72.248 169.719 72.6197 170.321 73.1589 170.746L75.9341 172.917C76.3482 173.244 76.8436 173.452 77.3672 173.519C77.8907 173.586 78.4225 173.509 78.9056 173.296L81.5237 172.119L73.7087 164.561Z" fill="#FF8B7B"/>
<path d="M34.9083 198.783L31.7273 198.26L33.704 195.867L73.5123 181.587C79.8481 179.312 83.9847 175.049 80.7121 167.307C77.6882 160.115 70.8811 157.984 64.5584 160.233L24.7501 174.343L21.5298 173.741L23.5326 171.413L63.354 157.33C70.7109 154.714 77.7536 155.316 82.584 166.614C87.4144 177.913 82.0866 181.796 74.7297 184.438L34.9083 198.783Z" fill="#263238"/>
<path d="M46.703 155.63L45.826 153.655C44.9457 151.674 43.3726 150.082 41.4013 149.177C39.4301 148.272 37.1961 148.116 35.1179 148.738L5.75586 157.552L10.9921 170.511L46.703 155.63Z" fill="#263238"/>
<path opacity="0.2" d="M46.703 155.63L45.826 153.655C44.9457 151.674 43.3726 150.082 41.4013 149.177C39.4301 148.272 37.1961 148.116 35.1179 148.738L5.75586 157.552L10.9921 170.511L46.703 155.63Z" fill="white"/>
<path d="M36.6103 203.438L35.3928 200.522L73.9968 183.522C80.1363 180.829 84.0896 176.16 80.8432 168.458C77.8193 161.253 71.1693 159.461 65.0298 162.129L26.4258 178.946L25.1953 176.042L63.7993 159.265C70.9467 156.166 77.8716 156.362 82.6366 167.686C87.4015 179.011 82.3355 183.287 75.2011 186.425L36.6103 203.438Z" fill="#263238"/>
<path d="M32.2117 221.655L8.41309 164.195L37.2123 151.916C38.0749 151.532 39.0054 151.323 39.9496 151.303C40.8938 151.282 41.8326 151.449 42.7113 151.795C43.59 152.141 44.391 152.658 45.0673 153.316C45.7437 153.975 46.2819 154.761 46.6505 155.63L64.1264 197.397C65.0593 199.702 65.0577 202.28 64.1219 204.584C63.1862 206.888 61.3897 208.737 59.1127 209.742L32.2117 221.655Z" fill="#263238"/>
<g opacity="0.3">
<path d="M36.6103 203.438L33.5079 203.072L35.3929 200.457L73.9969 183.457C80.1364 180.763 84.0897 176.095 80.8433 168.393C77.8194 161.187 71.1694 159.396 65.0299 162.063L26.4259 178.946L23.2842 178.514L25.1954 176.042L63.7994 159.265C70.9468 156.166 77.8717 156.362 82.6367 167.686C87.4016 179.011 82.3356 183.287 75.2012 186.425L36.6103 203.438Z" fill="white"/>
</g>
<path d="M41.7027 173.257L39.7129 168.484L41.4932 167.7L43.4961 172.486L41.7027 173.257Z" fill="#263238"/>
<path d="M30.1044 178.318L28.1016 173.519L29.895 172.734L31.8978 177.534L30.1044 178.318Z" fill="#263238"/>
<path d="M51.9653 197.842L49.9624 193.029L51.7427 192.245L53.7456 197.044L51.9653 197.842Z" fill="#263238"/>
<path d="M40.3539 202.955L38.3511 198.142L40.1445 197.345L42.1473 202.157L40.3539 202.955Z" fill="#263238"/>
<path d="M186.824 113.078C187.204 113.261 187.282 113.875 186.994 114.385C186.706 114.895 186.183 115.275 185.816 115.092C185.45 114.908 185.371 114.294 185.646 113.718C185.921 113.143 186.457 112.882 186.824 113.078Z" fill="#263238"/>
<path d="M186.562 113.522C187.051 113.616 187.557 113.532 187.989 113.287C187.744 113.311 187.496 113.287 187.26 113.215C187.024 113.143 186.805 113.025 186.615 112.869C186.659 112.974 186.677 113.088 186.668 113.202C186.659 113.316 186.622 113.425 186.562 113.522Z" fill="#263238"/>
<path d="M183.303 118.976C183.709 119.324 184.187 119.579 184.702 119.723C185.218 119.868 185.759 119.898 186.287 119.812C185.897 117.762 185.787 115.668 185.96 113.588L183.303 118.976Z" fill="#FF5652"/>
<path d="M184.756 110.148C185.213 110.042 185.689 110.046 186.144 110.16C186.599 110.273 187.021 110.494 187.374 110.802L187.453 110.894C187.493 110.924 187.539 110.947 187.588 110.959C187.637 110.972 187.688 110.975 187.738 110.967C187.787 110.96 187.836 110.943 187.879 110.917C187.922 110.891 187.96 110.856 187.989 110.815C188.02 110.776 188.042 110.731 188.054 110.684C188.067 110.636 188.069 110.586 188.062 110.537C188.055 110.488 188.037 110.441 188.011 110.399C187.985 110.357 187.951 110.321 187.911 110.292C187.482 109.888 186.961 109.594 186.394 109.434C185.826 109.275 185.228 109.255 184.651 109.377C184.563 109.391 184.484 109.438 184.429 109.508C184.361 109.58 184.323 109.676 184.323 109.776C184.323 109.875 184.361 109.971 184.429 110.044C184.473 110.083 184.525 110.113 184.581 110.131C184.638 110.149 184.697 110.155 184.756 110.148Z" fill="#263238"/>
<path d="M158.627 136.878C150.144 130.339 152.475 124.742 152.475 124.742C156.912 124.272 160.578 119.891 163.196 115.484C163.132 116.961 163.34 118.437 163.811 119.838C164.767 122.742 170.801 124.062 170.801 124.062C170.801 124.062 170.212 124.808 169.492 125.919C167.555 128.652 164.505 133.7 166.324 136.289C166.259 136.289 167.961 144.083 158.627 136.878Z" fill="#FF8B7B"/>
<path d="M170.396 124.847C170.003 125.161 169.61 125.475 169.231 125.841C169.188 125.856 169.142 125.856 169.1 125.841C167.858 125.271 166.751 124.447 165.849 123.422C164.947 122.397 164.27 121.194 163.863 119.891C163.386 118.486 163.178 117.005 163.248 115.523C163.929 114.412 164.557 113.274 165.055 112.228L170.291 124.442L170.396 124.847Z" fill="#FF8B7B"/>
<path d="M181.837 122.742C180.67 124.17 179.16 125.279 177.447 125.965C175.735 126.651 173.876 126.892 172.045 126.665C171.09 126.558 170.158 126.302 169.283 125.906C169.24 125.921 169.194 125.921 169.152 125.906C167.911 125.336 166.803 124.512 165.901 123.487C164.999 122.462 164.323 121.259 163.916 119.956C163.439 118.552 163.23 117.07 163.3 115.589C163.444 112.032 165.133 108.488 167.306 103.322C167.986 101.635 169.087 100.149 170.505 99.0065C171.923 97.8642 173.609 97.1034 175.405 96.7966C177.2 96.4899 179.044 96.6473 180.761 97.254C182.478 97.8607 184.011 98.8964 185.214 100.263C190.607 106.317 186.445 117.171 181.837 122.742Z" fill="#FF8B7B"/>
<path opacity="0.2" d="M171.456 126.429C170.753 126.39 170.064 126.217 169.427 125.919C170.212 124.808 170.814 124.075 170.736 124.062L172.346 122.284C172.346 122.284 171.011 126.076 171.456 126.429Z" fill="black"/>
<path d="M188.67 109.547C187.138 110.096 184.258 109.312 184.533 109.129C185.607 108.514 186.903 106.736 185.476 106.252C185.24 107.193 182.059 113.104 181.143 113.392C180.645 113.562 177.216 117.524 172.49 119.786C168.785 121.591 168.065 122.493 168.065 122.493L161.52 119.08C159.583 117.119 154.909 99.5565 164.819 96.2088C168.065 95.1104 170.553 92.3642 175.71 93.8419C178.891 94.7573 182.622 94.195 185.751 95.2803C187.347 95.7467 188.805 96.594 190 97.7491C191.195 98.9041 192.091 100.332 192.61 101.91C192.964 103.48 192.545 108.187 188.67 109.547Z" fill="#263238"/>
<path d="M182.701 110.96C184.01 112.869 182.923 116.19 181.693 117.917C180.462 119.643 178.197 119.996 177.569 117.511C177.119 115.623 177.299 113.639 178.08 111.862C179.061 109.744 181.339 109.05 182.701 110.96Z" fill="#FF8B7B"/>
<path d="M147.67 125.867C147.67 125.867 152.16 122.872 155.132 123.16C158.104 123.448 165.709 131.582 166.652 133.177C167.594 134.772 166.482 138.97 166.482 138.97L147.67 125.867Z" fill="#1780D9"/>
<path opacity="0.3" d="M147.67 125.867C147.67 125.867 152.16 122.872 155.132 123.16C158.104 123.448 165.709 131.582 166.652 133.177C167.594 134.772 166.482 138.97 166.482 138.97L147.67 125.867Z" fill="white"/>
<path d="M168.772 139.728C167.889 138.638 166.945 137.599 165.944 136.616C161.479 132.736 156.793 129.117 151.911 125.775C150.131 124.608 148.257 123.588 146.309 122.728C144.403 121.848 142.246 121.673 140.222 122.233C138.199 122.793 136.44 124.053 135.26 125.788C128.492 135.779 126.895 143.533 122.392 150.072C116.517 158.458 109.651 166.106 101.945 172.852L107.548 178.841C116.27 185.59 126.265 190.513 136.936 193.317C136.936 193.317 147.133 177.049 152.985 172.904C168.968 161.566 168.013 157.029 170.5 152.125C171.508 150.128 171.882 147.872 171.574 145.657C171.265 143.442 170.288 141.374 168.772 139.728Z" fill="#1780D9"/>
<path d="M170.5 152.138C169.61 153.877 169.191 155.603 168.209 157.604C166.424 161.139 163.913 164.258 160.839 166.758C158.342 168.96 155.719 171.017 152.985 172.917C150.52 174.943 148.321 177.272 146.44 179.848C145.378 181.204 144.759 182.852 144.665 184.571C144.571 186.29 145.008 187.996 145.916 189.459C150.066 196.22 156.389 205.871 156.389 205.871C151.885 204.694 150.053 204.21 142.892 206.472C131.687 210.003 108.189 206.891 101.565 197.436C103.34 193.016 106.129 189.075 109.708 185.929C105.602 188.645 101.836 191.841 98.4891 195.449C95.5306 196.063 92.5329 194.442 90.3991 192.336C88.2654 190.231 86.6683 187.589 84.6131 185.406C82.5579 183.222 80.3063 181.156 77.3086 181.417C81.2358 176.186 87.8727 174.042 94.1168 172.263C98.7771 170.956 104.72 168.994 109.171 166.052C114.056 161.142 118.494 155.808 122.432 150.111C126.922 143.573 128.506 135.818 135.3 125.815C136.478 124.078 138.237 122.816 140.261 122.255C142.285 121.695 144.443 121.872 146.348 122.755C148.296 123.62 150.17 124.643 151.951 125.815C156.824 129.154 161.504 132.764 165.971 136.629C166.968 137.62 167.912 138.663 168.798 139.754C170.302 141.405 171.27 143.472 171.573 145.682C171.877 147.893 171.503 150.144 170.5 152.138Z" fill="#1780D9"/>
<path d="M232.431 135.073L239.173 132.157C239.452 132.035 239.715 131.882 239.959 131.699L242.996 129.332C243.206 129.171 243.363 128.95 243.445 128.697C243.527 128.445 243.53 128.174 243.454 127.92L240.377 123.029C240.287 122.668 240.066 122.353 239.756 122.145C239.447 121.937 239.071 121.851 238.702 121.905L234.146 123.605C233.804 123.727 233.497 123.934 233.256 124.206L228.688 129.175C228.504 129.409 228.387 129.687 228.347 129.982C228.308 130.276 228.349 130.576 228.465 130.849L230.481 134.04C230.613 134.428 230.889 134.751 231.251 134.943C231.614 135.135 232.036 135.181 232.431 135.073Z" fill="#FF8B7B"/>
<path opacity="0.2" d="M160.826 166.732L163.732 150.909L169.885 154.217C167.712 159.958 165.159 162.887 160.826 166.732Z" fill="black"/>
<path d="M205.295 155.8C213.699 149.967 224.25 141.729 231.947 135.099C232.667 132.562 230.272 129.228 227.837 130.248C221.776 132.784 203.672 142.814 200.477 142.906C198.278 142.971 175.605 139.702 168.196 138.63C166.724 138.401 165.218 138.722 163.968 139.532C159.871 142.304 158.823 145.338 159.059 148.006C159.296 150.034 160.24 151.914 161.727 153.316C163.214 154.717 165.148 155.55 167.188 155.669C177.543 156.44 193.068 157.303 199.116 157.565C201.314 157.674 203.487 157.053 205.295 155.8Z" fill="#1780D9"/>
<path d="M176.875 116.007C174.493 122.846 171.299 135.897 166.049 140.853C160.8 145.809 153.43 146.084 146.414 147.731C144.725 148.15 142.565 150.281 142.591 149.941C140.85 151.882 139.748 154.311 139.436 156.898L131.805 150.948C131.038 150.442 130.409 149.755 129.972 148.947C129.742 148.208 129.7 147.423 129.848 146.663C129.997 145.903 130.332 145.192 130.823 144.593C131.788 142.993 132.561 141.286 133.127 139.506C130.48 141.485 128.498 144.221 127.445 147.352C123.728 146.044 119.382 142.919 119.303 138.97C119.275 137.406 119.576 135.855 120.188 134.415C120.799 132.975 121.706 131.68 122.851 130.614C120.25 131.99 118.145 134.143 116.829 136.773C116.03 134.432 114.08 132.104 111.593 132.183C113.496 127.963 115.938 124.007 118.858 120.414C121.921 116.975 126.097 114.268 130.64 113.954C134.148 113.705 137.591 114.843 140.942 115.902C144.293 116.962 147.775 117.995 151.257 117.55C154.739 117.105 158.326 111.77 158.981 108.318C163.955 105.467 170.945 112.476 176.875 116.007Z" fill="#263238"/>
<path opacity="0.2" d="M200.072 109.782C199.723 116.576 196.688 122.953 191.634 127.512C186.579 132.071 179.919 134.438 173.118 134.092H173.027C171.959 134.028 170.897 133.897 169.846 133.7C164.857 126.663 158.134 121.033 150.328 117.354C149.968 116.371 149.671 115.367 149.438 114.346C148.601 110.773 148.541 107.062 149.263 103.464C149.985 99.8663 151.472 96.465 153.623 93.4902C155.774 90.5154 158.538 88.0363 161.731 86.2205C164.923 84.4046 168.468 83.2943 172.126 82.9646C175.785 82.6348 179.472 83.0933 182.938 84.309C186.404 85.5247 189.568 87.4694 192.217 90.0116C194.866 92.5538 196.938 95.6343 198.293 99.0451C199.648 102.456 200.255 106.117 200.072 109.782Z" fill="black"/>
<path d="M183.132 132.628C179.929 133.773 176.529 134.271 173.131 134.092H173.04C171.968 134.03 170.901 133.899 169.845 133.7C164.86 126.661 158.136 121.029 150.327 117.354C149.962 116.373 149.665 115.368 149.437 114.346C148.658 111.045 148.542 107.621 149.097 104.275C149.651 100.928 150.866 97.7247 152.669 94.8503C154.472 91.976 156.829 89.4879 159.602 87.5302C162.375 85.5725 165.51 84.1842 168.824 83.4458C170.329 84.1979 171.645 85.2796 172.673 86.6104C174.809 89.6847 176.099 93.2648 176.417 96.9934C177.177 102.611 177.044 108.313 176.024 113.889C175.236 117.716 175.61 121.691 177.098 125.305C179.663 131.111 183.132 132.628 183.132 132.628Z" fill="#1780D9"/>
<path opacity="0.4" d="M183.132 132.628C179.929 133.773 176.529 134.271 173.131 134.092H173.04C171.968 134.03 170.901 133.899 169.845 133.7C164.86 126.661 158.136 121.029 150.327 117.354C149.962 116.373 149.665 115.368 149.437 114.346C148.658 111.045 148.542 107.621 149.097 104.275C149.651 100.928 150.866 97.7247 152.669 94.8503C154.472 91.976 156.829 89.4879 159.602 87.5302C162.375 85.5725 165.51 84.1842 168.824 83.4458C170.329 84.1979 171.645 85.2796 172.673 86.6104C174.809 89.6847 176.099 93.2648 176.417 96.9934C177.177 102.611 177.044 108.313 176.024 113.889C175.236 117.716 175.61 121.691 177.098 125.305C179.663 131.111 183.132 132.628 183.132 132.628Z" fill="white"/>
<path d="M172.713 135.975C172.596 136.08 172.46 136.161 172.312 136.212C172.163 136.263 172.006 136.284 171.85 136.273C171.693 136.262 171.541 136.219 171.401 136.148C171.262 136.077 171.138 135.978 171.037 135.858C170.618 135.178 170.173 134.55 169.728 133.844C164.855 126.727 158.215 120.995 150.459 117.21C149.66 116.805 148.862 116.439 148.063 116.086C147.265 115.732 147.474 114.778 148.063 114.242C148.286 114.081 148.554 113.995 148.829 113.995C149.104 113.995 149.372 114.081 149.595 114.242C149.779 114.345 149.929 114.499 150.027 114.686C159.243 119.115 167.137 125.878 172.922 134.302C173.091 134.56 173.162 134.87 173.124 135.177C173.085 135.483 172.94 135.766 172.713 135.975Z" fill="#1780D9"/>
<path d="M178.093 110.632C178.093 111.08 177.96 111.517 177.711 111.889C177.462 112.261 177.109 112.551 176.695 112.723C176.281 112.894 175.826 112.939 175.386 112.851C174.947 112.764 174.544 112.548 174.227 112.232C173.91 111.916 173.694 111.513 173.607 111.074C173.52 110.635 173.564 110.18 173.736 109.767C173.907 109.353 174.198 109 174.57 108.751C174.942 108.503 175.38 108.37 175.828 108.37C176.429 108.37 177.005 108.608 177.429 109.033C177.854 109.457 178.093 110.032 178.093 110.632Z" fill="#263238"/>
<path d="M178.852 111.26C178.854 111.711 178.723 112.153 178.473 112.529C178.224 112.906 177.869 113.199 177.452 113.373C177.035 113.547 176.576 113.593 176.133 113.506C175.69 113.418 175.283 113.201 174.964 112.882C174.644 112.563 174.427 112.157 174.34 111.714C174.252 111.272 174.298 110.813 174.472 110.397C174.646 109.98 174.94 109.625 175.317 109.376C175.693 109.127 176.136 108.995 176.587 108.998C177.187 109.002 177.761 109.241 178.185 109.664C178.609 110.088 178.848 110.661 178.852 111.26Z" fill="#1780D9"/>
<path opacity="0.7" d="M178.852 111.26C178.854 111.711 178.723 112.153 178.473 112.529C178.224 112.906 177.869 113.199 177.452 113.373C177.035 113.547 176.576 113.593 176.133 113.506C175.69 113.418 175.283 113.201 174.964 112.882C174.644 112.563 174.427 112.157 174.34 111.714C174.252 111.272 174.298 110.813 174.472 110.397C174.646 109.98 174.94 109.625 175.317 109.376C175.693 109.127 176.136 108.995 176.587 108.998C177.187 109.002 177.761 109.241 178.185 109.664C178.609 110.088 178.848 110.661 178.852 111.26Z" fill="white"/>
<path d="M498.169 56.5078C498.169 65.0222 494.783 73.1878 488.756 79.2084C482.729 85.229 474.555 88.6113 466.032 88.6113C465.312 88.6113 464.605 88.6113 463.885 88.5329C455.733 88.0123 448.086 84.4105 442.497 78.4594C436.908 72.5083 433.798 64.6546 433.798 56.4947C433.798 48.3348 436.908 40.4811 442.497 34.53C448.086 28.5789 455.733 24.9771 463.885 24.4565C464.605 24.4565 465.312 24.4565 466.032 24.4565C474.546 24.4565 482.713 27.8317 488.738 33.8409C494.763 39.8502 498.155 48.0025 498.169 56.5078Z" fill="#1780D9"/>
<path opacity="0.2" d="M493.836 56.5075C493.453 62.3623 491.364 67.9773 487.827 72.6611C484.289 77.3448 479.457 80.8926 473.927 82.8675C468.396 84.8424 462.408 85.1583 456.699 83.7761C450.991 82.3939 445.812 79.3741 441.801 75.0885C437.789 70.8029 435.12 65.4388 434.122 59.6569C433.124 53.8749 433.84 47.9275 436.183 42.5473C438.527 37.1671 442.394 32.589 447.309 29.3768C452.224 26.1647 457.972 24.4588 463.846 24.4693C471.981 25.0103 479.607 28.6215 485.176 34.5708C490.745 40.5201 493.841 48.3623 493.836 56.5075Z" fill="white"/>
<path opacity="0.4" d="M486.044 65.6951C491.127 53.438 485.3 39.3858 473.03 34.3088C460.76 29.2317 446.693 35.0523 441.611 47.3094C436.528 59.5666 442.355 73.6187 454.625 78.6958C466.895 83.7729 480.962 77.9523 486.044 65.6951Z" fill="white"/>
<path opacity="0.4" d="M467.975 73.6199C477.523 71.3687 483.436 61.8113 481.183 52.273C478.929 42.7346 469.362 36.8273 459.814 39.0785C450.265 41.3298 444.352 50.8871 446.605 60.4255C448.859 69.9638 458.426 75.8712 467.975 73.6199Z" fill="white"/>
<path d="M469.697 56.5079C469.697 57.8786 469.29 59.2186 468.528 60.3584C467.766 61.4981 466.682 62.3864 465.414 62.911C464.147 63.4356 462.752 63.5728 461.406 63.3054C460.06 63.038 458.824 62.3779 457.853 61.4086C456.883 60.4393 456.222 59.2044 455.955 57.86C455.687 56.5156 455.824 55.122 456.349 53.8556C456.875 52.5892 457.764 51.5068 458.905 50.7452C460.046 49.9836 461.387 49.5772 462.759 49.5772C463.671 49.5754 464.574 49.7535 465.416 50.1012C466.259 50.4489 467.024 50.9594 467.669 51.6033C468.314 52.2472 468.825 53.0119 469.173 53.8536C469.521 54.6952 469.699 55.5972 469.697 56.5079Z" fill="#263238"/>
<path d="M414.56 80.3207L420.988 81.3669L430.413 75.8092V75.7962L425.608 73.6777L414.56 80.3207Z" fill="#1780D9"/>
<path d="M459.025 58.2888L420.746 80.9214L421.232 81.7429L459.512 59.1103L459.025 58.2888Z" fill="#263238"/>
<path d="M420.163 87.1074L429.457 81.6021L430.413 75.8091L420.988 81.3667L420.163 87.1074Z" fill="#1780D9"/>
<path opacity="0.2" d="M420.163 87.1074L429.457 81.6021L430.413 75.8091L420.988 81.3667L420.163 87.1074Z" fill="black"/>
<path d="M461.388 56L455 57.6346L460.825 60.8384L463.457 56.6669L461.388 56Z" fill="white"/>
<path d="M465.037 15.5119C464.724 15.5206 464.412 15.467 464.119 15.3544C463.827 15.2418 463.56 15.0724 463.333 14.8559C463.107 14.6394 462.926 14.3802 462.8 14.0932C462.675 13.8063 462.607 13.4973 462.602 13.1842V2.72275C462.602 2.09154 462.853 1.48619 463.3 1.03985C463.747 0.593521 464.353 0.342773 464.985 0.342773C465.617 0.342773 466.223 0.593521 466.669 1.03985C467.116 1.48619 467.367 2.09154 467.367 2.72275V13.1842C467.357 13.7984 467.108 14.3846 466.674 14.8189C466.239 15.2533 465.652 15.5018 465.037 15.5119Z" fill="#1780D9"/>
<path d="M465.037 112.79C464.724 112.792 464.413 112.732 464.123 112.613C463.833 112.494 463.57 112.318 463.349 112.097C463.127 111.876 462.952 111.613 462.832 111.323C462.713 111.034 462.653 110.723 462.655 110.41V99.9488C462.655 99.3176 462.906 98.7123 463.352 98.2659C463.799 97.8196 464.405 97.5688 465.037 97.5688C465.669 97.5688 466.275 97.8196 466.722 98.2659C467.169 98.7123 467.42 99.3176 467.42 99.9488V110.41C467.421 110.723 467.361 111.034 467.242 111.323C467.123 111.613 466.947 111.876 466.726 112.097C466.504 112.318 466.241 112.494 465.951 112.613C465.661 112.732 465.35 112.792 465.037 112.79Z" fill="#1780D9"/>
<path d="M421.681 57.3968H411.143C410.815 57.4211 410.485 57.3774 410.174 57.2685C409.863 57.1596 409.578 56.9878 409.336 56.7638C409.095 56.5398 408.902 56.2684 408.77 55.9667C408.639 55.665 408.571 55.3394 408.571 55.0102C408.571 54.6811 408.639 54.3555 408.77 54.0537C408.902 53.752 409.095 53.4807 409.336 53.2567C409.578 53.0327 409.863 52.8609 410.174 52.752C410.485 52.6431 410.815 52.5994 411.143 52.6237H421.681C422.01 52.5994 422.34 52.6431 422.651 52.752C422.962 52.8609 423.247 53.0327 423.488 53.2567C423.73 53.4807 423.922 53.752 424.054 54.0537C424.186 54.3555 424.254 54.6811 424.254 55.0102C424.254 55.3394 424.186 55.665 424.054 55.9667C423.922 56.2684 423.73 56.5398 423.488 56.7638C423.247 56.9878 422.962 57.1596 422.651 57.2685C422.34 57.3774 422.01 57.4211 421.681 57.3968Z" fill="#1780D9"/>
<path d="M520.201 57.397H509.65C509.047 57.3524 508.483 57.0816 508.071 56.639C507.66 56.1963 507.431 55.6146 507.431 55.0105C507.431 54.4065 507.66 53.8247 508.071 53.3821C508.483 52.9394 509.047 52.6686 509.65 52.624H520.201C520.804 52.6686 521.368 52.9394 521.779 53.3821C522.191 53.8247 522.419 54.4065 522.419 55.0105C522.419 55.6146 522.191 56.1963 521.779 56.639C521.368 57.0816 520.804 57.3524 520.201 57.397Z" fill="#1780D9"/>
</g>
<defs>
<clipPath id="clip0_255_1075">
<rect width="523" height="479" fill="white"/>
</clipPath>
</defs>
</svg>
