<svg width="80" height="80" viewBox="0 0 80 80" fill="none" xmlns="http://www.w3.org/2000/svg">
<circle cx="40" cy="40" r="40" fill="#1780D9"/>
<path d="M60.25 55C60.25 55.5967 60.0129 56.169 59.591 56.591C59.169 57.0129 58.5967 57.25 58 57.25H22C21.4033 57.25 20.831 57.0129 20.409 56.591C19.9871 56.169 19.75 55.5967 19.75 55V25C19.75 24.4033 19.9871 23.831 20.409 23.409C20.831 22.9871 21.4033 22.75 22 22.75C22.5967 22.75 23.169 22.9871 23.591 23.409C24.0129 23.831 24.25 24.4033 24.25 25V43.5625L32.4081 35.4025C32.6172 35.1927 32.8655 35.0263 33.139 34.9127C33.4125 34.7992 33.7057 34.7407 34.0019 34.7407C34.298 34.7407 34.5912 34.7992 34.8647 34.9127C35.1382 35.0263 35.3866 35.1927 35.5956 35.4025L40 39.8125L48.0625 31.75H46C45.4033 31.75 44.831 31.5129 44.409 31.091C43.9871 30.669 43.75 30.0967 43.75 29.5C43.75 28.9033 43.9871 28.331 44.409 27.909C44.831 27.4871 45.4033 27.25 46 27.25H53.5C54.0967 27.25 54.669 27.4871 55.091 27.909C55.5129 28.331 55.75 28.9033 55.75 29.5V37C55.75 37.5967 55.5129 38.169 55.091 38.591C54.669 39.0129 54.0967 39.25 53.5 39.25C52.9033 39.25 52.331 39.0129 51.909 38.591C51.4871 38.169 51.25 37.5967 51.25 37V34.9375L41.5919 44.5975C41.3828 44.8073 41.1345 44.9737 40.861 45.0873C40.5875 45.2008 40.2943 45.2593 39.9981 45.2593C39.702 45.2593 39.4088 45.2008 39.1353 45.0873C38.8618 44.9737 38.6134 44.8073 38.4044 44.5975L34 40.1875L24.25 49.9375V52.75H58C58.5967 52.75 59.169 52.9871 59.591 53.409C60.0129 53.831 60.25 54.4033 60.25 55Z" fill="white"/>
</svg>
