<svg width="114" height="50" viewBox="0 0 114 50" fill="none" xmlns="http://www.w3.org/2000/svg">
  <path d="M6.1738 35.0378H114V39.5077H8.39924C7.17017 39.5077 6.1738 38.5071 6.1738 37.2728V35.0378Z" fill="#174E7B" />
  <path d="M8.25567 28.9819L6.1738 30.2796H10.6247L8.25567 28.9819Z" fill="#174E7B" />
  <path d="M6.1738 30.2796H10.6247V35.0378H6.1738V30.2796Z" fill="#174E7B" />
  <path
    d="M10.6247 14.2747L8.25567 15.6445L6.1738 14.2747V8.07456C6.1738 5.55126 7.82494 0 8.32746 0C8.82998 0 10.6247 5.69545 10.6247 8.00247V14.2747Z"
    fill="#42B3FF" />
  <path d="M8.25567 18.8166L6.1738 17.5189V28.4052L8.25567 27.1075L10.6247 28.4052V17.5189L8.25567 18.8166Z"
    fill="#42B3FF" />
  <path d="M0 26.747L6.46096 21.5562V28.2277L0.861461 31.6494L0 26.747Z" fill="#1780D9" />
  <path
    d="M6.1738 21.7725L6.46096 21.5562V28.2277L0.861461 31.6494L0.789673 31.2889L1.14861 31.0726L1.00504 29.847L6.1738 26.8912V21.7725Z"
    fill="#174E7B" />
  <path d="M16.7985 26.747L10.3375 21.5562V28.261L15.937 31.6494L16.7985 26.747Z" fill="#1780D9" />
  <path
    d="M10.6247 21.7725L10.3375 21.5562V28.261L15.937 31.6494L16.0088 31.2889L15.6499 31.0726L15.7935 29.847L10.6247 26.8912V21.7725Z"
    fill="#174E7B" />
  <path
    d="M26.3779 17.9659C27.3581 17.9659 28.1575 18.1043 28.7762 18.3812C29.395 18.658 29.8483 19.0456 30.1362 19.5439C30.4302 20.0422 30.5773 20.6174 30.5773 21.2696C30.5773 21.9278 30.4486 22.4938 30.1913 22.9675C29.934 23.4351 29.6094 23.8011 29.2173 24.0657C28.8314 24.324 28.4363 24.4686 28.0319 24.4994C28.4424 24.5117 28.8712 24.6224 29.3184 24.8316C29.7656 25.0408 30.1454 25.376 30.4578 25.8374C30.7702 26.2988 30.9264 26.9171 30.9264 27.6923C30.9264 28.4121 30.7825 29.0673 30.4946 29.6579C30.2066 30.2423 29.7288 30.7099 29.0611 31.0605C28.3995 31.405 27.502 31.5773 26.3687 31.5773H20.7359V17.9659H26.3779ZM23.8602 23.3551H25.459C26.0961 23.3551 26.5617 23.2136 26.8558 22.9306C27.1559 22.6476 27.306 22.2816 27.306 21.8325C27.306 21.531 27.2417 21.2788 27.113 21.0758C26.9905 20.8727 26.7976 20.7189 26.5341 20.6144C26.2707 20.5098 25.9369 20.4575 25.5326 20.4575H23.8602V23.3551ZM25.7255 29.0765C26.3504 29.0765 26.8159 28.9289 27.1222 28.6336C27.4285 28.3383 27.5817 27.9568 27.5817 27.4893C27.5817 27.2432 27.5388 27.0186 27.453 26.8156C27.3734 26.6126 27.2509 26.4373 27.0855 26.2896C26.9262 26.142 26.7271 26.0282 26.4882 25.9482C26.2493 25.8682 25.9767 25.8282 25.6704 25.8282H23.8602V29.0765H25.7255Z"
    fill="white" />
  <path d="M32.4375 31.5773V17.9659H35.7271V30.5991V28.9289H40.6615V31.5773H32.4375Z" fill="white" />
  <path
    d="M52.1998 26.6957C52.1998 28.4059 51.7312 29.6856 50.7939 30.5345C49.8627 31.3835 48.5886 31.808 46.9713 31.808C45.3541 31.808 44.0799 31.3835 43.1487 30.5345C42.2176 29.6856 41.752 28.4059 41.752 26.6957C41.752 26.468 41.752 26.2312 41.752 25.9851C41.752 25.7329 41.752 25.4714 41.752 25.2007V17.9659H45.0416V25.699C45.0416 25.8959 45.0416 26.0835 45.0416 26.2619C45.0416 26.4403 45.0416 26.6095 45.0416 26.7695C45.0416 27.5939 45.1856 28.2091 45.4735 28.6151C45.7676 29.0211 46.2668 29.2241 46.9713 29.2241C47.6758 29.2241 48.1751 29.0211 48.4691 28.6151C48.7693 28.2091 48.9194 27.5939 48.9194 26.7695V17.9659H52.1998V26.6957Z"
    fill="white" />
  <path
    d="M57.3446 20.4575V18.9348V24.4071V23.5027H61.5439V25.9943H57.3446V25.0992V30.6084V29.0857H62.5639V31.5773H54.0458V17.9659H62.5639V20.4575H57.3446Z"
    fill="white" />
  <path d="M73.6912 20.4575H70.4384V18.9348V31.5773H67.1671V18.9348V20.4575H63.9234V17.9659H73.6912V20.4575Z"
    fill="white" />
  <path
    d="M78.3606 20.4575V18.9348V24.4071V23.5027H82.56V25.9943H78.3606V25.0992V30.6084V29.0857H83.5799V31.5773H75.0618V17.9659H83.5799V20.4575H78.3606Z"
    fill="white" />
  <path
    d="M84.5412 31.5773L87.8033 17.9567H93.0042L96.2571 31.5773H92.8939L90.4037 19.9407H90.4221L87.8951 31.5773H84.5412ZM88.5484 28.569L89.0955 26.0497H91.711L92.2501 28.569H88.5484Z"
    fill="white" />
  <path
    d="M107.164 17.9659H112.695V31.5773H109.58V20.1143L109.636 19.8392L107.265 31.5773H103.038L100.612 19.8115L100.66 20.0422L100.667 31.5773H97.5521V17.9659H103.084L105.262 30.1839L105.115 29.3626L107.164 17.9659Z"
    fill="white" />
  <path d="M58.5184 44.1909H56.8507V43.5081V49.8893H55.431V43.5081V44.1909H53.7678V43.0836H58.5184V44.1909Z"
    fill="white" />
  <path
    d="M61.9687 44.1909V43.5081V46.3272V45.9212H64.1465V47.0286H61.9687V46.6225V49.4648V48.7819H64.6565V49.8893H60.5353V43.0836H64.6565V44.1909H61.9687Z"
    fill="white" />
  <path
    d="M72.111 47.4023C72.111 47.6976 72.0543 47.9975 71.941 48.302C71.8307 48.6066 71.6623 48.8865 71.4356 49.1418C71.212 49.3971 70.9272 49.6047 70.581 49.7647C70.238 49.9216 69.8306 50 69.3589 50C68.731 50 68.195 49.8508 67.7509 49.5524C67.3067 49.251 66.9667 48.8357 66.7309 48.3066C66.4981 47.7776 66.3817 47.1701 66.3817 46.4841C66.3817 45.7981 66.4981 45.1922 66.7309 44.6662C66.9667 44.1402 67.3067 43.728 67.7509 43.4296C68.195 43.1312 68.731 42.982 69.3589 42.982C69.8827 42.982 70.3283 43.0774 70.6959 43.2681C71.0665 43.4588 71.3621 43.7065 71.5826 44.011C71.8062 44.3155 71.9578 44.637 72.0375 44.9753C72.0865 45.1814 72.111 45.3798 72.111 45.5705H70.6821C70.6821 45.4782 70.6745 45.389 70.6591 45.3029C70.6285 45.0784 70.5581 44.8784 70.4478 44.7031C70.3375 44.5278 70.1905 44.3893 70.0067 44.2878C69.826 44.1832 69.6101 44.1309 69.3589 44.1309C69.0649 44.1309 68.803 44.2155 68.5733 44.3847C68.3435 44.5539 68.1628 44.8123 68.0311 45.1599C67.8994 45.5075 67.8336 45.9489 67.8336 46.4841C67.8336 47.0224 67.8994 47.4669 68.0311 47.8176C68.1628 48.1651 68.3435 48.4251 68.5733 48.5973C68.803 48.7665 69.0649 48.8511 69.3589 48.8511C69.5703 48.8511 69.7571 48.8127 69.9194 48.7358C70.0848 48.6589 70.2227 48.5527 70.3329 48.4174C70.4463 48.282 70.532 48.1267 70.5902 47.9514C70.6515 47.776 70.6821 47.593 70.6821 47.4023H72.111Z"
    fill="white" />
  <path
    d="M79.5042 43.0836V49.8893H78.0753V46.6225V47.0562H75.6219V46.641V49.8893H74.193V43.0836H75.6219V46.3734V45.9443H78.0753V46.3734V43.0836H79.5042Z"
    fill="white" />
  <path
    d="M24.5814 11.8325C25.4428 12.3516 27.094 13.7069 27.094 13.7069C27.094 13.7069 27.4192 14.0631 27.2375 14.4279C27.094 14.7163 26.4659 14.6884 26.3043 14.6442C25.5146 14.4279 23.763 13.9376 23.0738 13.7069C22.3847 13.4762 20.7048 12.986 20.2023 12.4813C19.963 12.217 19.5993 11.5297 20.0587 10.8953C20.633 10.1022 21.5663 10.2464 21.8534 10.3185C22.1406 10.3906 23.5045 11.1836 24.5814 11.8325Z"
    fill="#42B3FF" />
  <path
    d="M27.3811 11.9046L23.5045 9.52547C23.361 9.38128 23.2892 9.16499 23.4328 8.87661C23.5173 8.70676 23.8635 8.51615 24.0789 8.66034L27.9554 11.0395C28.0272 11.1356 28.1277 11.3999 27.9554 11.6883C27.7831 11.9767 27.5008 11.9526 27.3811 11.9046Z"
    fill="#42B3FF" />
  <path
    d="M21.5663 5.56027C21.1642 5.38725 20.2023 4.62305 19.7715 4.26258C19.6998 4.19048 19.628 4.11839 19.6998 3.83001C19.7748 3.52869 20.0587 3.47915 20.2023 3.46954C21.2791 3.39744 23.002 3.75791 24.366 4.55095C25.2784 5.08144 27.3572 7.19441 28.2426 8.15567C28.3383 8.27583 28.4723 8.57382 28.2426 8.80452C28.0129 9.03522 27.6683 8.90064 27.5247 8.80452C26.9265 8.44405 25.5721 7.66543 25.2275 7.43473C24.7967 7.14635 22.0688 5.77656 21.5663 5.56027Z"
    fill="#42B3FF" />
  <path
    d="M33.9139 12.265C33.5693 11.919 32.7174 11.2557 32.3345 10.9673C31.8645 10.6133 30.6834 9.88593 29.8937 10.8953C29.104 11.9046 30.0373 12.6255 30.3962 12.8418C30.7552 13.0581 33.9857 14.6442 33.9857 14.6442C34.1292 14.7162 34.6318 14.9325 34.9907 14.5721C35.34 14.2212 35.23 13.9232 35.1343 13.779C34.871 13.4185 34.2585 12.6111 33.9139 12.265Z"
    fill="#1780D9" />
  <path
    d="M108.998 11.8325C108.137 12.3516 106.486 13.7069 106.486 13.7069C106.486 13.7069 106.161 14.0631 106.342 14.4279C106.486 14.7163 107.114 14.6884 107.275 14.6442C108.065 14.4279 109.817 13.9376 110.506 13.7069C111.195 13.4762 112.875 12.986 113.377 12.4813C113.617 12.217 113.98 11.5297 113.521 10.8953C112.947 10.1022 112.013 10.2464 111.726 10.3185C111.439 10.3906 110.075 11.1836 108.998 11.8325Z"
    fill="#42B3FF" />
  <path
    d="M106.199 11.9046L110.075 9.52547C110.219 9.38128 110.291 9.16499 110.147 8.87661C110.062 8.70676 109.716 8.51615 109.501 8.66034L105.624 11.0395C105.553 11.1356 105.452 11.3999 105.624 11.6883C105.797 11.9767 106.079 11.9526 106.199 11.9046Z"
    fill="#42B3FF" />
  <path
    d="M112.013 5.56027C112.416 5.38725 113.377 4.62305 113.808 4.26258C113.88 4.19048 113.952 4.11839 113.88 3.83001C113.805 3.52869 113.521 3.47915 113.377 3.46954C112.301 3.39744 110.578 3.75791 109.214 4.55095C108.301 5.08144 106.223 7.19441 105.337 8.15567C105.241 8.27583 105.107 8.57382 105.337 8.80452C105.567 9.03522 105.911 8.90064 106.055 8.80452C106.653 8.44405 108.008 7.66543 108.352 7.43473C108.783 7.14635 111.511 5.77656 112.013 5.56027Z"
    fill="#42B3FF" />
  <path
    d="M99.6659 12.265C100.01 11.919 100.862 11.2557 101.245 10.9673C101.715 10.6133 102.896 9.88593 103.686 10.8953C104.476 11.9046 103.542 12.6255 103.184 12.8418C102.825 13.0581 99.5941 14.6442 99.5941 14.6442C99.4505 14.7162 98.948 14.9325 98.5891 14.5721C98.2397 14.2212 98.3498 13.9232 98.4455 13.779C98.7087 13.4185 99.3213 12.6111 99.6659 12.265Z"
    fill="#1780D9" />
  <path
    d="M50.1083 46.5729C50.1083 47.7674 49.1441 48.7358 47.9547 48.7358C46.7652 48.7358 45.801 47.7674 45.801 46.5729C45.801 45.3784 46.7652 44.4101 47.9547 44.4101C49.1441 44.4101 50.1083 45.3784 50.1083 46.5729Z"
    fill="#1780D9" />
  <path
    d="M87.5819 46.5729C87.5819 47.7674 86.6176 48.7358 85.4282 48.7358C84.2388 48.7358 83.2746 47.7674 83.2746 46.5729C83.2746 45.3784 84.2388 44.4101 85.4282 44.4101C86.6176 44.4101 87.5819 45.3784 87.5819 46.5729Z"
    fill="#1780D9" />
</svg>