<svg width="431" height="324" viewBox="0 0 431 324" fill="none" xmlns="http://www.w3.org/2000/svg">
  <path opacity="0.1"
    d="M425.139 195.389H343.1C342.994 193.569 342.864 191.747 342.712 189.923H374.874C376.429 189.923 377.919 189.203 379.019 187.922C380.118 186.642 380.735 184.905 380.735 183.094C380.735 181.283 380.118 179.546 379.019 178.265C377.919 176.985 376.429 176.265 374.874 176.265H340.979C339.32 166.873 336.686 158.078 332.638 150.645C324.707 136.084 312.329 128.843 300.139 127.329C287.949 125.814 275.736 129.421 263.74 133.307C247.776 138.508 228.99 143.191 216.954 126C209.833 115.81 206.993 99.1175 209.542 84.5701C210.217 81.0037 211.051 77.4811 212.039 74.0149H254.316C255.871 74.0149 257.361 73.2955 258.46 72.0148C259.56 70.7341 260.177 68.9971 260.177 67.1863C260.177 65.3755 259.56 63.6385 258.46 62.3577C257.361 61.077 255.871 60.3576 254.316 60.3576H215.129C215.425 58.2539 215.57 56.1256 215.563 53.994C215.484 48.8619 214.439 43.8121 212.502 39.2016C210.565 34.591 207.784 30.5318 204.353 27.3105C198.202 21.6708 191.001 19.6781 183.919 18.2565C168.103 15.0282 151.791 14.0517 136.386 20.3423C121.807 2.01524 101.276 -4.18235 83.3617 4.48631C78.2474 6.86445 73.6919 10.6258 70.0715 15.46H105.022C106.534 15.46 107.984 16.1598 109.053 17.4056C110.123 18.6513 110.723 20.3409 110.723 22.1026C110.723 23.8644 110.123 25.554 109.053 26.7997C107.984 28.0455 106.534 28.7453 105.022 28.7453H63.9709C61.3368 38.7092 61.3596 50.3472 61.4907 61.3408C61.4907 62.5763 61.5192 63.8118 61.5363 65.0474H78.0821C79.6369 65.0474 81.1273 65.7668 82.2265 67.0475C83.3258 68.3282 83.9432 70.0652 83.9432 71.876C83.9432 73.6868 83.3258 75.4238 82.2265 76.7045C81.1273 77.9853 79.6369 78.7047 78.0821 78.7047H61.7473L61.8385 86.1179H100.193C101.747 86.1179 103.238 86.8372 104.337 88.118C105.436 89.3987 106.054 91.1357 106.054 92.9465C106.054 94.7573 105.436 96.4943 104.337 97.775C103.238 99.0557 101.747 99.7751 100.193 99.7751H61.9924C61.9924 101.336 62.0266 102.924 62.0494 104.505C62.1863 115.598 62.2889 126.997 59.8144 137.386C52.1802 169.383 25.1152 177.109 10.4851 202.417H72.0613C73.6161 202.417 75.1065 203.137 76.2057 204.417C77.305 205.698 77.9225 207.435 77.9225 209.246C77.9225 211.057 77.305 212.794 76.2057 214.075C75.1065 215.355 73.6161 216.075 72.0613 216.075H4.51559C3.98345 217.731 3.49882 219.423 3.06171 221.15H46.5928C48.1472 221.15 49.638 221.869 50.7372 223.15C51.8364 224.43 52.4539 226.168 52.4539 227.978C52.4539 229.789 51.8364 231.526 50.7372 232.807C49.638 234.088 48.1472 234.807 46.5928 234.807H0.598654C-0.967569 249.54 0.550445 264.496 5.02303 278.396C14.9665 308.587 38.0918 323.892 59.803 323.413C81.5144 322.935 102.234 309.364 121.716 294.305C136.437 282.913 151.848 270.192 168.234 271.993C184.946 273.826 199.251 290.366 214.371 301.632C238.996 319.979 267.68 324.662 294.192 314.672C305.915 310.254 317.534 302.715 326.121 289.483C334.451 276.603 339.183 259.591 341.515 241.476H363.962C365.474 241.476 366.924 240.776 367.993 239.531C369.063 238.285 369.663 236.595 369.663 234.834C369.663 233.072 369.063 231.382 367.993 230.137C366.924 228.891 365.474 228.191 363.962 228.191H342.86C343.282 222.08 343.476 215.929 343.487 209.844V209.06H425.139C426.694 209.06 428.184 208.341 429.283 207.06C430.383 205.779 431 204.043 431 202.231C431 200.421 430.383 198.684 429.283 197.403C428.184 196.122 426.694 195.403 425.139 195.403V195.389Z"
    fill="#1780D9" />
</svg>