<svg width="431" height="656" viewBox="0 0 431 656" fill="none" xmlns="http://www.w3.org/2000/svg">
<g opacity="0.5" filter="url(#filter0_f_351_316)">
<ellipse cx="196.5" cy="585.747" rx="126.5" ry="24.5" fill="black"/>
</g>
<path opacity="0.1" d="M425.139 232.389H343.1C342.994 230.569 342.864 228.747 342.712 226.923H374.874C376.429 226.923 377.919 226.203 379.019 224.922C380.118 223.642 380.735 221.905 380.735 220.094C380.735 218.283 380.118 216.546 379.019 215.265C377.919 213.985 376.429 213.265 374.874 213.265H340.979C339.32 203.873 336.686 195.078 332.638 187.645C324.707 173.084 312.329 165.843 300.139 164.329C287.949 162.814 275.736 166.421 263.74 170.307C247.776 175.508 228.99 180.191 216.954 163C209.833 152.81 206.993 136.118 209.542 121.57C210.217 118.004 211.051 114.481 212.039 111.015H254.316C255.871 111.015 257.361 110.296 258.46 109.015C259.56 107.734 260.177 105.997 260.177 104.186C260.177 102.376 259.56 100.638 258.46 99.3577C257.361 98.077 255.871 97.3576 254.316 97.3576H215.129C215.425 95.2539 215.57 93.1256 215.563 90.994C215.484 85.8619 214.439 80.8121 212.502 76.2016C210.565 71.591 207.784 67.5318 204.353 64.3105C198.202 58.6708 191.001 56.6781 183.919 55.2565C168.103 52.0282 151.791 51.0517 136.386 57.3423C121.807 39.0152 101.276 32.8177 83.3617 41.4863C78.2474 43.8644 73.6919 47.6258 70.0715 52.46H105.022C106.534 52.46 107.984 53.1598 109.053 54.4056C110.123 55.6513 110.723 57.3409 110.723 59.1026C110.723 60.8644 110.123 62.554 109.053 63.7997C107.984 65.0455 106.534 65.7453 105.022 65.7453H63.9709C61.3368 75.7092 61.3596 87.3472 61.4907 98.3408C61.4907 99.5763 61.5192 100.812 61.5363 102.047H78.0821C79.6369 102.047 81.1273 102.767 82.2265 104.047C83.3258 105.328 83.9432 107.065 83.9432 108.876C83.9432 110.687 83.3258 112.424 82.2265 113.705C81.1273 114.985 79.6369 115.705 78.0821 115.705H61.7473L61.8385 123.118H100.193C101.747 123.118 103.238 123.837 104.337 125.118C105.436 126.399 106.054 128.136 106.054 129.946C106.054 131.757 105.436 133.494 104.337 134.775C103.238 136.056 101.747 136.775 100.193 136.775H61.9924C61.9924 138.336 62.0266 139.924 62.0494 141.505C62.1863 152.598 62.2889 163.997 59.8144 174.386C52.1802 206.383 25.1152 214.109 10.4851 239.417H72.0613C73.6161 239.417 75.1065 240.137 76.2057 241.417C77.305 242.698 77.9225 244.435 77.9225 246.246C77.9225 248.057 77.305 249.794 76.2057 251.075C75.1065 252.355 73.6161 253.075 72.0613 253.075H4.51559C3.98345 254.731 3.49882 256.423 3.06171 258.15H46.5928C48.1472 258.15 49.638 258.869 50.7372 260.15C51.8364 261.43 52.4539 263.168 52.4539 264.978C52.4539 266.789 51.8364 268.526 50.7372 269.807C49.638 271.088 48.1472 271.807 46.5928 271.807H0.598654C-0.967569 286.54 0.550445 301.496 5.02303 315.396C14.9665 345.587 38.0918 360.892 59.803 360.413C81.5144 359.935 102.234 346.364 121.716 331.305C136.437 319.913 151.848 307.192 168.234 308.993C184.946 310.826 199.251 327.366 214.371 338.632C238.996 356.979 267.68 361.662 294.192 351.672C305.915 347.254 317.534 339.715 326.121 326.483C334.451 313.603 339.183 296.591 341.515 278.476H363.962C365.474 278.476 366.924 277.776 367.993 276.531C369.063 275.285 369.663 273.595 369.663 271.834C369.663 270.072 369.063 268.382 367.993 267.137C366.924 265.891 365.474 265.191 363.962 265.191H342.86C343.282 259.08 343.476 252.929 343.487 246.844V246.06H425.139C426.694 246.06 428.184 245.341 429.283 244.06C430.383 242.779 431 241.043 431 239.231C431 237.421 430.383 235.684 429.283 234.403C428.184 233.122 426.694 232.403 425.139 232.403V232.389Z" fill="#1780D9"/>
<path d="M166.254 343.132H238.821C238.821 345.434 238.432 347.713 237.675 349.84C236.92 351.966 235.811 353.898 234.414 355.526C233.016 357.154 231.357 358.445 229.531 359.326C227.706 360.207 225.749 360.66 223.773 360.66H181.303C179.326 360.66 177.37 360.207 175.544 359.326C173.718 358.445 172.059 357.154 170.662 355.526C169.264 353.898 168.156 351.966 167.4 349.84C166.643 347.713 166.254 345.434 166.254 343.132Z" fill="#ECF2FA"/>
<path d="M239.128 344.604C238.968 347.589 238.155 350.477 236.766 352.993C235.378 355.508 233.46 357.568 231.194 358.976C230.299 359.476 229.363 359.866 228.399 360.143L228.451 359.984C228.775 358.909 228.876 357.761 228.747 356.632C228.617 355.503 228.261 354.425 227.706 353.488C227.151 352.55 226.414 351.778 225.554 351.235C224.694 350.693 223.737 350.395 222.759 350.365L167.995 348.542C167.638 347.251 167.412 345.916 167.323 344.564C167.725 344.63 168.131 344.663 168.536 344.663H187.671V346.221H191.683V344.663H201.928C201.82 344.935 201.7 345.207 201.592 345.479L216.789 345.466V344.683H238.029C238.397 344.685 238.764 344.659 239.128 344.604Z" fill="#ACD2E0"/>
<path d="M177.29 345.473H175.953V359.494H177.29V345.473Z" fill="#174E7B"/>
<path opacity="0.2" d="M178.291 345.473H176.954V357.545H178.291V345.473Z" fill="#174E7B"/>
<path opacity="0.2" d="M186.652 345.473H185.315V357.545H186.652V345.473Z" fill="#174E7B"/>
<path opacity="0.2" d="M203.374 345.473H202.036V357.545H203.374V345.473Z" fill="#174E7B"/>
<path opacity="0.2" d="M211.735 345.473H210.397V357.545H211.735V345.473Z" fill="#174E7B"/>
<path opacity="0.2" d="M220.096 345.473H218.759V357.545H220.096V345.473Z" fill="#174E7B"/>
<path opacity="0.3" d="M217.421 345.473H216.083V357.545H217.421V345.473Z" fill="white"/>
<path opacity="0.3" d="M209.395 345.473H208.058V357.545H209.395V345.473Z" fill="white"/>
<path opacity="0.3" d="M201.035 345.473H199.697V357.545H201.035V345.473Z" fill="white"/>
<path opacity="0.3" d="M192.674 345.473H191.336V357.545H192.674V345.473Z" fill="white"/>
<path opacity="0.3" d="M184.314 345.473H182.976V357.545H184.314V345.473Z" fill="white"/>
<path opacity="0.3" d="M175.952 345.473H174.615V357.545H175.952V345.473Z" fill="white"/>
<path opacity="0.2" d="M195.013 345.473H193.676V357.545H195.013V345.473Z" fill="#174E7B"/>
<path d="M185.593 345.473H184.256V359.494H185.593V345.473Z" fill="#174E7B"/>
<path d="M193.903 345.473H192.566V359.494H193.903V345.473Z" fill="#174E7B"/>
<path d="M202.207 345.473H200.869V359.494H202.207V345.473Z" fill="#174E7B"/>
<path d="M218.815 345.473H217.478V359.494H218.815V345.473Z" fill="#174E7B"/>
<path d="M227.119 345.473H225.781V359.494H227.119V345.473Z" fill="#174E7B"/>
<path d="M210.505 345.473H209.168V359.494H210.505V345.473Z" fill="#174E7B"/>
<path d="M153.556 326.379C153.556 326.379 126.237 366.01 122.531 421.585C122.496 422.149 122.293 422.681 121.959 423.09C121.624 423.5 121.177 423.761 120.695 423.83C120.213 423.897 119.725 423.769 119.316 423.464C118.906 423.16 118.601 422.699 118.451 422.162C109.088 388.968 89.2075 293 151.222 234.455" fill="#1780D9"/>
<path d="M122.127 424.886C122.267 425.408 122.554 425.859 122.941 426.166C122.673 426.376 122.365 426.51 122.044 426.559C121.723 426.607 121.397 426.567 121.091 426.443C120.785 426.319 120.508 426.114 120.282 425.843C120.056 425.574 119.887 425.246 119.788 424.886C110.426 391.692 90.5451 295.724 152.56 237.18L152.617 239.387C93.3795 298.111 112.884 392.11 122.127 424.886Z" fill="#42B3FF"/>
<path opacity="0.8" d="M116.014 412.052C115.855 396.645 119.23 380.503 123.652 366.044C125.929 358.645 128.456 351.691 130.943 345.492C138.733 326.138 142.363 304.866 141.518 283.514C141.029 271.156 140.63 257.294 140.63 244.95C145.531 237.883 143.863 237.247 150.556 230.929L152.896 322.853C152.896 322.853 125.576 362.484 121.871 418.058C121.855 418.4 121.775 418.733 121.638 419.036C121.501 419.338 121.308 419.601 121.074 419.809" fill="#174E7B"/>
<path d="M115.924 359.877C115.692 359.877 115.465 359.798 115.273 359.647C115.08 359.497 114.929 359.284 114.841 359.035C114.752 358.785 114.728 358.51 114.774 358.245C114.819 357.981 114.93 357.738 115.095 357.547C115.259 357.356 115.468 357.225 115.695 357.173C115.922 357.12 116.158 357.147 116.373 357.25C116.587 357.354 116.77 357.529 116.899 357.754C117.027 357.978 117.096 358.242 117.096 358.512C117.096 358.874 116.973 359.222 116.753 359.477C116.533 359.733 116.235 359.877 115.924 359.877ZM115.924 357.928C115.825 357.928 115.728 357.963 115.645 358.027C115.563 358.091 115.499 358.182 115.461 358.289C115.423 358.395 115.413 358.512 115.432 358.626C115.452 358.739 115.5 358.843 115.57 358.925C115.64 359.006 115.729 359.061 115.826 359.084C115.923 359.106 116.024 359.095 116.115 359.051C116.207 359.007 116.285 358.932 116.34 358.836C116.395 358.74 116.424 358.627 116.424 358.512C116.423 358.359 116.37 358.212 116.276 358.104C116.182 357.996 116.056 357.935 115.924 357.935V357.928Z" fill="#174E7B"/>
<path opacity="0.2" d="M115.924 361.052C115.494 361.052 115.074 360.904 114.716 360.626C114.358 360.347 114.08 359.952 113.915 359.489C113.751 359.026 113.708 358.517 113.791 358.026C113.876 357.534 114.083 357.083 114.387 356.729C114.691 356.375 115.078 356.134 115.5 356.036C115.922 355.938 116.359 355.988 116.756 356.18C117.153 356.372 117.493 356.696 117.732 357.113C117.971 357.529 118.098 358.019 118.098 358.52C118.098 359.191 117.869 359.836 117.461 360.31C117.054 360.786 116.5 361.052 115.924 361.052ZM115.924 357.545C115.758 357.545 115.597 357.603 115.459 357.709C115.322 357.817 115.214 357.969 115.151 358.147C115.088 358.325 115.071 358.521 115.103 358.71C115.136 358.899 115.215 359.072 115.333 359.209C115.449 359.345 115.598 359.438 115.761 359.476C115.923 359.513 116.091 359.494 116.244 359.42C116.397 359.346 116.528 359.222 116.619 359.061C116.712 358.901 116.761 358.713 116.761 358.52C116.761 358.392 116.739 358.265 116.697 358.147C116.655 358.028 116.593 357.921 116.515 357.831C116.438 357.74 116.346 357.668 116.244 357.619C116.142 357.57 116.034 357.545 115.924 357.545Z" fill="#174E7B"/>
<path d="M120.602 309.633C120.37 309.633 120.144 309.553 119.951 309.403C119.758 309.254 119.608 309.04 119.519 308.791C119.43 308.541 119.407 308.267 119.452 308.002C119.498 307.737 119.609 307.494 119.773 307.303C119.937 307.112 120.146 306.982 120.374 306.929C120.601 306.876 120.837 306.903 121.051 307.007C121.265 307.11 121.448 307.285 121.577 307.51C121.706 307.735 121.775 307.998 121.775 308.268C121.775 308.631 121.651 308.978 121.431 309.234C121.212 309.49 120.913 309.633 120.602 309.633ZM120.602 307.685C120.503 307.685 120.406 307.719 120.324 307.784C120.242 307.847 120.177 307.939 120.139 308.045C120.102 308.151 120.092 308.269 120.111 308.382C120.13 308.495 120.178 308.599 120.248 308.681C120.318 308.762 120.407 308.818 120.505 308.84C120.602 308.863 120.702 308.851 120.794 308.807C120.886 308.763 120.963 308.688 121.019 308.592C121.074 308.496 121.103 308.383 121.103 308.268C121.103 308.114 121.051 307.965 120.957 307.856C120.863 307.746 120.735 307.685 120.602 307.685Z" fill="#174E7B"/>
<path opacity="0.2" d="M120.602 310.8C120.172 310.8 119.751 310.651 119.394 310.373C119.037 310.095 118.758 309.699 118.593 309.236C118.429 308.773 118.385 308.264 118.47 307.773C118.553 307.282 118.761 306.831 119.064 306.476C119.368 306.122 119.756 305.881 120.178 305.783C120.599 305.686 121.037 305.736 121.434 305.927C121.831 306.119 122.171 306.444 122.409 306.86C122.648 307.276 122.776 307.766 122.776 308.268C122.776 308.939 122.547 309.583 122.139 310.058C121.732 310.533 121.178 310.8 120.602 310.8ZM120.602 307.293C120.436 307.293 120.274 307.35 120.137 307.457C120 307.564 119.892 307.716 119.829 307.894C119.766 308.073 119.749 308.268 119.781 308.457C119.813 308.646 119.893 308.82 120.01 308.956C120.127 309.093 120.276 309.186 120.438 309.223C120.601 309.261 120.769 309.241 120.922 309.168C121.075 309.094 121.206 308.969 121.297 308.808C121.389 308.648 121.438 308.46 121.438 308.268C121.438 308.139 121.417 308.012 121.375 307.894C121.333 307.776 121.271 307.669 121.194 307.578C121.116 307.488 121.023 307.416 120.922 307.367C120.82 307.318 120.712 307.293 120.602 307.293Z" fill="#174E7B"/>
<path d="M284.803 309.633C284.571 309.633 284.344 309.553 284.151 309.403C283.958 309.254 283.808 309.04 283.719 308.791C283.631 308.541 283.608 308.267 283.653 308.002C283.698 307.737 283.81 307.494 283.974 307.303C284.138 307.112 284.347 306.982 284.574 306.929C284.801 306.876 285.037 306.903 285.252 307.007C285.466 307.11 285.649 307.285 285.777 307.51C285.907 307.735 285.975 307.998 285.975 308.268C285.975 308.631 285.851 308.978 285.632 309.234C285.412 309.49 285.114 309.633 284.803 309.633ZM284.803 307.685C284.703 307.685 284.607 307.719 284.525 307.784C284.442 307.847 284.378 307.939 284.34 308.045C284.302 308.151 284.292 308.269 284.311 308.382C284.331 308.495 284.378 308.599 284.448 308.681C284.518 308.762 284.608 308.818 284.705 308.84C284.802 308.863 284.903 308.851 284.994 308.807C285.086 308.763 285.164 308.688 285.219 308.592C285.274 308.496 285.303 308.383 285.303 308.268C285.303 308.114 285.251 307.965 285.157 307.856C285.063 307.746 284.936 307.685 284.803 307.685Z" fill="#174E7B"/>
<path opacity="0.2" d="M284.802 310.8C284.373 310.8 283.952 310.651 283.595 310.373C283.237 310.095 282.958 309.699 282.794 309.236C282.629 308.773 282.586 308.264 282.67 307.773C282.754 307.282 282.961 306.831 283.265 306.476C283.569 306.122 283.957 305.881 284.378 305.783C284.8 305.686 285.237 305.736 285.635 305.927C286.032 306.119 286.372 306.444 286.61 306.86C286.849 307.276 286.977 307.766 286.977 308.268C286.977 308.939 286.748 309.583 286.34 310.058C285.932 310.533 285.379 310.8 284.802 310.8ZM284.802 307.293C284.637 307.293 284.475 307.35 284.338 307.457C284.2 307.564 284.093 307.716 284.03 307.894C283.966 308.073 283.95 308.268 283.982 308.457C284.014 308.646 284.094 308.82 284.211 308.956C284.328 309.093 284.477 309.186 284.639 309.223C284.802 309.261 284.97 309.241 285.123 309.168C285.275 309.094 285.406 308.969 285.498 308.808C285.59 308.648 285.639 308.46 285.639 308.268C285.639 308.139 285.617 308.012 285.575 307.894C285.533 307.776 285.472 307.669 285.394 307.578C285.316 307.488 285.224 307.416 285.123 307.367C285.021 307.318 284.912 307.293 284.802 307.293Z" fill="#174E7B"/>
<path d="M283.801 309.633C283.569 309.633 283.342 309.553 283.15 309.403C282.957 309.254 282.807 309.04 282.718 308.791C282.629 308.541 282.606 308.267 282.651 308.002C282.696 307.737 282.808 307.494 282.972 307.303C283.136 307.112 283.345 306.982 283.572 306.929C283.8 306.876 284.035 306.903 284.249 307.007C284.464 307.11 284.647 307.285 284.776 307.51C284.904 307.735 284.973 307.998 284.973 308.268C284.973 308.631 284.85 308.978 284.63 309.234C284.41 309.49 284.112 309.633 283.801 309.633ZM283.801 307.685C283.702 307.685 283.605 307.719 283.522 307.784C283.441 307.847 283.376 307.939 283.338 308.045C283.301 308.151 283.29 308.269 283.31 308.382C283.329 308.495 283.377 308.599 283.447 308.681C283.517 308.762 283.606 308.818 283.703 308.84C283.8 308.863 283.901 308.851 283.993 308.807C284.084 308.763 284.162 308.688 284.217 308.592C284.273 308.496 284.302 308.383 284.302 308.268C284.302 308.114 284.249 307.965 284.155 307.856C284.061 307.746 283.934 307.685 283.801 307.685Z" fill="#174E7B"/>
<path opacity="0.2" d="M283.801 310.8C283.371 310.8 282.951 310.651 282.593 310.373C282.236 310.095 281.957 309.699 281.792 309.236C281.628 308.773 281.585 308.264 281.669 307.773C281.753 307.282 281.96 306.831 282.264 306.476C282.568 306.122 282.955 305.881 283.377 305.783C283.799 305.686 284.236 305.736 284.633 305.927C285.03 306.119 285.37 306.444 285.609 306.86C285.848 307.276 285.975 307.766 285.975 308.268C285.975 308.939 285.746 309.583 285.339 310.058C284.931 310.533 284.378 310.8 283.801 310.8ZM283.801 307.293C283.636 307.293 283.474 307.35 283.337 307.457C283.199 307.564 283.092 307.716 283.028 307.894C282.965 308.073 282.948 308.268 282.981 308.457C283.013 308.646 283.092 308.82 283.21 308.956C283.327 309.093 283.475 309.186 283.638 309.223C283.8 309.261 283.968 309.241 284.121 309.168C284.275 309.094 284.405 308.969 284.497 308.808C284.589 308.648 284.638 308.46 284.638 308.268C284.638 308.139 284.616 308.012 284.574 307.894C284.532 307.776 284.47 307.669 284.393 307.578C284.315 307.488 284.223 307.416 284.121 307.367C284.02 307.318 283.911 307.293 283.801 307.293Z" fill="#174E7B"/>
<path d="M127.466 269.902H126.128V397.665H127.466V269.902Z" fill="#174E7B"/>
<path opacity="0.2" d="M128.803 266.788H127.465V397.666H128.803V266.788Z" fill="#174E7B"/>
<path opacity="0.3" d="M126.128 269.902H124.791V397.665H126.128V269.902Z" fill="white"/>
<path d="M135.156 253.15H133.818V368.449H135.156V253.15Z" fill="#174E7B"/>
<path opacity="0.2" d="M136.493 253.15H135.155V368.449H136.493V253.15Z" fill="#174E7B"/>
<path opacity="0.3" d="M133.817 253.15H132.48V368.449H133.817V253.15Z" fill="white"/>
<path opacity="0.2" d="M271.57 464.668C264.388 464.654 257.504 461.321 252.43 455.401C247.356 449.48 244.506 441.457 244.506 433.091V402.337H251.865V433.085C251.865 436.947 252.7 440.747 254.292 444.134C255.885 447.522 258.184 450.388 260.977 452.468C263.77 454.548 266.969 455.776 270.276 456.038C273.585 456.299 276.896 455.587 279.905 453.966C282.915 452.345 285.525 449.867 287.496 446.761C289.467 443.656 290.735 440.023 291.184 436.196C291.632 432.37 291.246 428.473 290.061 424.866C288.876 421.259 286.93 418.058 284.404 415.557L289.168 409.027C293.252 413.072 296.215 418.436 297.682 424.443C299.148 430.449 299.054 436.827 297.409 442.77C295.764 448.714 292.644 453.955 288.441 457.833C284.239 461.711 279.144 464.05 273.801 464.555C273.057 464.63 272.313 464.668 271.57 464.668Z" fill="#42B3FF"/>
<path opacity="0.2" d="M268.502 451.326C267.706 451.324 266.911 451.256 266.123 451.12L267.193 442.641C268.621 442.882 270.077 442.711 271.434 442.14C272.79 441.569 274.006 440.618 274.971 439.369C275.936 438.121 276.623 436.615 276.969 434.984C277.315 433.353 277.311 431.648 276.957 430.02C276.602 428.391 275.908 426.889 274.936 425.648C273.965 424.407 272.745 423.463 271.385 422.902C270.026 422.341 268.568 422.178 267.142 422.43C265.716 422.682 264.365 423.339 263.209 424.344L258.815 417.469C260.862 415.696 263.239 414.513 265.754 414.019C268.269 413.524 270.848 413.731 273.28 414.623C275.712 415.515 277.929 417.065 279.747 419.148C281.564 421.231 282.933 423.787 283.738 426.605C284.543 429.423 284.764 432.424 284.381 435.36C283.998 438.297 283.022 441.086 281.534 443.497C280.045 445.91 278.088 447.876 275.82 449.236C273.553 450.596 271.041 451.309 268.491 451.319L268.502 451.326Z" fill="white"/>
<path opacity="0.2" d="M270.927 397.666C273.882 397.666 276.277 394.875 276.277 391.434C276.277 387.992 273.882 385.202 270.927 385.202C267.972 385.202 265.577 387.992 265.577 391.434C265.577 394.875 267.972 397.666 270.927 397.666Z" fill="white"/>
<path d="M281.45 426.06C281.311 426.581 281.024 427.032 280.636 427.339C280.906 427.549 281.212 427.684 281.534 427.731C281.855 427.78 282.181 427.74 282.487 427.616C282.793 427.492 283.07 427.287 283.296 427.017C283.522 426.746 283.691 426.419 283.789 426.06C293.152 392.866 313.033 296.898 251.018 238.353L250.961 240.561C310.198 299.258 290.699 393.277 281.45 426.06Z" fill="white"/>
<path d="M250.301 330.277C250.301 330.277 277.62 369.908 281.325 425.483C281.36 426.047 281.563 426.579 281.898 426.988C282.233 427.398 282.68 427.659 283.162 427.727C283.644 427.795 284.132 427.667 284.541 427.362C284.95 427.058 285.256 426.597 285.406 426.06C294.763 392.866 314.649 296.898 252.645 238.353" fill="#1780D9"/>
<path opacity="0.8" d="M287.848 415.937C288.007 400.53 284.632 384.387 280.21 369.929C277.933 362.53 275.406 355.576 272.919 349.377C265.126 330.035 261.489 308.776 262.322 287.432C262.811 275.074 263.209 261.212 263.209 248.868C258.309 241.801 259.977 241.165 253.283 234.847L250.938 326.771C250.938 326.771 278.258 366.402 281.963 421.976C281.979 422.318 282.059 422.651 282.196 422.954C282.334 423.256 282.526 423.52 282.76 423.727" fill="#174E7B"/>
<path d="M287.813 360.249C287.582 360.249 287.355 360.169 287.162 360.019C286.969 359.868 286.819 359.656 286.73 359.406C286.641 359.157 286.618 358.882 286.664 358.617C286.709 358.352 286.82 358.109 286.984 357.918C287.148 357.727 287.357 357.597 287.584 357.544C287.812 357.492 288.048 357.519 288.262 357.622C288.476 357.726 288.659 357.901 288.788 358.125C288.917 358.349 288.986 358.614 288.986 358.884C288.986 359.245 288.862 359.593 288.643 359.849C288.422 360.105 288.124 360.249 287.813 360.249ZM287.813 358.3C287.714 358.3 287.617 358.335 287.535 358.398C287.452 358.463 287.389 358.553 287.351 358.66C287.312 358.767 287.303 358.884 287.322 358.997C287.341 359.11 287.389 359.214 287.459 359.296C287.529 359.377 287.619 359.433 287.715 359.455C287.813 359.478 287.913 359.467 288.005 359.422C288.097 359.378 288.175 359.304 288.23 359.208C288.285 359.111 288.314 358.999 288.314 358.884C288.31 358.732 288.255 358.589 288.162 358.484C288.068 358.378 287.943 358.32 287.813 358.32V358.3Z" fill="#174E7B"/>
<path opacity="0.2" d="M287.814 361.443C287.384 361.443 286.963 361.295 286.606 361.016C286.248 360.738 285.97 360.343 285.805 359.88C285.641 359.417 285.597 358.908 285.682 358.417C285.765 357.926 285.972 357.474 286.276 357.12C286.58 356.766 286.968 356.525 287.39 356.427C287.811 356.329 288.249 356.38 288.646 356.571C289.043 356.763 289.383 357.088 289.621 357.504C289.86 357.92 289.988 358.41 289.988 358.911C289.988 359.582 289.759 360.227 289.351 360.701C288.943 361.177 288.39 361.443 287.814 361.443ZM287.814 357.936C287.648 357.936 287.486 357.993 287.349 358.101C287.212 358.207 287.104 358.36 287.041 358.538C286.978 358.716 286.961 358.912 286.993 359.101C287.025 359.29 287.105 359.464 287.222 359.6C287.339 359.736 287.488 359.829 287.65 359.867C287.813 359.904 287.981 359.885 288.134 359.811C288.287 359.737 288.418 359.613 288.509 359.452C288.601 359.292 288.65 359.104 288.65 358.911C288.65 358.652 288.562 358.404 288.406 358.222C288.248 358.039 288.036 357.936 287.814 357.936Z" fill="#174E7B"/>
<path d="M277.615 269.511H276.277V401.172H277.615V269.511Z" fill="#174E7B"/>
<path opacity="0.2" d="M276.276 269.12H274.939V390.26H276.276V269.12Z" fill="#174E7B"/>
<path opacity="0.3" d="M278.952 273.412H277.615V401.175H278.952V273.412Z" fill="white"/>
<path d="M269.925 256.655H268.588V371.955H269.925V256.655Z" fill="#174E7B"/>
<path opacity="0.2" d="M268.588 256.655H267.25V368.057H268.588V256.655Z" fill="#174E7B"/>
<path opacity="0.3" d="M271.262 256.655H269.924V371.955H271.262V256.655Z" fill="white"/>
<path d="M283.437 427.936C283.247 427.936 283.057 427.923 282.868 427.896C281.807 427.759 280.821 427.192 280.082 426.294C279.344 425.396 278.899 424.224 278.827 422.984C275.241 368.934 248.616 329.774 248.349 329.383L252.259 325.723C252.543 326.134 259.345 336.065 266.67 352.997C273.243 368.185 281.428 391.998 283.653 420.147C288.206 403.493 294.809 372.706 293.283 339.141C291.348 296.607 277.119 262.518 251.058 237.896L254.217 233.355C268.638 246.812 280.067 264.117 287.535 283.805C293.767 300.286 297.387 318.795 298.298 338.83C299.937 374.934 292.424 407.842 287.797 424.244C287.502 425.32 286.921 426.258 286.136 426.922C285.352 427.586 284.407 427.942 283.437 427.936Z" fill="#174E7B"/>
<path opacity="0.2" d="M159.589 475.937C153.284 475.96 147.127 473.724 141.95 469.532C136.774 465.34 132.83 459.396 130.652 452.505C128.474 445.614 128.169 438.109 129.777 431.009C131.384 423.908 134.828 417.556 139.64 412.812L144.404 419.342C141.41 422.306 139.105 426.101 137.701 430.376C136.297 434.652 135.84 439.27 136.372 443.805C136.904 448.34 138.407 452.647 140.743 456.327C143.079 460.007 146.173 462.944 149.74 464.865C153.307 466.786 157.231 467.631 161.152 467.32C165.073 467.01 168.863 465.556 172.175 463.09C175.485 460.625 178.21 457.228 180.098 453.214C181.986 449.199 182.975 444.695 182.975 440.118V372.73H190.335V440.118C190.335 449.613 187.097 458.719 181.333 465.432C175.569 472.146 167.752 475.918 159.6 475.918L159.589 475.937Z" fill="#42B3FF"/>
<path opacity="0.2" d="M215.901 492.336C211.34 492.327 206.969 490.211 203.745 486.453C200.522 482.694 198.71 477.6 198.707 472.288V405.861H206.066V472.288C206.067 474.216 206.485 476.113 207.281 477.804C208.076 479.494 209.224 480.925 210.619 481.962C212.015 483.001 213.611 483.613 215.263 483.743C216.915 483.874 218.567 483.518 220.07 482.708C221.573 481.899 222.876 480.662 223.86 479.112C224.844 477.561 225.477 475.747 225.702 473.837C225.926 471.927 225.734 469.981 225.143 468.18C224.552 466.379 223.582 464.779 222.321 463.53L227.085 457C229.681 459.57 231.564 462.978 232.497 466.794C233.43 470.611 233.369 474.663 232.325 478.44C231.28 482.217 229.297 485.548 226.627 488.012C223.957 490.475 220.719 491.962 217.324 492.282C216.846 492.318 216.372 492.336 215.901 492.336Z" fill="white"/>
<path opacity="0.2" d="M205.383 373.125H198.024V393.769H205.383V373.125Z" fill="white"/>
<path opacity="0.2" d="M161.49 458.727C160.694 458.726 159.899 458.658 159.111 458.522L160.181 450.043C161.609 450.284 163.065 450.112 164.422 449.542C165.778 448.971 166.993 448.019 167.959 446.771C168.924 445.523 169.61 444.017 169.957 442.386C170.303 440.755 170.299 439.05 169.944 437.422C169.59 435.793 168.895 434.291 167.924 433.05C166.952 431.808 165.733 430.865 164.373 430.304C163.014 429.743 161.556 429.58 160.13 429.832C158.704 430.083 157.353 430.74 156.197 431.745L151.803 424.871C153.849 423.097 156.227 421.915 158.742 421.421C161.256 420.926 163.836 421.133 166.268 422.025C168.7 422.916 170.917 424.467 172.734 426.55C174.552 428.633 175.921 431.189 176.726 434.007C177.531 436.825 177.751 439.825 177.368 442.762C176.985 445.699 176.009 448.488 174.522 450.899C173.033 453.312 171.075 455.278 168.808 456.638C166.541 457.997 164.029 458.711 161.479 458.721L161.49 458.727Z" fill="white"/>
<path opacity="0.2" d="M223.442 447.135C221.128 447.135 218.866 446.336 216.942 444.838C215.017 443.34 213.518 441.211 212.631 438.721C211.746 436.231 211.514 433.49 211.965 430.846C212.417 428.202 213.532 425.773 215.168 423.867C216.805 421.961 218.89 420.663 221.16 420.136C223.43 419.611 225.783 419.88 227.921 420.912C230.059 421.944 231.886 423.691 233.172 425.932C234.458 428.174 235.144 430.809 235.144 433.505C235.14 437.118 233.906 440.582 231.712 443.137C229.519 445.692 226.545 447.129 223.442 447.135ZM223.442 428.44C222.582 428.44 221.742 428.737 221.027 429.294C220.312 429.85 219.754 430.641 219.425 431.567C219.096 432.492 219.01 433.511 219.178 434.493C219.346 435.476 219.76 436.378 220.368 437.087C220.976 437.795 221.751 438.277 222.594 438.473C223.438 438.668 224.312 438.568 225.107 438.184C225.901 437.801 226.58 437.151 227.058 436.319C227.536 435.486 227.791 434.506 227.791 433.505C227.79 432.162 227.331 430.875 226.516 429.925C225.701 428.976 224.596 428.442 223.442 428.44Z" fill="white"/>
<path opacity="0.2" d="M165.565 412.467C163.252 412.463 160.992 411.659 159.07 410.158C157.149 408.657 155.653 406.527 154.771 404.037C153.888 401.546 153.659 398.807 154.113 396.165C154.567 393.522 155.683 391.096 157.319 389.193C158.956 387.289 161.041 385.993 163.309 385.468C165.579 384.944 167.93 385.214 170.067 386.245C172.204 387.277 174.03 389.023 175.316 391.263C176.601 393.503 177.288 396.136 177.289 398.831C177.287 402.45 176.05 405.919 173.851 408.476C171.653 411.034 168.672 412.469 165.565 412.467ZM165.565 393.772C164.705 393.772 163.864 394.069 163.149 394.626C162.434 395.182 161.877 395.974 161.548 396.899C161.218 397.825 161.132 398.843 161.3 399.826C161.468 400.808 161.882 401.71 162.49 402.419C163.098 403.127 163.873 403.61 164.717 403.805C165.56 404 166.435 403.9 167.229 403.517C168.024 403.134 168.703 402.484 169.18 401.651C169.658 400.819 169.913 399.839 169.913 398.837C169.913 397.493 169.455 396.205 168.64 395.254C167.824 394.303 166.719 393.768 165.565 393.766V393.772Z" fill="white"/>
<path opacity="0.2" d="M244.507 483.751C245.984 483.751 247.182 482.355 247.182 480.635C247.182 478.914 245.984 477.519 244.507 477.519C243.029 477.519 241.832 478.914 241.832 480.635C241.832 482.355 243.029 483.751 244.507 483.751Z" fill="white"/>
<path d="M120.09 427.545C119.122 427.547 118.179 427.191 117.397 426.526C116.616 425.863 116.036 424.926 115.742 423.852C111.109 407.451 103.596 374.549 105.235 338.438C106.146 318.404 109.788 299.894 115.998 283.414C123.466 263.725 134.894 246.421 149.316 232.963L152.475 237.505C126.39 262.133 112.179 296.195 110.244 338.75C108.718 372.315 115.366 403.102 119.874 419.755C122.099 391.613 130.284 367.793 136.857 352.605C144.188 335.674 150.984 325.743 151.268 325.332L155.178 328.991C155.076 329.144 148.348 339.002 141.268 355.39C134.74 370.505 126.567 394.43 124.7 422.592C124.628 423.833 124.184 425.005 123.445 425.903C122.706 426.801 121.721 427.368 120.659 427.505C120.47 427.531 120.28 427.545 120.09 427.545Z" fill="#174E7B"/>
<path d="M207.836 4.57846C207.138 3.65923 206.281 2.9232 205.32 2.41909C204.359 1.91498 203.318 1.6543 202.264 1.6543C201.211 1.6543 200.169 1.91498 199.208 2.41909C198.248 2.9232 197.39 3.65923 196.692 4.57846C180.636 25.7463 135.4 93.8244 135.4 188.977C135.4 282.114 152.742 323.94 159.504 336.701C160.949 339.426 164.097 341.183 167.529 341.183H237.005C240.454 341.183 243.596 339.439 245.03 336.701C251.792 323.94 269.151 282.114 269.151 188.977C269.151 93.8244 223.898 25.7463 207.836 4.57846Z" fill="#1780D9"/>
<path d="M202.709 83.3242H201.371V340.408H202.709V83.3242Z" fill="#174E7B"/>
<path opacity="0.2" d="M201.37 83.3242H200.033V340.408H201.37V83.3242Z" fill="#174E7B"/>
<path opacity="0.3" d="M204.045 83.3242H202.708V340.408H204.045V83.3242Z" fill="white"/>
<path d="M247 81H157C162.488 66.6925 168.928 52.8359 176.27 39.5404C176.912 38.38 177.548 37.2463 178.178 36.1394C191.006 15.3324 200.832 4 200.832 4C200.832 4 214.503 19.758 230.618 48.2434L230.851 48.6631C236.143 58.1438 241.651 68.9578 247 81Z" fill="#ECF2FA"/>
<path d="M245.844 79.8576L240.927 79.0356C232.805 65.1999 210.34 36.9648 179.378 33.0733C179.948 31.827 182.224 29.2813 182.793 28.0946C187.238 19.5824 191.285 13.8611 194.592 8.41172C195.472 6.95212 196.637 5.75676 197.992 4.92403C199.347 4.09124 200.851 3.64486 202.382 3.62157C203.914 3.59826 205.428 3.99871 206.801 4.78998C208.173 5.58121 209.365 6.7407 210.278 8.17306C217.265 19.0421 223.624 30.4413 229.31 42.2949C229.379 42.4407 230.118 42.5932 230.192 42.7457C235.002 52.9285 243.841 59.2133 245.844 79.8576Z" fill="#ACD2E0"/>
<path d="M170.118 71.0251C169.829 71.0244 169.544 70.9362 169.293 70.7692C169.041 70.6021 168.831 70.3621 168.683 70.0724C168.535 69.782 168.454 69.4525 168.449 69.1151C168.443 68.7777 168.512 68.4449 168.65 68.1479C170.278 64.6608 172.065 61.154 173.846 57.7663C175.554 54.4516 177.307 51.0772 178.878 47.736C179.099 47.3033 179.456 46.9873 179.873 46.8543C180.29 46.7213 180.735 46.7816 181.115 47.0225C181.495 47.2634 181.78 47.6663 181.91 48.1466C182.041 48.6269 182.006 49.1474 181.815 49.5988C180.215 53.0196 178.434 56.4537 176.692 59.7751C174.951 63.0964 173.163 66.59 171.57 70.0041C171.428 70.3097 171.219 70.565 170.964 70.7446C170.708 70.9243 170.417 71.0211 170.118 71.0251Z" fill="white"/>
<g opacity="0.4">
<path opacity="0.4" d="M218.958 151.461C221.11 147.403 222.635 143.963 222.868 144.082C223.102 144.201 221.866 147.861 219.681 151.978C217.495 156.095 215.247 159.025 215.071 158.859C214.894 158.693 216.824 155.531 218.958 151.461Z" fill="#174E7B"/>
<path opacity="0.4" d="M222.819 155.123C224.213 152.386 225.178 150.054 224.975 149.914C224.772 149.774 223.478 151.879 222.085 154.616C220.692 157.353 219.727 159.684 219.929 159.825C220.132 159.965 221.426 157.86 222.819 155.123Z" fill="#174E7B"/>
<path opacity="0.4" d="M219.805 154.159C222.947 155.638 225.571 156.658 225.497 156.93C225.423 157.202 222.651 156.592 219.475 155.081C216.299 153.569 213.914 151.766 214.028 151.554C214.142 151.342 216.658 152.694 219.805 154.159Z" fill="#174E7B"/>
<path opacity="0.4" d="M222.776 153.163C225.622 154.721 228.029 155.702 227.961 155.974C227.893 156.245 225.332 155.649 222.418 154.064C219.504 152.48 217.46 150.557 217.591 150.358C217.722 150.16 219.93 151.631 222.776 153.163Z" fill="#174E7B"/>
</g>
<path d="M180.716 343.131H168.519C165.07 343.131 161.928 341.381 160.494 338.643C153.738 325.848 136.396 283.924 136.396 190.561C136.396 99.134 177.944 32.6403 195.588 8.59521C179.783 30.4061 145.559 88.149 145.559 179.138L165.622 146.349C165.207 147.622 124.689 284.905 180.716 343.131Z" fill="#42B3FF"/>
<path d="M172.531 341.375H169.185C165.735 341.375 162.594 339.625 161.159 336.887C154.404 324.092 137.062 282.167 137.062 188.804C137.062 97.3775 178.61 30.8838 196.219 6.85205C187.244 19.2425 172.269 43.3141 161.046 78.4504C149.532 108.542 140.397 145.918 140.397 188.765C140.397 282.134 157.739 324.059 164.495 336.847C165.946 339.625 169.088 341.375 172.531 341.375Z" fill="white"/>
<path opacity="0.8" d="M221.78 341.183H233.977C237.426 341.183 240.568 339.44 242.002 336.708C248.758 323.953 266.1 282.148 266.1 189.05C266.1 97.9019 224.552 31.5876 206.908 7.60889C222.713 29.3535 260.619 86.9169 260.619 177.661L243.254 144.964C243.647 146.237 277.813 283.122 221.78 341.183Z" fill="#174E7B"/>
<g opacity="0.9">
<path opacity="0.9" d="M159.652 111.77C160.223 109.168 160.909 106.601 161.707 104.08C162.366 102.018 163.126 100.002 163.983 98.0408C165.457 94.7261 166.732 92.8367 167.261 93.0953C167.791 93.3538 167.535 95.6874 166.812 99.2474C166.453 101.031 165.998 103.146 165.474 105.446L163.784 112.97L162.15 120.548C161.661 122.888 161.2 124.97 160.79 126.74C159.965 130.273 159.259 132.468 158.667 132.401C158.075 132.335 157.728 129.995 157.802 126.236C157.858 124.041 158.021 121.852 158.292 119.679C158.628 117.018 159.082 114.378 159.652 111.77Z" fill="white"/>
</g>
<g opacity="0.9">
<path opacity="0.9" d="M158.18 142.043C158.672 138.869 158.13 136.097 156.97 135.854C155.81 135.61 154.471 137.986 153.979 141.16C153.487 144.335 154.028 147.106 155.189 147.349C156.349 147.593 157.688 145.218 158.18 142.043Z" fill="white"/>
</g>
<g opacity="0.2">
<path opacity="0.2" d="M191.946 22.6246C194.718 20.2844 197.296 18.2492 199.186 16.8503C201.075 15.4515 202.293 14.6427 202.362 14.7687C202.43 14.8947 201.332 15.8758 199.516 17.4205L192.436 23.387L185.372 29.4397C183.551 30.9645 182.401 31.8793 182.328 31.7799C182.254 31.6804 183.272 30.5667 185.003 28.8961C186.733 27.2255 189.174 24.9781 191.946 22.6246Z" fill="#174E7B"/>
<path opacity="0.2" d="M192.97 26.4183C199.066 23.6936 203.977 21.4065 204.074 21.665C204.12 21.791 202.936 22.5268 201.006 23.5743C199.077 24.6217 196.322 25.9808 193.277 27.3464C190.232 28.7121 187.409 29.8325 185.36 30.5551C183.311 31.2777 182.014 31.649 181.98 31.523C181.894 31.2578 186.88 29.143 192.97 26.4183Z" fill="#174E7B"/>
</g>
<path d="M196.186 127.919C195.954 127.919 195.728 127.839 195.535 127.689C195.342 127.539 195.192 127.325 195.103 127.076C195.014 126.827 194.991 126.552 195.036 126.288C195.081 126.022 195.193 125.779 195.357 125.588C195.521 125.397 195.73 125.267 195.957 125.214C196.185 125.162 196.42 125.189 196.635 125.292C196.849 125.395 197.032 125.57 197.161 125.795C197.289 126.02 197.358 126.284 197.358 126.554C197.358 126.916 197.235 127.263 197.015 127.519C196.795 127.775 196.497 127.919 196.186 127.919ZM196.186 125.971C196.087 125.971 195.99 126.004 195.908 126.069C195.826 126.133 195.761 126.224 195.723 126.331C195.686 126.437 195.675 126.555 195.695 126.667C195.714 126.781 195.762 126.885 195.832 126.966C195.902 127.048 195.991 127.103 196.088 127.126C196.185 127.148 196.286 127.137 196.378 127.093C196.469 127.048 196.547 126.973 196.602 126.878C196.658 126.782 196.687 126.669 196.687 126.554C196.687 126.399 196.634 126.25 196.54 126.141C196.446 126.032 196.319 125.971 196.186 125.971Z" fill="#174E7B"/>
<path opacity="0.2" d="M196.186 129.087C195.755 129.087 195.335 128.939 194.978 128.66C194.62 128.382 194.342 127.987 194.177 127.524C194.013 127.061 193.969 126.552 194.053 126.061C194.137 125.57 194.344 125.118 194.648 124.764C194.952 124.41 195.34 124.169 195.762 124.071C196.183 123.973 196.62 124.024 197.018 124.215C197.415 124.407 197.754 124.731 197.993 125.148C198.232 125.564 198.36 126.054 198.36 126.555C198.36 127.227 198.131 127.871 197.723 128.346C197.315 128.82 196.762 129.087 196.186 129.087ZM196.186 125.58C196.02 125.58 195.858 125.637 195.721 125.745C195.583 125.852 195.476 126.004 195.413 126.182C195.35 126.36 195.333 126.556 195.365 126.745C195.397 126.934 195.477 127.108 195.594 127.244C195.711 127.38 195.86 127.473 196.022 127.511C196.185 127.548 196.353 127.529 196.506 127.455C196.659 127.382 196.79 127.256 196.881 127.097C196.973 126.936 197.022 126.748 197.022 126.555C197.024 126.426 197.004 126.298 196.962 126.178C196.92 126.058 196.859 125.949 196.782 125.857C196.704 125.765 196.611 125.692 196.508 125.643C196.406 125.593 196.297 125.567 196.186 125.567V125.58Z" fill="#174E7B"/>
<path d="M196.186 101.236C195.954 101.236 195.728 101.155 195.535 101.006C195.342 100.855 195.192 100.642 195.103 100.393C195.014 100.143 194.991 99.8684 195.036 99.6039C195.081 99.3388 195.193 99.0956 195.357 98.9047C195.521 98.7138 195.73 98.5839 195.957 98.5309C196.185 98.4785 196.42 98.5057 196.635 98.6084C196.849 98.7118 197.032 98.8868 197.161 99.1115C197.289 99.3362 197.358 99.5999 197.358 99.8703C197.358 100.232 197.235 100.58 197.015 100.835C196.795 101.092 196.497 101.236 196.186 101.236ZM196.186 99.2871C196.087 99.2871 195.99 99.3209 195.908 99.3852C195.826 99.4495 195.761 99.5403 195.723 99.647C195.686 99.7537 195.675 99.871 195.695 99.9837C195.714 100.097 195.762 100.201 195.832 100.283C195.902 100.364 195.991 100.42 196.088 100.442C196.185 100.465 196.286 100.453 196.378 100.409C196.469 100.365 196.547 100.29 196.602 100.194C196.658 100.098 196.687 99.9857 196.687 99.8703C196.686 99.7166 196.632 99.5701 196.538 99.4621C196.444 99.354 196.318 99.2937 196.186 99.2937V99.2871Z" fill="#174E7B"/>
<path opacity="0.2" d="M196.186 102.408C195.755 102.408 195.335 102.259 194.978 101.981C194.62 101.702 194.342 101.307 194.177 100.845C194.013 100.382 193.969 99.8721 194.053 99.3809C194.137 98.8896 194.344 98.4388 194.648 98.0848C194.952 97.7301 195.34 97.4888 195.762 97.3914C196.183 97.2939 196.62 97.3436 197.018 97.5352C197.415 97.7275 197.754 98.0517 197.993 98.468C198.232 98.885 198.36 99.3742 198.36 99.8754C198.36 100.547 198.131 101.191 197.723 101.666C197.315 102.141 196.762 102.408 196.186 102.408ZM196.186 98.9009C196.02 98.9009 195.858 98.9579 195.721 99.0646C195.583 99.172 195.476 99.3245 195.413 99.5022C195.35 99.6805 195.333 99.8761 195.365 100.065C195.397 100.255 195.477 100.428 195.594 100.564C195.711 100.701 195.86 100.794 196.022 100.831C196.185 100.869 196.353 100.849 196.506 100.776C196.659 100.702 196.79 100.577 196.881 100.416C196.973 100.257 197.022 100.068 197.022 99.8754C197.022 99.6169 196.934 99.3689 196.777 99.186C196.62 99.0037 196.408 98.9009 196.186 98.9009Z" fill="#174E7B"/>
<path d="M207.887 109.807C207.656 109.807 207.429 109.727 207.236 109.577C207.043 109.427 206.893 109.214 206.804 108.964C206.715 108.714 206.692 108.44 206.738 108.175C206.783 107.911 206.895 107.667 207.059 107.476C207.222 107.286 207.431 107.155 207.658 107.103C207.886 107.05 208.122 107.077 208.336 107.18C208.55 107.284 208.734 107.459 208.862 107.683C208.991 107.908 209.06 108.172 209.06 108.441C209.06 108.621 209.03 108.799 208.97 108.964C208.912 109.13 208.825 109.28 208.716 109.407C208.608 109.534 208.479 109.634 208.336 109.703C208.194 109.772 208.041 109.807 207.887 109.807ZM207.887 107.858C207.788 107.858 207.691 107.893 207.609 107.957C207.527 108.021 207.463 108.112 207.425 108.219C207.387 108.325 207.377 108.442 207.396 108.555C207.415 108.669 207.463 108.773 207.533 108.854C207.603 108.936 207.693 108.992 207.79 109.013C207.887 109.036 207.987 109.025 208.079 108.98C208.171 108.936 208.249 108.862 208.304 108.766C208.359 108.67 208.388 108.557 208.388 108.441C208.388 108.287 208.336 108.139 208.242 108.029C208.148 107.92 208.02 107.858 207.887 107.858Z" fill="#174E7B"/>
<path opacity="0.2" d="M207.888 110.98C207.457 110.98 207.037 110.832 206.68 110.554C206.322 110.276 206.044 109.88 205.879 109.417C205.715 108.954 205.671 108.445 205.755 107.954C205.839 107.463 206.046 107.011 206.35 106.657C206.654 106.303 207.042 106.062 207.464 105.964C207.885 105.866 208.322 105.917 208.72 106.108C209.117 106.3 209.457 106.625 209.695 107.041C209.934 107.457 210.062 107.947 210.062 108.448C210.062 109.119 209.833 109.764 209.425 110.239C209.017 110.714 208.464 110.98 207.888 110.98ZM207.888 107.473C207.722 107.473 207.56 107.531 207.423 107.638C207.285 107.745 207.178 107.897 207.115 108.075C207.051 108.253 207.035 108.449 207.067 108.638C207.099 108.827 207.179 109.001 207.296 109.137C207.413 109.273 207.562 109.366 207.724 109.404C207.886 109.442 208.055 109.422 208.208 109.348C208.361 109.275 208.491 109.15 208.583 108.989C208.675 108.829 208.724 108.641 208.724 108.448C208.724 108.19 208.636 107.942 208.479 107.759C208.322 107.576 208.11 107.473 207.888 107.473Z" fill="#174E7B"/>
<path d="M207.887 206.796C207.656 206.796 207.429 206.716 207.236 206.566C207.043 206.416 206.893 206.203 206.804 205.953C206.715 205.704 206.692 205.429 206.738 205.164C206.783 204.9 206.895 204.657 207.059 204.466C207.222 204.274 207.431 204.144 207.658 204.092C207.886 204.039 208.122 204.066 208.336 204.169C208.55 204.273 208.734 204.448 208.862 204.672C208.991 204.896 209.06 205.161 209.06 205.431C209.06 205.793 208.936 206.14 208.716 206.396C208.497 206.652 208.199 206.796 207.887 206.796ZM207.887 204.847C207.788 204.847 207.691 204.882 207.609 204.946C207.527 205.01 207.463 205.101 207.425 205.207C207.387 205.314 207.377 205.431 207.396 205.545C207.415 205.658 207.463 205.761 207.533 205.843C207.603 205.924 207.693 205.98 207.79 206.003C207.887 206.025 207.987 206.014 208.079 205.969C208.171 205.926 208.249 205.851 208.304 205.755C208.359 205.659 208.388 205.546 208.388 205.431C208.387 205.278 208.333 205.13 208.24 205.022C208.146 204.914 208.019 204.854 207.887 204.854V204.847Z" fill="#174E7B"/>
<path opacity="0.2" d="M207.888 207.97C207.457 207.97 207.037 207.822 206.68 207.544C206.322 207.266 206.044 206.87 205.879 206.407C205.715 205.945 205.671 205.435 205.755 204.944C205.839 204.453 206.046 204.001 206.35 203.647C206.654 203.293 207.042 203.052 207.464 202.955C207.885 202.857 208.322 202.907 208.72 203.098C209.117 203.29 209.457 203.615 209.695 204.031C209.934 204.448 210.062 204.938 210.062 205.438C210.062 206.11 209.833 206.754 209.425 207.229C209.017 207.704 208.464 207.97 207.888 207.97ZM207.888 204.464C207.722 204.464 207.56 204.521 207.423 204.628C207.285 204.735 207.178 204.887 207.115 205.065C207.051 205.243 207.035 205.439 207.067 205.628C207.099 205.817 207.179 205.991 207.296 206.127C207.413 206.263 207.562 206.356 207.724 206.394C207.886 206.432 208.055 206.413 208.208 206.338C208.361 206.265 208.491 206.14 208.583 205.98C208.675 205.819 208.724 205.631 208.724 205.438C208.725 205.309 208.704 205.182 208.662 205.063C208.621 204.944 208.559 204.836 208.481 204.745C208.403 204.654 208.311 204.582 208.209 204.532C208.107 204.483 207.998 204.457 207.888 204.457V204.464Z" fill="#174E7B"/>
<path d="M208.251 226.663C208.02 226.663 207.793 226.583 207.6 226.433C207.407 226.283 207.257 226.07 207.168 225.82C207.08 225.571 207.057 225.297 207.102 225.032C207.147 224.766 207.259 224.523 207.423 224.332C207.587 224.142 207.796 224.012 208.023 223.959C208.25 223.906 208.486 223.933 208.701 224.037C208.915 224.14 209.098 224.315 209.226 224.539C209.356 224.764 209.424 225.028 209.424 225.298C209.424 225.66 209.3 226.007 209.081 226.264C208.861 226.52 208.563 226.663 208.251 226.663ZM208.251 224.715C208.152 224.715 208.056 224.749 207.974 224.813C207.891 224.877 207.827 224.968 207.789 225.075C207.751 225.181 207.741 225.299 207.76 225.412C207.78 225.525 207.827 225.629 207.897 225.71C207.967 225.792 208.057 225.847 208.154 225.87C208.251 225.893 208.352 225.881 208.443 225.837C208.535 225.792 208.613 225.718 208.668 225.622C208.723 225.526 208.752 225.413 208.752 225.298C208.752 225.144 208.7 224.995 208.606 224.886C208.512 224.776 208.385 224.715 208.251 224.715Z" fill="#174E7B"/>
<path opacity="0.2" d="M208.252 227.833C207.822 227.833 207.401 227.685 207.044 227.407C206.686 227.129 206.408 226.733 206.243 226.27C206.079 225.808 206.035 225.298 206.12 224.807C206.203 224.316 206.41 223.864 206.714 223.51C207.018 223.156 207.406 222.915 207.828 222.817C208.249 222.72 208.686 222.77 209.084 222.961C209.481 223.153 209.821 223.478 210.059 223.894C210.298 224.311 210.426 224.801 210.426 225.301C210.426 225.973 210.197 226.617 209.789 227.092C209.381 227.567 208.828 227.833 208.252 227.833ZM208.252 224.327C208.086 224.327 207.924 224.384 207.787 224.491C207.649 224.598 207.542 224.75 207.479 224.928C207.416 225.106 207.399 225.302 207.431 225.491C207.463 225.68 207.543 225.854 207.66 225.99C207.777 226.126 207.926 226.219 208.088 226.257C208.251 226.295 208.419 226.275 208.572 226.201C208.725 226.128 208.856 226.003 208.947 225.843C209.039 225.682 209.088 225.494 209.088 225.301C209.084 225.046 208.994 224.803 208.837 224.625C208.681 224.446 208.471 224.346 208.252 224.346V224.327Z" fill="#174E7B"/>
<path d="M195.161 201.348C194.93 201.348 194.703 201.268 194.51 201.118C194.317 200.968 194.167 200.755 194.078 200.506C193.989 200.256 193.967 199.981 194.011 199.717C194.057 199.452 194.169 199.209 194.332 199.018C194.496 198.827 194.705 198.696 194.933 198.644C195.16 198.591 195.396 198.618 195.61 198.721C195.824 198.825 196.007 199 196.136 199.224C196.265 199.449 196.334 199.713 196.334 199.983C196.334 200.345 196.21 200.692 195.99 200.948C195.771 201.204 195.472 201.348 195.161 201.348ZM195.161 199.399C195.062 199.399 194.965 199.434 194.883 199.498C194.801 199.562 194.737 199.653 194.698 199.76C194.661 199.866 194.651 199.983 194.67 200.097C194.689 200.21 194.737 200.314 194.807 200.396C194.877 200.477 194.967 200.533 195.064 200.555C195.161 200.577 195.261 200.566 195.353 200.521C195.445 200.478 195.523 200.403 195.578 200.307C195.633 200.211 195.662 200.098 195.662 199.983C195.662 199.828 195.61 199.68 195.516 199.57C195.422 199.461 195.294 199.399 195.161 199.399Z" fill="#174E7B"/>
<path opacity="0.2" d="M195.161 202.515C194.731 202.515 194.311 202.366 193.953 202.088C193.596 201.809 193.317 201.414 193.152 200.952C192.988 200.489 192.945 199.979 193.029 199.488C193.112 198.997 193.32 198.546 193.624 198.192C193.927 197.837 194.315 197.596 194.737 197.498C195.159 197.401 195.596 197.451 195.993 197.642C196.39 197.834 196.73 198.159 196.968 198.575C197.208 198.992 197.335 199.481 197.335 199.982C197.335 200.654 197.106 201.298 196.698 201.773C196.291 202.248 195.737 202.515 195.161 202.515ZM195.161 199.008C194.995 199.008 194.834 199.065 194.696 199.172C194.559 199.279 194.451 199.431 194.388 199.609C194.325 199.787 194.308 199.983 194.34 200.172C194.373 200.362 194.452 200.535 194.569 200.671C194.686 200.808 194.835 200.901 194.997 200.938C195.16 200.975 195.328 200.956 195.481 200.883C195.634 200.809 195.765 200.684 195.856 200.523C195.949 200.364 195.997 200.175 195.997 199.982C195.997 199.724 195.909 199.476 195.753 199.293C195.596 199.111 195.383 199.008 195.161 199.008Z" fill="#174E7B"/>
<path d="M195.161 221.208C194.93 221.208 194.703 221.128 194.51 220.978C194.317 220.828 194.167 220.615 194.078 220.365C193.989 220.116 193.967 219.841 194.011 219.577C194.057 219.312 194.169 219.068 194.332 218.878C194.496 218.687 194.705 218.557 194.933 218.504C195.16 218.451 195.396 218.478 195.61 218.581C195.824 218.685 196.007 218.86 196.136 219.084C196.265 219.309 196.334 219.573 196.334 219.842C196.334 220.205 196.21 220.552 195.99 220.808C195.771 221.064 195.472 221.208 195.161 221.208ZM195.161 219.259C195.062 219.259 194.965 219.294 194.883 219.358C194.801 219.422 194.737 219.513 194.698 219.62C194.661 219.726 194.651 219.843 194.67 219.956C194.689 220.07 194.737 220.174 194.807 220.255C194.877 220.337 194.967 220.393 195.064 220.415C195.161 220.437 195.261 220.426 195.353 220.381C195.445 220.338 195.523 220.263 195.578 220.167C195.633 220.071 195.662 219.958 195.662 219.842C195.661 219.689 195.607 219.543 195.513 219.435C195.42 219.327 195.293 219.266 195.161 219.266V219.259Z" fill="#174E7B"/>
<path opacity="0.2" d="M195.161 222.356C194.731 222.356 194.311 222.208 193.953 221.93C193.596 221.652 193.317 221.256 193.152 220.793C192.988 220.33 192.945 219.821 193.029 219.33C193.112 218.839 193.32 218.387 193.624 218.033C193.927 217.679 194.315 217.438 194.737 217.34C195.159 217.242 195.596 217.293 195.993 217.484C196.39 217.676 196.73 218.001 196.968 218.417C197.208 218.833 197.335 219.323 197.335 219.824C197.335 220.495 197.106 221.14 196.698 221.615C196.291 222.09 195.737 222.356 195.161 222.356ZM195.161 218.849C194.995 218.849 194.834 218.907 194.696 219.014C194.559 219.121 194.451 219.273 194.388 219.451C194.325 219.629 194.308 219.825 194.34 220.014C194.373 220.203 194.452 220.377 194.569 220.513C194.686 220.649 194.835 220.742 194.997 220.78C195.16 220.818 195.328 220.798 195.481 220.724C195.634 220.65 195.765 220.526 195.856 220.365C195.949 220.205 195.997 220.017 195.997 219.824C195.992 219.57 195.901 219.329 195.745 219.152C195.588 218.975 195.379 218.876 195.161 218.876V218.849Z" fill="#174E7B"/>
<path d="M196.186 154.602C195.954 154.602 195.728 154.522 195.535 154.372C195.342 154.221 195.192 154.008 195.103 153.759C195.014 153.51 194.991 153.235 195.036 152.97C195.081 152.705 195.193 152.462 195.357 152.271C195.521 152.08 195.73 151.95 195.957 151.897C196.185 151.845 196.42 151.872 196.635 151.975C196.849 152.078 197.032 152.253 197.161 152.478C197.289 152.702 197.358 152.966 197.358 153.237C197.358 153.598 197.235 153.946 197.015 154.202C196.795 154.458 196.497 154.602 196.186 154.602ZM196.186 152.653C196.087 152.653 195.99 152.687 195.908 152.751C195.826 152.816 195.761 152.906 195.723 153.013C195.686 153.12 195.675 153.237 195.695 153.35C195.714 153.463 195.762 153.567 195.832 153.649C195.902 153.73 195.991 153.786 196.088 153.809C196.185 153.831 196.286 153.819 196.378 153.775C196.469 153.731 196.547 153.656 196.602 153.561C196.658 153.465 196.687 153.352 196.687 153.237C196.687 153.081 196.634 152.933 196.54 152.824C196.446 152.714 196.319 152.653 196.186 152.653Z" fill="#174E7B"/>
<path opacity="0.2" d="M196.186 155.77C195.755 155.77 195.335 155.622 194.978 155.343C194.62 155.065 194.342 154.67 194.177 154.207C194.013 153.744 193.969 153.235 194.053 152.744C194.137 152.252 194.344 151.801 194.648 151.447C194.952 151.092 195.34 150.852 195.762 150.753C196.183 150.656 196.62 150.706 197.018 150.898C197.415 151.09 197.754 151.414 197.993 151.831C198.232 152.247 198.36 152.736 198.36 153.238C198.36 153.909 198.131 154.554 197.723 155.028C197.315 155.503 196.762 155.77 196.186 155.77ZM196.186 152.263C196.02 152.263 195.858 152.32 195.721 152.427C195.583 152.534 195.476 152.687 195.413 152.864C195.35 153.043 195.333 153.239 195.365 153.428C195.397 153.617 195.477 153.79 195.594 153.926C195.711 154.063 195.86 154.156 196.022 154.194C196.185 154.231 196.353 154.211 196.506 154.138C196.659 154.064 196.79 153.939 196.881 153.779C196.973 153.619 197.022 153.43 197.022 153.238C197.022 152.979 196.934 152.731 196.777 152.548C196.62 152.366 196.408 152.263 196.186 152.263Z" fill="#174E7B"/>
<path d="M222.936 73.1917C222.704 73.1917 222.477 73.1115 222.284 72.9617C222.092 72.8113 221.941 72.5985 221.852 72.3486C221.764 72.0994 221.74 71.825 221.786 71.5599C221.831 71.2948 221.942 71.0516 222.107 70.8607C222.271 70.6698 222.48 70.5399 222.707 70.4869C222.934 70.4345 223.17 70.4617 223.385 70.5651C223.599 70.6685 223.782 70.8435 223.911 71.0675C224.039 71.2922 224.108 71.556 224.108 71.8264C224.108 72.0053 224.078 72.1829 224.019 72.3486C223.96 72.5143 223.874 72.6648 223.765 72.792C223.656 72.9186 223.526 73.0194 223.385 73.0876C223.242 73.1566 223.09 73.1917 222.936 73.1917ZM222.936 71.2431C222.837 71.2431 222.74 71.2776 222.657 71.3412C222.575 71.4055 222.511 71.4963 222.473 71.603C222.435 71.7097 222.425 71.827 222.444 71.9404C222.464 72.053 222.512 72.1571 222.582 72.2386C222.652 72.3201 222.741 72.3758 222.838 72.3983C222.935 72.4209 223.036 72.4096 223.127 72.3652C223.219 72.3208 223.297 72.2466 223.352 72.1505C223.407 72.0544 223.436 71.9417 223.436 71.8264C223.436 71.6719 223.384 71.5235 223.29 71.4141C223.196 71.3048 223.069 71.2431 222.936 71.2431Z" fill="#174E7B"/>
<path opacity="0.2" d="M222.935 74.3608C222.505 74.3608 222.085 74.2123 221.728 73.9339C221.37 73.6561 221.091 73.2603 220.927 72.7976C220.762 72.3349 220.719 71.8257 220.803 71.3345C220.887 70.8432 221.094 70.3918 221.398 70.0378C221.702 69.6837 222.09 69.4424 222.511 69.3443C222.933 69.2469 223.37 69.2973 223.768 69.4888C224.165 69.6804 224.504 70.0053 224.743 70.4216C224.982 70.8379 225.11 71.3279 225.11 71.8284C225.11 72.4999 224.881 73.1443 224.473 73.619C224.065 74.0943 223.512 74.3608 222.935 74.3608ZM222.935 70.8538C222.77 70.8538 222.608 70.9109 222.47 71.0183C222.333 71.125 222.226 71.2775 222.162 71.4558C222.099 71.6335 222.083 71.8297 222.115 72.0186C222.147 72.2076 222.227 72.3813 222.344 72.5178C222.461 72.6537 222.61 72.7466 222.772 72.7843C222.934 72.8221 223.103 72.8022 223.256 72.7287C223.408 72.6551 223.539 72.5304 223.631 72.37C223.723 72.2096 223.772 72.0213 223.772 71.8284C223.772 71.5698 223.684 71.3219 223.527 71.1396C223.37 70.9566 223.157 70.8538 222.935 70.8538Z" fill="#174E7B"/>
<path d="M180.802 73.1917C180.57 73.1917 180.343 73.1115 180.15 72.9617C179.958 72.8113 179.807 72.5985 179.719 72.3486C179.63 72.0994 179.607 71.825 179.652 71.5599C179.697 71.2948 179.809 71.0516 179.973 70.8607C180.136 70.6698 180.345 70.5399 180.573 70.4869C180.801 70.4345 181.036 70.4617 181.25 70.5651C181.465 70.6685 181.648 70.8435 181.777 71.0675C181.905 71.2922 181.974 71.556 181.974 71.8264C181.974 72.0053 181.944 72.1829 181.885 72.3486C181.826 72.5143 181.74 72.6648 181.631 72.792C181.522 72.9186 181.393 73.0194 181.25 73.0876C181.108 73.1566 180.955 73.1917 180.802 73.1917ZM180.802 71.2431C180.703 71.2431 180.606 71.2776 180.523 71.3412C180.441 71.4055 180.377 71.4963 180.339 71.603C180.301 71.7097 180.291 71.827 180.311 71.9404C180.33 72.053 180.378 72.1571 180.448 72.2386C180.518 72.3201 180.607 72.3758 180.704 72.3983C180.801 72.4209 180.902 72.4096 180.994 72.3652C181.085 72.3208 181.163 72.2466 181.218 72.1505C181.273 72.0544 181.303 71.9417 181.303 71.8264C181.303 71.6719 181.25 71.5235 181.156 71.4141C181.062 71.3048 180.934 71.2431 180.802 71.2431Z" fill="#174E7B"/>
<path opacity="0.2" d="M180.801 74.3608C180.372 74.3608 179.951 74.2123 179.594 73.9339C179.236 73.6561 178.957 73.2603 178.793 72.7976C178.628 72.3349 178.585 71.8257 178.669 71.3345C178.753 70.8432 178.96 70.3918 179.264 70.0378C179.568 69.6837 179.956 69.4424 180.377 69.3443C180.799 69.2469 181.236 69.2973 181.634 69.4888C182.031 69.6804 182.371 70.0053 182.609 70.4216C182.848 70.8379 182.976 71.3279 182.976 71.8284C182.976 72.4999 182.747 73.1443 182.339 73.619C181.931 74.0943 181.378 74.3608 180.801 74.3608ZM180.801 70.8538C180.636 70.8538 180.474 70.9109 180.336 71.0183C180.199 71.125 180.092 71.2775 180.029 71.4558C179.965 71.6335 179.949 71.8297 179.981 72.0186C180.013 72.2076 180.093 72.3813 180.21 72.5178C180.327 72.6537 180.476 72.7466 180.638 72.7843C180.801 72.8221 180.969 72.8022 181.122 72.7287C181.274 72.6551 181.405 72.5304 181.497 72.37C181.589 72.2096 181.638 72.0213 181.638 71.8284C181.638 71.5698 181.55 71.3219 181.393 71.1396C181.236 70.9566 181.023 70.8538 180.801 70.8538Z" fill="#174E7B"/>
<path d="M201.871 73.1917C201.64 73.1917 201.413 73.1115 201.22 72.9617C201.027 72.8113 200.877 72.5985 200.788 72.3486C200.699 72.0994 200.676 71.825 200.722 71.5599C200.767 71.2948 200.878 71.0516 201.042 70.8607C201.206 70.6698 201.415 70.5399 201.643 70.4869C201.87 70.4345 202.106 70.4617 202.32 70.5651C202.534 70.6685 202.717 70.8435 202.846 71.0675C202.975 71.2922 203.044 71.556 203.044 71.8264C203.044 72.0053 203.014 72.1829 202.954 72.3486C202.896 72.5143 202.809 72.6648 202.701 72.792C202.591 72.9186 202.462 73.0194 202.32 73.0876C202.178 73.1566 202.026 73.1917 201.871 73.1917ZM201.871 71.2431C201.772 71.2431 201.676 71.2776 201.593 71.3412C201.511 71.4055 201.447 71.4963 201.409 71.603C201.371 71.7097 201.361 71.827 201.38 71.9404C201.4 72.053 201.447 72.1571 201.517 72.2386C201.587 72.3201 201.677 72.3758 201.773 72.3983C201.871 72.4209 201.972 72.4096 202.063 72.3652C202.155 72.3208 202.233 72.2466 202.288 72.1505C202.343 72.0544 202.372 71.9417 202.372 71.8264C202.372 71.6719 202.319 71.5235 202.225 71.4141C202.131 71.3048 202.004 71.2431 201.871 71.2431Z" fill="#174E7B"/>
<path opacity="0.2" d="M201.871 74.3608C201.441 74.3608 201.021 74.2123 200.663 73.9339C200.306 73.6561 200.027 73.2603 199.862 72.7976C199.698 72.3349 199.655 71.8257 199.739 71.3345C199.823 70.8432 200.03 70.3918 200.334 70.0378C200.638 69.6837 201.025 69.4424 201.447 69.3443C201.869 69.2469 202.306 69.2973 202.703 69.4888C203.1 69.6804 203.44 70.0053 203.679 70.4216C203.918 70.8379 204.045 71.3279 204.045 71.8284C204.045 72.4999 203.816 73.1443 203.408 73.619C203.001 74.0943 202.448 74.3608 201.871 74.3608ZM201.871 70.8538C201.705 70.8538 201.544 70.9109 201.407 71.0183C201.269 71.125 201.161 71.2775 201.098 71.4558C201.035 71.6335 201.018 71.8297 201.05 72.0186C201.083 72.2076 201.162 72.3813 201.28 72.5178C201.396 72.6537 201.545 72.7466 201.708 72.7843C201.87 72.8221 202.038 72.8022 202.191 72.7287C202.344 72.6551 202.475 72.5304 202.567 72.37C202.659 72.2096 202.708 72.0213 202.708 71.8284C202.708 71.5698 202.619 71.3219 202.463 71.1396C202.306 70.9566 202.093 70.8538 201.871 70.8538Z" fill="#174E7B"/>
<path d="M196.186 250.816C195.954 250.816 195.728 250.736 195.535 250.585C195.342 250.435 195.192 250.222 195.103 249.973C195.014 249.724 194.991 249.449 195.036 249.184C195.081 248.919 195.193 248.676 195.357 248.485C195.521 248.294 195.73 248.164 195.957 248.111C196.185 248.059 196.42 248.085 196.635 248.189C196.849 248.292 197.032 248.467 197.161 248.692C197.289 248.916 197.358 249.18 197.358 249.451C197.358 249.812 197.235 250.16 197.015 250.416C196.795 250.672 196.497 250.816 196.186 250.816ZM196.186 248.867C196.087 248.867 195.99 248.901 195.908 248.965C195.826 249.03 195.761 249.121 195.723 249.227C195.686 249.334 195.675 249.451 195.695 249.564C195.714 249.677 195.762 249.781 195.832 249.863C195.902 249.944 195.991 250 196.088 250.023C196.185 250.045 196.286 250.033 196.378 249.989C196.469 249.945 196.547 249.87 196.602 249.774C196.658 249.679 196.687 249.566 196.687 249.451C196.686 249.297 196.632 249.15 196.538 249.042C196.444 248.934 196.318 248.874 196.186 248.874V248.867Z" fill="#174E7B"/>
<path opacity="0.2" d="M196.186 251.984C195.755 251.984 195.335 251.836 194.978 251.557C194.62 251.279 194.342 250.884 194.177 250.421C194.013 249.958 193.969 249.449 194.053 248.958C194.137 248.466 194.344 248.015 194.648 247.661C194.952 247.306 195.34 247.066 195.762 246.968C196.183 246.87 196.62 246.92 197.018 247.112C197.415 247.304 197.754 247.628 197.993 248.044C198.232 248.461 198.36 248.95 198.36 249.452C198.36 250.123 198.131 250.768 197.723 251.242C197.315 251.717 196.762 251.984 196.186 251.984ZM196.186 248.477C196.02 248.477 195.858 248.534 195.721 248.641C195.583 248.748 195.476 248.901 195.413 249.078C195.35 249.257 195.333 249.452 195.365 249.642C195.397 249.831 195.477 250.004 195.594 250.14C195.711 250.277 195.86 250.37 196.022 250.408C196.185 250.445 196.353 250.425 196.506 250.352C196.659 250.278 196.79 250.153 196.881 249.993C196.973 249.833 197.022 249.644 197.022 249.452C197.022 249.193 196.934 248.945 196.777 248.762C196.62 248.58 196.408 248.477 196.186 248.477Z" fill="#174E7B"/>
<path d="M196.186 279.368C195.954 279.368 195.728 279.288 195.535 279.138C195.342 278.988 195.192 278.775 195.103 278.525C195.014 278.276 194.991 278.001 195.036 277.736C195.081 277.471 195.193 277.228 195.357 277.037C195.521 276.846 195.73 276.716 195.957 276.663C196.185 276.611 196.42 276.638 196.635 276.741C196.849 276.845 197.032 277.02 197.161 277.244C197.289 277.468 197.358 277.732 197.358 278.003C197.358 278.365 197.235 278.712 197.015 278.968C196.795 279.224 196.497 279.368 196.186 279.368ZM196.186 277.419C196.087 277.419 195.99 277.454 195.908 277.517C195.826 277.582 195.761 277.673 195.723 277.779C195.686 277.886 195.675 278.003 195.695 278.117C195.714 278.229 195.762 278.333 195.832 278.415C195.902 278.496 195.991 278.552 196.088 278.575C196.185 278.597 196.286 278.586 196.378 278.541C196.469 278.497 196.547 278.423 196.602 278.327C196.658 278.231 196.687 278.118 196.687 278.003C196.684 277.85 196.63 277.705 196.536 277.599C196.442 277.492 196.317 277.433 196.186 277.433V277.419Z" fill="#174E7B"/>
<path opacity="0.2" d="M196.186 280.551C195.755 280.551 195.335 280.402 194.978 280.124C194.62 279.846 194.342 279.45 194.177 278.987C194.013 278.524 193.969 278.015 194.053 277.524C194.137 277.033 194.344 276.582 194.648 276.227C194.952 275.873 195.34 275.632 195.762 275.534C196.183 275.437 196.62 275.487 197.018 275.678C197.415 275.871 197.754 276.195 197.993 276.611C198.232 277.028 198.36 277.517 198.36 278.018C198.36 278.69 198.131 279.334 197.723 279.809C197.315 280.284 196.762 280.551 196.186 280.551ZM196.186 277.044C196.02 277.044 195.858 277.101 195.721 277.208C195.583 277.315 195.476 277.467 195.413 277.645C195.35 277.824 195.333 278.019 195.365 278.208C195.397 278.398 195.477 278.571 195.594 278.707C195.711 278.844 195.86 278.937 196.022 278.974C196.185 279.012 196.353 278.992 196.506 278.919C196.659 278.845 196.79 278.72 196.881 278.559C196.973 278.4 197.022 278.211 197.022 278.018C197.022 277.76 196.934 277.512 196.777 277.329C196.62 277.147 196.408 277.044 196.186 277.044Z" fill="#174E7B"/>
<path d="M196.186 307.948C195.954 307.948 195.728 307.868 195.535 307.718C195.342 307.568 195.192 307.355 195.103 307.105C195.014 306.856 194.991 306.581 195.036 306.316C195.081 306.052 195.193 305.808 195.357 305.618C195.521 305.427 195.73 305.296 195.957 305.244C196.185 305.191 196.42 305.218 196.635 305.321C196.849 305.425 197.032 305.6 197.161 305.824C197.289 306.049 197.358 306.313 197.358 306.583C197.358 306.945 197.235 307.292 197.015 307.548C196.795 307.804 196.497 307.948 196.186 307.948ZM196.186 305.999C196.087 305.999 195.99 306.034 195.908 306.098C195.826 306.162 195.761 306.253 195.723 306.36C195.686 306.466 195.675 306.583 195.695 306.697C195.714 306.81 195.762 306.913 195.832 306.995C195.902 307.077 195.991 307.132 196.088 307.154C196.185 307.177 196.286 307.166 196.378 307.121C196.469 307.078 196.547 307.003 196.602 306.907C196.658 306.811 196.687 306.698 196.687 306.583C196.687 306.428 196.634 306.28 196.54 306.17C196.446 306.061 196.319 305.999 196.186 305.999Z" fill="#174E7B"/>
<path opacity="0.2" d="M196.186 309.116C195.755 309.116 195.335 308.968 194.978 308.69C194.62 308.412 194.342 308.016 194.177 307.553C194.013 307.091 193.969 306.581 194.053 306.09C194.137 305.599 194.344 305.148 194.648 304.793C194.952 304.439 195.34 304.198 195.762 304.101C196.183 304.003 196.62 304.053 197.018 304.245C197.415 304.436 197.754 304.761 197.993 305.177C198.232 305.594 198.36 306.084 198.36 306.584C198.36 307.256 198.131 307.9 197.723 308.375C197.315 308.85 196.762 309.116 196.186 309.116ZM196.186 305.61C196.02 305.61 195.858 305.667 195.721 305.774C195.583 305.881 195.476 306.033 195.413 306.211C195.35 306.39 195.333 306.585 195.365 306.774C195.397 306.963 195.477 307.137 195.594 307.274C195.711 307.409 195.86 307.503 196.022 307.54C196.185 307.578 196.353 307.559 196.506 307.485C196.659 307.411 196.79 307.286 196.881 307.126C196.973 306.965 197.022 306.777 197.022 306.584C197.022 306.326 196.934 306.078 196.777 305.895C196.62 305.712 196.408 305.61 196.186 305.61Z" fill="#174E7B"/>
<path d="M196.186 336.509C195.954 336.509 195.728 336.429 195.535 336.279C195.342 336.13 195.192 335.916 195.103 335.667C195.014 335.417 194.991 335.143 195.036 334.878C195.081 334.613 195.193 334.37 195.357 334.179C195.521 333.988 195.73 333.858 195.957 333.805C196.185 333.752 196.42 333.779 196.635 333.883C196.849 333.986 197.032 334.161 197.161 334.386C197.289 334.611 197.358 334.874 197.358 335.144C197.358 335.507 197.235 335.854 197.015 336.11C196.795 336.366 196.497 336.509 196.186 336.509ZM196.186 334.561C196.087 334.561 195.99 334.595 195.908 334.66C195.826 334.723 195.761 334.815 195.723 334.921C195.686 335.027 195.675 335.145 195.695 335.258C195.714 335.371 195.762 335.475 195.832 335.557C195.902 335.638 195.991 335.694 196.088 335.716C196.185 335.739 196.286 335.727 196.378 335.683C196.469 335.639 196.547 335.564 196.602 335.468C196.658 335.372 196.687 335.259 196.687 335.144C196.687 334.99 196.634 334.841 196.54 334.732C196.446 334.622 196.319 334.561 196.186 334.561Z" fill="#174E7B"/>
<path opacity="0.2" d="M196.186 337.709C195.755 337.709 195.335 337.56 194.978 337.282C194.62 337.004 194.342 336.608 194.177 336.146C194.013 335.683 193.969 335.174 194.053 334.682C194.137 334.191 194.344 333.74 194.648 333.386C194.952 333.032 195.34 332.79 195.762 332.693C196.183 332.595 196.62 332.645 197.018 332.837C197.415 333.028 197.754 333.353 197.993 333.77C198.232 334.186 198.36 334.676 198.36 335.176C198.36 335.848 198.131 336.492 197.723 336.968C197.315 337.442 196.762 337.709 196.186 337.709ZM196.186 334.202C196.02 334.202 195.858 334.259 195.721 334.366C195.583 334.474 195.476 334.625 195.413 334.804C195.35 334.981 195.333 335.178 195.365 335.367C195.397 335.556 195.477 335.729 195.594 335.866C195.711 336.002 195.86 336.094 196.022 336.132C196.185 336.17 196.353 336.151 196.506 336.077C196.659 336.003 196.79 335.878 196.881 335.718C196.973 335.558 197.022 335.369 197.022 335.176C197.025 335.046 197.006 334.917 196.965 334.796C196.924 334.674 196.864 334.564 196.786 334.47C196.708 334.377 196.614 334.303 196.511 334.252C196.408 334.202 196.297 334.175 196.186 334.175V334.202Z" fill="#174E7B"/>
<path opacity="0.6" d="M203.875 193.943C219.482 193.943 232.133 179.206 232.133 161.028C232.133 142.849 219.482 128.112 203.875 128.112C188.268 128.112 175.616 142.849 175.616 161.028C175.616 179.206 188.268 193.943 203.875 193.943Z" fill="#5C7869"/>
<path d="M204.211 181.871C219.818 181.871 232.47 167.134 232.47 148.956C232.47 130.777 219.818 116.041 204.211 116.041C188.604 116.041 175.953 130.777 175.953 148.956C175.953 167.134 188.604 181.871 204.211 181.871Z" fill="#94E0F7"/>
<path opacity="0.2" d="M203.875 179.93C199.014 179.93 194.261 178.25 190.218 175.104C186.176 171.958 183.025 167.486 181.165 162.254C179.304 157.022 178.818 151.265 179.766 145.711C180.715 140.157 183.056 135.055 186.493 131.051C189.931 127.046 194.311 124.319 199.08 123.215C203.848 122.11 208.79 122.677 213.282 124.844C217.774 127.011 221.613 130.681 224.314 135.39C227.015 140.098 228.457 145.634 228.457 151.297C228.451 158.889 225.859 166.167 221.25 171.535C216.642 176.904 210.393 179.923 203.875 179.93ZM203.875 124.62C199.344 124.62 194.916 126.185 191.148 129.117C187.381 132.049 184.444 136.216 182.711 141.092C180.977 145.968 180.523 151.333 181.407 156.509C182.291 161.685 184.473 166.44 187.677 170.172C190.88 173.903 194.962 176.445 199.406 177.475C203.85 178.504 208.456 177.976 212.642 175.956C216.828 173.937 220.406 170.516 222.923 166.128C225.44 161.74 226.784 156.581 226.784 151.304C226.779 144.228 224.364 137.443 220.069 132.439C215.775 127.435 209.95 124.621 203.875 124.613V124.62Z" fill="#174E7B"/>
<path d="M213.664 119.599L197.54 182.678C193.424 181.391 189.614 179.031 186.396 175.777L201.109 118.273C205.326 117.612 209.617 118.065 213.664 119.599Z" fill="white"/>
<path d="M222.64 125.309L207.723 183.648C206.777 183.76 205.827 183.816 204.877 183.814C203.736 183.815 202.595 183.735 201.462 183.575L217.358 121.371C219.239 122.452 221.011 123.772 222.64 125.309Z" fill="white"/>
<path opacity="0.8" d="M183.977 158.237C183.818 158.236 183.663 158.168 183.542 158.047C183.421 157.926 183.341 157.758 183.317 157.574C182.351 150.443 183.515 143.142 186.612 136.89C188.365 133.389 190.425 131.288 192.742 130.658C192.83 130.626 192.923 130.614 193.016 130.625C193.108 130.636 193.197 130.669 193.277 130.722C193.358 130.775 193.428 130.848 193.484 130.934C193.539 131.02 193.579 131.119 193.601 131.224C193.622 131.329 193.624 131.438 193.608 131.544C193.591 131.65 193.556 131.751 193.504 131.84C193.452 131.93 193.385 132.006 193.307 132.064C193.228 132.121 193.141 132.16 193.049 132.176C191.108 132.707 189.333 134.563 187.773 137.679C184.831 143.621 183.726 150.559 184.643 157.335C184.656 157.437 184.652 157.541 184.631 157.641C184.61 157.741 184.572 157.836 184.519 157.918C184.466 158.001 184.399 158.071 184.323 158.123C184.246 158.176 184.162 158.209 184.074 158.223L183.977 158.237Z" fill="white"/>
<path d="M223.272 153.408C223.04 153.408 222.813 153.328 222.621 153.178C222.428 153.028 222.278 152.815 222.189 152.565C222.1 152.316 222.077 152.041 222.122 151.776C222.167 151.511 222.279 151.268 222.443 151.077C222.607 150.886 222.816 150.756 223.043 150.703C223.271 150.651 223.507 150.678 223.721 150.781C223.935 150.885 224.118 151.06 224.247 151.284C224.376 151.508 224.444 151.772 224.444 152.043C224.444 152.405 224.321 152.752 224.101 153.008C223.881 153.264 223.583 153.408 223.272 153.408ZM223.272 151.459C223.173 151.459 223.076 151.494 222.994 151.558C222.911 151.622 222.847 151.713 222.809 151.819C222.771 151.926 222.761 152.043 222.781 152.157C222.8 152.269 222.848 152.373 222.918 152.455C222.988 152.536 223.077 152.592 223.174 152.615C223.271 152.637 223.372 152.626 223.464 152.582C223.555 152.537 223.633 152.463 223.689 152.367C223.743 152.271 223.773 152.158 223.773 152.043C223.767 151.893 223.712 151.751 223.619 151.647C223.525 151.544 223.401 151.486 223.272 151.486V151.459Z" fill="#174E7B"/>
<path opacity="0.2" d="M223.272 154.603C222.842 154.603 222.421 154.454 222.064 154.176C221.707 153.898 221.428 153.502 221.263 153.04C221.099 152.577 221.055 152.068 221.14 151.576C221.223 151.085 221.43 150.634 221.734 150.28C222.038 149.926 222.426 149.684 222.848 149.587C223.269 149.489 223.706 149.539 224.104 149.731C224.501 149.922 224.841 150.247 225.08 150.664C225.318 151.08 225.446 151.57 225.446 152.07C225.446 152.742 225.217 153.386 224.809 153.861C224.401 154.336 223.848 154.603 223.272 154.603ZM223.272 151.096C223.107 151.096 222.944 151.153 222.807 151.26C222.67 151.367 222.562 151.519 222.499 151.698C222.436 151.875 222.419 152.072 222.452 152.261C222.483 152.45 222.563 152.623 222.68 152.76C222.797 152.896 222.946 152.989 223.109 153.026C223.271 153.064 223.439 153.045 223.592 152.971C223.745 152.897 223.876 152.772 223.968 152.612C224.059 152.452 224.108 152.263 224.108 152.07C224.108 151.942 224.087 151.816 224.045 151.698C224.003 151.579 223.941 151.472 223.864 151.382C223.786 151.291 223.693 151.219 223.592 151.17C223.491 151.121 223.382 151.096 223.272 151.096Z" fill="#174E7B"/>
<path d="M203.875 188.294C197.591 188.294 191.449 186.124 186.224 182.057C181 177.992 176.928 172.212 174.523 165.45C172.118 158.688 171.489 151.248 172.715 144.069C173.941 136.891 176.967 130.297 181.41 125.122C185.853 119.946 191.514 116.422 197.677 114.994C203.839 113.566 210.228 114.299 216.033 117.1C221.838 119.9 226.8 124.644 230.291 130.729C233.781 136.815 235.645 143.969 235.645 151.288C235.636 161.1 232.286 170.506 226.33 177.444C220.374 184.382 212.298 188.284 203.875 188.294ZM203.875 122.463C198.981 122.463 194.196 124.154 190.126 127.321C186.057 130.489 182.885 134.99 181.012 140.257C179.139 145.524 178.649 151.321 179.604 156.912C180.558 162.503 182.915 167.64 186.376 171.671C189.837 175.702 194.246 178.447 199.047 179.559C203.847 180.672 208.823 180.101 213.345 177.919C217.867 175.738 221.732 172.043 224.451 167.303C227.17 162.562 228.622 156.989 228.622 151.288C228.612 143.648 226.002 136.323 221.363 130.92C216.724 125.518 210.435 122.479 203.875 122.47V122.463Z" fill="#174E7B"/>
<path d="M185.946 339.625V282.784C185.926 263.56 192.145 245.036 203.356 230.929C214.363 244.997 220.454 263.353 220.431 282.387V339.552" fill="#ECF2FA"/>
<path d="M205.719 238.533C195.798 251.993 190.347 269.148 190.352 286.888V342.748H186.339V286.888C186.339 267.932 192.568 249.695 203.75 235.921C204.421 236.778 205.077 237.649 205.719 238.533Z" fill="white"/>
<path d="M217.085 285.786V341.964L203.243 341.997C216.123 311.847 212.037 271.221 209.424 250.511C214.453 261.346 217.086 273.469 217.085 285.786Z" fill="#ACD2E0"/>
<g opacity="0.4">
<path opacity="0.4" d="M172.475 238.719C174.626 234.661 176.151 231.221 176.385 231.34C176.618 231.459 175.383 235.119 173.198 239.236C171.012 243.353 168.764 246.283 168.587 246.117C168.411 245.951 170.34 242.782 172.475 238.719Z" fill="#174E7B"/>
<path opacity="0.4" d="M175.885 241.291C177.27 238.547 178.227 236.21 178.023 236.072C177.82 235.933 176.534 238.044 175.15 240.787C173.766 243.53 172.809 245.866 173.012 246.006C173.215 246.145 174.502 244.034 175.885 241.291Z" fill="#174E7B"/>
<path opacity="0.4" d="M173.323 241.411C176.464 242.889 179.088 243.91 179.014 244.182C178.94 244.454 176.168 243.844 172.992 242.332C169.817 240.821 167.432 239.017 167.546 238.805C167.659 238.593 170.175 239.946 173.323 241.411Z" fill="#174E7B"/>
<path opacity="0.4" d="M176.293 240.422C179.139 241.979 181.547 242.961 181.478 243.232C181.41 243.504 178.849 242.908 175.935 241.323C173.021 239.739 170.978 237.816 171.108 237.617C171.239 237.418 173.448 238.89 176.293 240.422Z" fill="#174E7B"/>
</g>
<path d="M196.521 269.121C196.29 269.121 196.063 269.041 195.87 268.891C195.677 268.74 195.527 268.528 195.438 268.278C195.349 268.029 195.326 267.754 195.372 267.489C195.417 267.224 195.528 266.981 195.692 266.79C195.857 266.599 196.065 266.469 196.292 266.416C196.52 266.364 196.756 266.391 196.97 266.494C197.184 266.598 197.368 266.773 197.496 266.997C197.625 267.221 197.694 267.485 197.694 267.756C197.694 268.117 197.57 268.465 197.351 268.721C197.13 268.977 196.832 269.121 196.521 269.121ZM196.521 267.172C196.422 267.172 196.325 267.206 196.243 267.27C196.16 267.335 196.097 267.426 196.059 267.532C196.02 267.639 196.011 267.756 196.03 267.87C196.049 267.982 196.097 268.086 196.167 268.168C196.237 268.249 196.327 268.305 196.423 268.328C196.521 268.35 196.621 268.338 196.713 268.294C196.805 268.25 196.883 268.175 196.938 268.08C196.993 267.984 197.022 267.871 197.022 267.756C197.02 267.602 196.967 267.455 196.874 267.347C196.78 267.239 196.653 267.179 196.521 267.179V267.172Z" fill="#174E7B"/>
<path opacity="0.2" d="M196.522 270.294C196.092 270.294 195.671 270.146 195.314 269.867C194.957 269.589 194.678 269.194 194.513 268.731C194.349 268.268 194.305 267.759 194.39 267.268C194.473 266.777 194.68 266.325 194.984 265.971C195.288 265.617 195.676 265.376 196.098 265.278C196.519 265.18 196.956 265.231 197.354 265.422C197.751 265.614 198.091 265.938 198.33 266.355C198.568 266.772 198.696 267.261 198.696 267.762C198.696 268.434 198.467 269.078 198.059 269.553C197.651 270.027 197.098 270.294 196.522 270.294ZM196.522 266.787C196.357 266.787 196.194 266.844 196.057 266.952C195.92 267.059 195.812 267.211 195.749 267.389C195.686 267.567 195.669 267.763 195.702 267.952C195.733 268.141 195.813 268.315 195.93 268.451C196.047 268.587 196.196 268.68 196.359 268.718C196.521 268.755 196.689 268.736 196.842 268.662C196.995 268.589 197.126 268.463 197.218 268.304C197.309 268.143 197.358 267.955 197.358 267.762C197.36 267.633 197.34 267.505 197.298 267.385C197.257 267.265 197.196 267.156 197.118 267.064C197.04 266.972 196.947 266.899 196.845 266.85C196.743 266.8 196.633 266.774 196.522 266.774V266.787Z" fill="#174E7B"/>
<path d="M196.521 325.994C196.29 325.994 196.063 325.914 195.87 325.764C195.677 325.613 195.527 325.401 195.438 325.151C195.349 324.901 195.326 324.627 195.372 324.362C195.417 324.097 195.528 323.854 195.692 323.663C195.857 323.472 196.065 323.342 196.292 323.29C196.52 323.237 196.756 323.264 196.97 323.367C197.184 323.471 197.368 323.646 197.496 323.87C197.625 324.094 197.694 324.359 197.694 324.628C197.694 324.99 197.57 325.338 197.351 325.594C197.13 325.85 196.832 325.994 196.521 325.994ZM196.521 324.045C196.422 324.045 196.325 324.08 196.243 324.143C196.16 324.208 196.097 324.298 196.059 324.405C196.02 324.512 196.011 324.629 196.03 324.742C196.049 324.855 196.097 324.959 196.167 325.041C196.237 325.122 196.327 325.178 196.423 325.2C196.521 325.223 196.621 325.212 196.713 325.167C196.805 325.123 196.883 325.049 196.938 324.953C196.993 324.856 197.022 324.744 197.022 324.628C197.022 324.474 196.969 324.326 196.875 324.216C196.781 324.107 196.654 324.045 196.521 324.045Z" fill="#174E7B"/>
<path opacity="0.2" d="M196.522 327.16C196.092 327.16 195.671 327.012 195.314 326.734C194.957 326.456 194.678 326.06 194.513 325.597C194.349 325.134 194.305 324.625 194.39 324.134C194.473 323.643 194.68 323.191 194.984 322.837C195.288 322.483 195.676 322.242 196.098 322.145C196.519 322.046 196.956 322.097 197.354 322.288C197.751 322.48 198.091 322.805 198.33 323.221C198.568 323.638 198.696 324.127 198.696 324.628C198.696 325.3 198.467 325.944 198.059 326.419C197.651 326.894 197.098 327.16 196.522 327.16ZM196.522 323.653C196.357 323.653 196.194 323.71 196.057 323.818C195.92 323.925 195.812 324.077 195.749 324.255C195.686 324.433 195.669 324.629 195.702 324.818C195.733 325.007 195.813 325.181 195.93 325.317C196.047 325.453 196.196 325.546 196.359 325.584C196.521 325.622 196.689 325.603 196.842 325.528C196.995 325.455 197.126 325.33 197.218 325.17C197.309 325.009 197.358 324.821 197.358 324.628C197.358 324.369 197.27 324.121 197.114 323.939C196.956 323.756 196.744 323.653 196.522 323.653Z" fill="#174E7B"/>
<path d="M196.521 297.561C196.29 297.561 196.063 297.48 195.87 297.331C195.677 297.181 195.527 296.967 195.438 296.718C195.349 296.468 195.326 296.194 195.372 295.929C195.417 295.664 195.528 295.421 195.692 295.23C195.857 295.039 196.065 294.909 196.292 294.857C196.52 294.803 196.756 294.831 196.97 294.934C197.184 295.037 197.368 295.212 197.496 295.437C197.625 295.662 197.694 295.926 197.694 296.195C197.694 296.558 197.57 296.905 197.351 297.161C197.13 297.417 196.832 297.561 196.521 297.561ZM196.521 295.612C196.422 295.612 196.325 295.647 196.243 295.711C196.16 295.774 196.097 295.866 196.059 295.973C196.02 296.079 196.011 296.196 196.03 296.309C196.049 296.423 196.097 296.526 196.167 296.608C196.237 296.69 196.327 296.745 196.423 296.767C196.521 296.79 196.621 296.779 196.713 296.734C196.805 296.69 196.883 296.616 196.938 296.519C196.993 296.423 197.022 296.311 197.022 296.195C197.022 296.041 196.969 295.892 196.875 295.783C196.781 295.674 196.654 295.612 196.521 295.612Z" fill="#174E7B"/>
<path opacity="0.2" d="M196.522 298.726C196.092 298.726 195.671 298.578 195.314 298.299C194.957 298.021 194.678 297.625 194.513 297.162C194.349 296.7 194.305 296.19 194.39 295.699C194.473 295.208 194.68 294.757 194.984 294.403C195.288 294.048 195.676 293.807 196.098 293.71C196.519 293.612 196.956 293.662 197.354 293.854C197.751 294.045 198.091 294.37 198.33 294.786C198.568 295.203 198.696 295.693 198.696 296.194C198.696 296.865 198.467 297.509 198.059 297.984C197.651 298.459 197.098 298.726 196.522 298.726ZM196.522 295.219C196.357 295.219 196.194 295.276 196.057 295.383C195.92 295.49 195.812 295.642 195.749 295.821C195.686 295.999 195.669 296.194 195.702 296.383C195.733 296.573 195.813 296.746 195.93 296.883C196.047 297.019 196.196 297.112 196.359 297.149C196.521 297.187 196.689 297.168 196.842 297.094C196.995 297.02 197.126 296.895 197.218 296.735C197.309 296.575 197.358 296.386 197.358 296.194C197.358 295.935 197.27 295.687 197.114 295.504C196.956 295.321 196.744 295.219 196.522 295.219Z" fill="#174E7B"/>
<path d="M207.221 269.121C206.99 269.121 206.763 269.041 206.57 268.891C206.377 268.74 206.227 268.528 206.138 268.278C206.049 268.029 206.026 267.754 206.072 267.489C206.116 267.224 206.229 266.981 206.393 266.79C206.556 266.599 206.765 266.469 206.992 266.416C207.22 266.364 207.456 266.391 207.67 266.494C207.884 266.598 208.068 266.773 208.196 266.997C208.325 267.221 208.394 267.485 208.394 267.756C208.394 268.117 208.27 268.465 208.05 268.721C207.831 268.977 207.533 269.121 207.221 269.121ZM207.221 267.172C207.122 267.172 207.025 267.206 206.943 267.27C206.861 267.335 206.797 267.426 206.759 267.532C206.721 267.639 206.711 267.756 206.73 267.87C206.749 267.982 206.797 268.086 206.867 268.168C206.937 268.249 207.027 268.305 207.124 268.328C207.221 268.35 207.321 268.338 207.413 268.294C207.505 268.25 207.583 268.175 207.638 268.08C207.693 267.984 207.722 267.871 207.722 267.756C207.721 267.602 207.667 267.455 207.574 267.347C207.48 267.239 207.353 267.179 207.221 267.179V267.172Z" fill="#174E7B"/>
<path opacity="0.2" d="M207.221 270.294C206.791 270.294 206.371 270.146 206.013 269.867C205.656 269.589 205.377 269.194 205.213 268.731C205.048 268.268 205.005 267.759 205.089 267.268C205.173 266.777 205.38 266.325 205.684 265.971C205.988 265.617 206.375 265.376 206.797 265.278C207.219 265.18 207.656 265.231 208.053 265.422C208.451 265.614 208.79 265.938 209.029 266.355C209.268 266.772 209.395 267.261 209.395 267.762C209.395 268.434 209.166 269.078 208.758 269.553C208.351 270.027 207.798 270.294 207.221 270.294ZM207.221 266.787C207.056 266.787 206.894 266.844 206.756 266.952C206.619 267.059 206.511 267.211 206.448 267.389C206.385 267.567 206.369 267.763 206.4 267.952C206.433 268.141 206.513 268.315 206.63 268.451C206.746 268.587 206.896 268.68 207.058 268.718C207.221 268.755 207.388 268.736 207.542 268.662C207.694 268.589 207.825 268.463 207.917 268.304C208.009 268.143 208.058 267.955 208.058 267.762C208.06 267.633 208.039 267.505 207.997 267.385C207.956 267.265 207.894 267.156 207.817 267.064C207.739 266.972 207.646 266.899 207.544 266.85C207.442 266.8 207.332 266.774 207.221 266.774V266.787Z" fill="#174E7B"/>
<path d="M207.221 325.994C206.99 325.994 206.763 325.914 206.57 325.764C206.377 325.613 206.227 325.401 206.138 325.151C206.049 324.901 206.026 324.627 206.072 324.362C206.116 324.097 206.229 323.854 206.393 323.663C206.556 323.472 206.765 323.342 206.992 323.29C207.22 323.237 207.456 323.264 207.67 323.367C207.884 323.471 208.068 323.646 208.196 323.87C208.325 324.094 208.394 324.359 208.394 324.628C208.394 324.99 208.27 325.338 208.05 325.594C207.831 325.85 207.533 325.994 207.221 325.994ZM207.221 324.045C207.122 324.045 207.025 324.08 206.943 324.143C206.861 324.208 206.797 324.298 206.759 324.405C206.721 324.512 206.711 324.629 206.73 324.742C206.749 324.855 206.797 324.959 206.867 325.041C206.937 325.122 207.027 325.178 207.124 325.2C207.221 325.223 207.321 325.212 207.413 325.167C207.505 325.123 207.583 325.049 207.638 324.953C207.693 324.856 207.722 324.744 207.722 324.628C207.722 324.474 207.67 324.326 207.576 324.216C207.482 324.107 207.354 324.045 207.221 324.045Z" fill="#174E7B"/>
<path opacity="0.2" d="M207.221 327.16C206.791 327.16 206.371 327.012 206.013 326.734C205.656 326.456 205.377 326.06 205.213 325.597C205.048 325.134 205.005 324.625 205.089 324.134C205.173 323.643 205.38 323.191 205.684 322.837C205.988 322.483 206.375 322.242 206.797 322.145C207.219 322.046 207.656 322.097 208.053 322.288C208.451 322.48 208.79 322.805 209.029 323.221C209.268 323.638 209.395 324.127 209.395 324.628C209.395 325.3 209.166 325.944 208.758 326.419C208.351 326.894 207.798 327.16 207.221 327.16ZM207.221 323.653C207.056 323.653 206.894 323.71 206.756 323.818C206.619 323.925 206.511 324.077 206.448 324.255C206.385 324.433 206.369 324.629 206.4 324.818C206.433 325.007 206.513 325.181 206.63 325.317C206.746 325.453 206.896 325.546 207.058 325.584C207.221 325.622 207.388 325.603 207.542 325.528C207.694 325.455 207.825 325.33 207.917 325.17C208.009 325.009 208.058 324.821 208.058 324.628C208.058 324.5 208.036 324.373 207.994 324.255C207.952 324.137 207.89 324.029 207.813 323.939C207.735 323.848 207.643 323.777 207.542 323.728C207.44 323.679 207.331 323.653 207.221 323.653Z" fill="#174E7B"/>
<path d="M207.221 297.561C206.99 297.561 206.763 297.48 206.57 297.331C206.377 297.181 206.227 296.967 206.138 296.718C206.049 296.468 206.026 296.194 206.072 295.929C206.116 295.664 206.229 295.421 206.393 295.23C206.556 295.039 206.765 294.909 206.992 294.857C207.22 294.803 207.456 294.831 207.67 294.934C207.884 295.037 208.068 295.212 208.196 295.437C208.325 295.662 208.394 295.926 208.394 296.195C208.394 296.558 208.27 296.905 208.05 297.161C207.831 297.417 207.533 297.561 207.221 297.561ZM207.221 295.612C207.122 295.612 207.025 295.647 206.943 295.711C206.861 295.774 206.797 295.866 206.759 295.973C206.721 296.079 206.711 296.196 206.73 296.309C206.749 296.423 206.797 296.526 206.867 296.608C206.937 296.69 207.027 296.745 207.124 296.767C207.221 296.79 207.321 296.779 207.413 296.734C207.505 296.69 207.583 296.616 207.638 296.519C207.693 296.423 207.722 296.311 207.722 296.195C207.722 296.041 207.67 295.892 207.576 295.783C207.482 295.674 207.354 295.612 207.221 295.612Z" fill="#174E7B"/>
<path opacity="0.2" d="M207.221 298.726C206.791 298.726 206.371 298.578 206.013 298.299C205.656 298.021 205.377 297.625 205.213 297.162C205.048 296.7 205.005 296.19 205.089 295.699C205.173 295.208 205.38 294.757 205.684 294.403C205.988 294.048 206.375 293.807 206.797 293.71C207.219 293.612 207.656 293.662 208.053 293.854C208.451 294.045 208.79 294.37 209.029 294.786C209.268 295.203 209.395 295.693 209.395 296.194C209.395 296.865 209.166 297.509 208.758 297.984C208.351 298.459 207.798 298.726 207.221 298.726ZM207.221 295.219C207.056 295.219 206.894 295.276 206.756 295.383C206.619 295.49 206.511 295.642 206.448 295.821C206.385 295.999 206.369 296.194 206.4 296.383C206.433 296.573 206.513 296.746 206.63 296.883C206.746 297.019 206.896 297.112 207.058 297.149C207.221 297.187 207.388 297.168 207.542 297.094C207.694 297.02 207.825 296.895 207.917 296.735C208.009 296.575 208.058 296.386 208.058 296.194C208.058 296.066 208.036 295.939 207.994 295.821C207.952 295.703 207.89 295.595 207.813 295.504C207.735 295.414 207.643 295.342 207.542 295.294C207.44 295.244 207.331 295.219 207.221 295.219Z" fill="#174E7B"/>
<path d="M202.709 234.847H201.371V340.408H202.709V234.847Z" fill="#174E7B"/>
<path opacity="0.2" d="M201.701 238.738H200.363V339.234H201.701V238.738Z" fill="#174E7B"/>
<path opacity="0.8" d="M204.376 238.738H203.039V338.843H204.376V238.738Z" fill="white"/>
<path d="M223.106 363.968H180.636C175.981 363.963 171.518 361.806 168.226 357.972C164.934 354.137 163.082 348.939 163.078 343.516V340.593H240.665V343.516C240.66 348.939 238.809 354.137 235.517 357.972C232.225 361.806 227.762 363.963 223.106 363.968ZM168.348 346.44C168.93 349.737 170.469 352.7 172.708 354.829C174.946 356.958 177.746 358.123 180.636 358.128H223.106C225.996 358.123 228.797 356.958 231.035 354.829C233.274 352.7 234.813 349.737 235.394 346.44H168.348Z" fill="#174E7B"/>
<path opacity="0.15" d="M237.546 103.636C239.879 102.981 242.341 103.432 244.389 104.891C246.437 106.348 247.904 108.695 248.468 111.412L250.619 121.794C251.182 124.512 250.794 127.378 249.542 129.764C248.29 132.15 246.277 133.859 243.943 134.516C241.61 135.17 239.149 134.719 237.1 133.261C235.052 131.802 233.585 129.457 233.021 126.739L230.87 116.358C230.308 113.64 230.696 110.772 231.947 108.387C233.199 106.002 235.213 104.293 237.546 103.636Z" fill="white"/>
<path opacity="0.15" d="M229.509 99.0499C231.498 97.482 233.939 96.8979 236.297 97.4263C238.655 97.9547 240.735 99.5524 242.082 101.867C243.428 104.183 243.93 107.026 243.476 109.773C243.022 112.519 241.651 114.943 239.663 116.512C237.675 118.08 235.234 118.663 232.876 118.135C230.519 117.606 228.438 116.009 227.091 113.694C225.745 111.379 225.244 108.535 225.697 105.789C226.151 103.042 227.522 100.618 229.509 99.0499Z" fill="white"/>
<g opacity="0.4">
<path opacity="0.4" d="M237.016 179.119C239.168 175.062 240.693 171.621 240.926 171.74C241.16 171.86 239.925 175.519 237.739 179.636C235.554 183.753 233.305 186.683 233.129 186.517C232.952 186.352 234.882 183.189 237.016 179.119Z" fill="#174E7B"/>
<path opacity="0.4" d="M240.427 181.695C241.811 178.952 242.768 176.615 242.565 176.476C242.362 176.337 241.075 178.448 239.691 181.191C238.307 183.934 237.35 186.271 237.553 186.41C237.757 186.549 239.043 184.438 240.427 181.695Z" fill="#174E7B"/>
<path opacity="0.4" d="M237.848 181.818C240.99 183.296 243.613 184.317 243.539 184.589C243.465 184.861 240.694 184.251 237.518 182.739C234.342 181.228 231.957 179.425 232.071 179.213C232.185 179 234.718 180.346 237.848 181.818Z" fill="#174E7B"/>
<path opacity="0.4" d="M240.836 180.822C243.681 182.38 246.089 183.361 246.021 183.633C245.952 183.904 243.391 183.308 240.477 181.723C237.563 180.139 235.52 178.216 235.651 178.017C235.782 177.819 237.99 179.264 240.836 180.822Z" fill="#174E7B"/>
</g>
<g opacity="0.4">
<path opacity="0.4" d="M209.93 59.1463C212.082 55.089 213.607 51.6483 213.84 51.7677C214.074 51.887 212.839 55.5465 210.653 59.6634C208.468 63.7802 206.219 66.7103 206.043 66.5445C205.867 66.3788 207.79 63.2167 209.93 59.1463Z" fill="#174E7B"/>
<path opacity="0.4" d="M213.337 61.7288C214.721 58.9856 215.678 56.6491 215.475 56.5099C215.272 56.3708 213.985 58.4818 212.601 61.2249C211.217 63.9681 210.26 66.3049 210.463 66.4434C210.666 66.5827 211.953 64.4719 213.337 61.7288Z" fill="#174E7B"/>
<path opacity="0.4" d="M210.773 61.8448C213.914 63.3232 216.538 64.3441 216.464 64.6156C216.39 64.8875 213.618 64.2778 210.442 62.7663C207.267 61.2548 204.882 59.4516 204.996 59.2394C205.109 59.0273 207.631 60.3731 210.773 61.8448Z" fill="#174E7B"/>
<path opacity="0.4" d="M213.75 60.8487C216.595 62.4067 219.002 63.3878 218.934 63.6596C218.866 63.9314 216.305 63.3348 213.39 61.7504C210.476 60.1659 208.433 58.2434 208.564 58.0445C208.695 57.8456 210.904 59.3173 213.75 60.8487Z" fill="#174E7B"/>
</g>
<path d="M241.33 77.6753H157.728V79.6244H241.33V77.6753Z" fill="#ACD2E0"/>
<path d="M248.758 84.8103H155.36L156.499 78.9697H248.189L248.758 84.8103Z" fill="#174E7B"/>
<path d="M236.339 344.106H166.84C162.497 344.106 158.604 341.859 156.68 338.239C149.321 324.318 132.207 281.955 132.207 188.878C132.207 97.6563 173.465 30.8643 191.205 6.38166C192.482 4.61939 194.073 3.20298 195.868 2.23136C197.663 1.25974 199.618 0.756341 201.598 0.756348C203.577 0.756341 205.533 1.25974 207.328 2.23136C209.123 3.20298 210.715 4.61939 211.991 6.38166C229.726 30.8643 270.989 97.6563 270.972 188.878C270.972 281.935 253.858 324.331 246.498 338.239C244.603 341.852 240.693 344.106 236.339 344.106ZM201.581 6.60043C199.559 6.59884 197.603 7.43283 196.06 8.95389C195.691 9.31738 195.348 9.71654 195.036 10.1472C177.654 34.1392 137.221 99.5788 137.221 188.878C137.221 228.794 140.397 263.565 146.658 292.231C151.82 315.858 157.824 329.276 160.949 335.17C161.928 337.02 164.301 338.259 166.84 338.259H236.339C238.895 338.259 241.257 337.02 242.224 335.177C245.349 329.27 251.331 315.845 256.521 292.224C262.782 263.559 265.958 228.787 265.958 188.871C265.958 99.5788 225.548 34.1392 208.155 10.1472C207.429 9.1419 206.54 8.31388 205.539 7.7108C204.538 7.10778 203.444 6.74164 202.321 6.63358C202.074 6.6115 201.827 6.60043 201.581 6.60043Z" fill="#174E7B"/>
<path d="M187.113 340.48H182.099V284.62C182.07 264.909 188.548 245.939 200.193 231.638L202.031 229.377L203.852 231.651C215.289 245.909 221.642 264.702 221.621 284.216V340.394H216.607V284.229C216.623 267.289 211.439 250.9 201.991 238.022C192.365 250.952 187.077 267.499 187.102 284.614L187.113 340.48Z" fill="#174E7B"/>
<path d="M284.803 308.852C284.571 308.852 284.344 308.771 284.151 308.621C283.958 308.471 283.808 308.258 283.719 308.008C283.631 307.759 283.608 307.484 283.653 307.22C283.698 306.955 283.81 306.711 283.974 306.521C284.138 306.33 284.347 306.2 284.574 306.147C284.801 306.094 285.037 306.121 285.252 306.224C285.466 306.328 285.649 306.503 285.777 306.727C285.907 306.952 285.975 307.216 285.975 307.486C285.975 307.848 285.851 308.195 285.632 308.451C285.412 308.708 285.114 308.852 284.803 308.852ZM284.803 306.903C284.703 306.903 284.607 306.937 284.525 307.001C284.442 307.065 284.378 307.156 284.34 307.263C284.302 307.37 284.292 307.487 284.311 307.6C284.331 307.713 284.378 307.817 284.448 307.898C284.518 307.98 284.608 308.036 284.705 308.058C284.802 308.081 284.903 308.069 284.994 308.025C285.086 307.981 285.164 307.906 285.219 307.81C285.274 307.714 285.303 307.602 285.303 307.486C285.302 307.332 285.249 307.186 285.155 307.078C285.061 306.97 284.935 306.91 284.803 306.91V306.903Z" fill="#174E7B"/>
<path opacity="0.2" d="M284.802 310.026C284.373 310.026 283.952 309.878 283.595 309.599C283.237 309.321 282.958 308.925 282.794 308.462C282.629 307.999 282.586 307.49 282.67 306.999C282.754 306.508 282.961 306.057 283.265 305.702C283.569 305.348 283.957 305.107 284.378 305.01C284.8 304.912 285.237 304.962 285.635 305.153C286.032 305.345 286.372 305.67 286.61 306.086C286.849 306.502 286.977 306.992 286.977 307.494C286.977 308.165 286.748 308.809 286.34 309.284C285.932 309.759 285.379 310.026 284.802 310.026ZM284.802 306.519C284.637 306.519 284.475 306.576 284.338 306.683C284.2 306.79 284.093 306.942 284.03 307.12C283.966 307.299 283.95 307.494 283.982 307.683C284.014 307.873 284.094 308.046 284.211 308.182C284.328 308.319 284.477 308.412 284.639 308.449C284.802 308.487 284.97 308.467 285.123 308.394C285.275 308.32 285.406 308.195 285.498 308.035C285.59 307.875 285.639 307.686 285.639 307.494C285.639 307.235 285.551 306.987 285.394 306.804C285.237 306.621 285.024 306.519 284.802 306.519Z" fill="#174E7B"/>
<defs>
<filter id="filter0_f_351_316" x="25" y="516.247" width="343" height="139" filterUnits="userSpaceOnUse" color-interpolation-filters="sRGB">
<feFlood flood-opacity="0" result="BackgroundImageFix"/>
<feBlend mode="normal" in="SourceGraphic" in2="BackgroundImageFix" result="shape"/>
<feGaussianBlur stdDeviation="22.5" result="effect1_foregroundBlur_351_316"/>
</filter>
</defs>
</svg>
