<svg width="194" height="493" viewBox="0 0 194 493" fill="none" xmlns="http://www.w3.org/2000/svg">
  <path
    d="M61.2542 343.132H133.821C133.821 345.434 133.432 347.713 132.675 349.84C131.92 351.966 130.811 353.898 129.414 355.526C128.016 357.154 126.357 358.445 124.531 359.326C122.706 360.207 120.749 360.66 118.773 360.66H76.3026C74.3265 360.66 72.3697 360.207 70.5439 359.326C68.718 358.445 67.059 357.154 65.6617 355.526C64.2644 353.898 63.1557 351.966 62.3999 349.84C61.6435 347.713 61.2542 345.434 61.2542 343.132Z"
    fill="#ECF2FA" />
  <path
    d="M134.128 344.604C133.968 347.589 133.155 350.477 131.766 352.993C130.378 355.508 128.46 357.568 126.194 358.976C125.299 359.476 124.363 359.866 123.399 360.143L123.451 359.984C123.775 358.909 123.876 357.761 123.747 356.632C123.617 355.503 123.261 354.425 122.706 353.488C122.151 352.55 121.414 351.778 120.554 351.235C119.694 350.693 118.737 350.395 117.759 350.365L62.9951 348.542C62.6377 347.251 62.4123 345.916 62.3235 344.564C62.7253 344.63 63.1305 344.663 63.5358 344.663H82.6707V346.221H86.6833V344.663H96.928C96.8199 344.935 96.7003 345.207 96.5922 345.479L111.789 345.466V344.683H133.029C133.397 344.685 133.764 344.659 134.128 344.604Z"
    fill="#ACD2E0" />
  <path d="M72.2902 345.473H70.9526V359.494H72.2902V345.473Z" fill="#174E7B" />
  <path opacity="0.2" d="M73.2911 345.473H71.9536V357.545H73.2911V345.473Z" fill="#174E7B" />
  <path opacity="0.2" d="M81.6522 345.473H80.3147V357.545H81.6522V345.473Z" fill="#174E7B" />
  <path opacity="0.2" d="M98.3736 345.473H97.0361V357.545H98.3736V345.473Z" fill="#174E7B" />
  <path opacity="0.2" d="M106.735 345.473H105.397V357.545H106.735V345.473Z" fill="#174E7B" />
  <path opacity="0.2" d="M115.096 345.473H113.759V357.545H115.096V345.473Z" fill="#174E7B" />
  <path opacity="0.3" d="M112.421 345.473H111.083V357.545H112.421V345.473Z" fill="white" />
  <path opacity="0.3" d="M104.395 345.473H103.058V357.545H104.395V345.473Z" fill="white" />
  <path opacity="0.3" d="M96.0345 345.473H94.697V357.545H96.0345V345.473Z" fill="white" />
  <path opacity="0.3" d="M87.6737 345.473H86.3362V357.545H87.6737V345.473Z" fill="white" />
  <path opacity="0.3" d="M79.3136 345.473H77.9761V357.545H79.3136V345.473Z" fill="white" />
  <path opacity="0.3" d="M70.952 345.473H69.6145V357.545H70.952V345.473Z" fill="white" />
  <path opacity="0.2" d="M90.0133 345.473H88.6758V357.545H90.0133V345.473Z" fill="#174E7B" />
  <path d="M80.5934 345.473H79.2559V359.494H80.5934V345.473Z" fill="#174E7B" />
  <path d="M88.9034 345.473H87.5659V359.494H88.9034V345.473Z" fill="#174E7B" />
  <path d="M97.2067 345.473H95.8691V359.494H97.2067V345.473Z" fill="#174E7B" />
  <path d="M113.815 345.473H112.478V359.494H113.815V345.473Z" fill="#174E7B" />
  <path d="M122.119 345.473H120.781V359.494H122.119V345.473Z" fill="#174E7B" />
  <path d="M105.505 345.473H104.168V359.494H105.505V345.473Z" fill="#174E7B" />
  <path
    d="M48.5559 326.379C48.5559 326.379 21.2366 366.01 17.5314 421.585C17.4961 422.149 17.2935 422.681 16.9588 423.09C16.6236 423.5 16.1768 423.761 15.6947 423.83C15.2127 423.897 14.7255 423.769 14.3162 423.464C13.9065 423.16 13.6008 422.699 13.4506 422.162C4.08799 388.968 -15.7925 293 46.2224 234.455"
    fill="#1780D9" />
  <path
    d="M17.1274 424.886C17.2669 425.408 17.5537 425.859 17.9413 426.166C17.6727 426.376 17.3653 426.51 17.0443 426.559C16.7228 426.607 16.3966 426.567 16.091 426.443C15.7848 426.319 15.5082 426.114 15.2822 425.843C15.0563 425.574 14.8872 425.246 14.7882 424.886C5.42564 391.692 -14.4549 295.724 47.56 237.18L47.617 239.387C-11.6205 298.111 7.88437 392.11 17.1274 424.886Z"
    fill="#42B3FF" />
  <path opacity="0.8"
    d="M11.0145 412.052C10.8551 396.645 14.2302 380.503 18.6525 366.044C20.9291 358.645 23.4561 351.691 25.9433 345.492C33.7333 326.138 37.3628 304.866 36.5182 283.514C36.0287 271.156 35.6303 257.294 35.6303 244.95C40.5307 237.883 38.8631 237.247 45.5564 230.929L47.8956 322.853C47.8956 322.853 20.5762 362.484 16.871 418.058C16.8551 418.4 16.7754 418.733 16.6383 419.036C16.5005 419.338 16.3081 419.601 16.0742 419.809"
    fill="#174E7B" />
  <path
    d="M10.9236 359.877C10.692 359.877 10.4654 359.798 10.2725 359.647C10.0796 359.497 9.9293 359.284 9.84052 359.035C9.75173 358.785 9.72839 358.51 9.77392 358.245C9.81889 357.981 9.93045 357.738 10.0949 357.547C10.2588 357.356 10.4677 357.225 10.6948 357.173C10.9225 357.12 11.1581 357.147 11.3727 357.25C11.5867 357.354 11.7699 357.529 11.8986 357.754C12.0272 357.978 12.0961 358.242 12.0961 358.512C12.0961 358.874 11.9726 359.222 11.7529 359.477C11.5332 359.733 11.2349 359.877 10.9236 359.877ZM10.9236 357.928C10.8246 357.928 10.7278 357.963 10.6453 358.027C10.5633 358.091 10.499 358.182 10.4609 358.289C10.4233 358.395 10.4131 358.512 10.4324 358.626C10.4518 358.739 10.4996 358.843 10.5696 358.925C10.6396 359.006 10.729 359.061 10.8263 359.084C10.923 359.106 11.0238 359.095 11.1154 359.051C11.2071 359.007 11.285 358.932 11.3402 358.836C11.3954 358.74 11.4245 358.627 11.4245 358.512C11.4233 358.359 11.3698 358.212 11.2759 358.104C11.182 357.996 11.0557 357.935 10.9236 357.935V357.928Z"
    fill="#174E7B" />
  <path opacity="0.2"
    d="M10.9239 361.052C10.4937 361.052 10.0736 360.904 9.7162 360.626C9.3582 360.347 9.07989 359.952 8.9154 359.489C8.75092 359.026 8.70766 358.517 8.79133 358.026C8.87556 357.534 9.08273 357.083 9.38665 356.729C9.69058 356.375 10.0782 356.134 10.4999 356.036C10.9217 355.938 11.3588 355.988 11.756 356.18C12.1533 356.372 12.4925 356.696 12.7316 357.113C12.9706 357.529 13.0981 358.019 13.0981 358.52C13.0981 359.191 12.8693 359.836 12.4612 360.31C12.0537 360.786 11.5005 361.052 10.9239 361.052ZM10.9239 357.545C10.7583 357.545 10.5967 357.603 10.4589 357.709C10.3218 357.817 10.2142 357.969 10.151 358.147C10.0879 358.325 10.0708 358.521 10.1032 358.71C10.1357 358.899 10.2153 359.072 10.3326 359.209C10.4493 359.345 10.5984 359.438 10.7606 359.476C10.9228 359.513 11.0913 359.494 11.2444 359.42C11.3969 359.346 11.5278 359.222 11.6194 359.061C11.7116 358.901 11.7606 358.713 11.7606 358.52C11.7606 358.392 11.739 358.265 11.6969 358.147C11.6547 358.028 11.5933 357.921 11.5153 357.831C11.4379 357.74 11.3457 357.668 11.2444 357.619C11.1425 357.57 11.0338 357.545 10.9239 357.545Z"
    fill="#174E7B" />
  <path
    d="M15.6021 309.633C15.3704 309.633 15.1439 309.553 14.951 309.403C14.758 309.254 14.6078 309.04 14.519 308.791C14.4302 308.541 14.4074 308.267 14.4524 308.002C14.4979 307.737 14.6095 307.494 14.7734 307.303C14.9373 307.112 15.1462 306.982 15.3738 306.929C15.6009 306.876 15.8366 306.903 16.0511 307.007C16.2651 307.11 16.4484 307.285 16.577 307.51C16.7062 307.735 16.7745 307.998 16.7745 308.268C16.7745 308.631 16.651 308.978 16.4313 309.234C16.2116 309.49 15.9134 309.633 15.6021 309.633ZM15.6021 307.685C15.503 307.685 15.4063 307.719 15.3243 307.784C15.2418 307.847 15.1775 307.939 15.1393 308.045C15.1018 308.151 15.0915 308.269 15.1109 308.382C15.1302 308.495 15.1781 308.599 15.2481 308.681C15.3181 308.762 15.4074 308.818 15.5047 308.84C15.6015 308.863 15.7022 308.851 15.7939 308.807C15.8855 308.763 15.9635 308.688 16.0187 308.592C16.0739 308.496 16.1029 308.383 16.1029 308.268C16.1029 308.114 16.0506 307.965 15.9567 307.856C15.8627 307.746 15.7353 307.685 15.6021 307.685Z"
    fill="#174E7B" />
  <path opacity="0.2"
    d="M15.6018 310.8C15.172 310.8 14.7514 310.651 14.394 310.373C14.0366 310.095 13.7577 309.699 13.5932 309.236C13.4287 308.773 13.3855 308.264 13.4697 307.773C13.5534 307.282 13.7605 306.831 14.0645 306.476C14.3684 306.122 14.756 305.881 15.1777 305.783C15.5995 305.686 16.0366 305.736 16.4339 305.927C16.8311 306.119 17.1709 306.444 17.4094 306.86C17.6484 307.276 17.7759 307.766 17.7759 308.268C17.7759 308.939 17.5471 309.583 17.139 310.058C16.7315 310.533 16.1783 310.8 15.6018 310.8ZM15.6018 307.293C15.4361 307.293 15.2745 307.35 15.1368 307.457C14.9996 307.564 14.892 307.716 14.8288 307.894C14.7657 308.073 14.7492 308.268 14.781 308.457C14.8135 308.646 14.8932 308.82 15.0104 308.956C15.1271 309.093 15.2762 309.186 15.4384 309.223C15.6012 309.261 15.7691 309.241 15.9222 309.168C16.0747 309.094 16.2056 308.969 16.2973 308.808C16.3895 308.648 16.4384 308.46 16.4384 308.268C16.4384 308.139 16.4168 308.012 16.3747 307.894C16.3325 307.776 16.2711 307.669 16.1937 307.578C16.1157 307.488 16.0235 307.416 15.9222 307.367C15.8203 307.318 15.7116 307.293 15.6018 307.293Z"
    fill="#174E7B" />
  <path
    d="M179.803 309.633C179.571 309.633 179.344 309.553 179.151 309.403C178.958 309.254 178.808 309.04 178.719 308.791C178.631 308.541 178.608 308.267 178.653 308.002C178.698 307.737 178.81 307.494 178.974 307.303C179.138 307.112 179.347 306.982 179.574 306.929C179.801 306.876 180.037 306.903 180.252 307.007C180.466 307.11 180.649 307.285 180.777 307.51C180.907 307.735 180.975 307.998 180.975 308.268C180.975 308.631 180.851 308.978 180.632 309.234C180.412 309.49 180.114 309.633 179.803 309.633ZM179.803 307.685C179.703 307.685 179.607 307.719 179.525 307.784C179.442 307.847 179.378 307.939 179.34 308.045C179.302 308.151 179.292 308.269 179.311 308.382C179.331 308.495 179.378 308.599 179.448 308.681C179.518 308.762 179.608 308.818 179.705 308.84C179.802 308.863 179.903 308.851 179.994 308.807C180.086 308.763 180.164 308.688 180.219 308.592C180.274 308.496 180.303 308.383 180.303 308.268C180.303 308.114 180.251 307.965 180.157 307.856C180.063 307.746 179.936 307.685 179.803 307.685Z"
    fill="#174E7B" />
  <path opacity="0.2"
    d="M179.802 310.8C179.373 310.8 178.952 310.651 178.595 310.373C178.237 310.095 177.958 309.699 177.794 309.236C177.629 308.773 177.586 308.264 177.67 307.773C177.754 307.282 177.961 306.831 178.265 306.476C178.569 306.122 178.957 305.881 179.378 305.783C179.8 305.686 180.237 305.736 180.635 305.927C181.032 306.119 181.372 306.444 181.61 306.86C181.849 307.276 181.977 307.766 181.977 308.268C181.977 308.939 181.748 309.583 181.34 310.058C180.932 310.533 180.379 310.8 179.802 310.8ZM179.802 307.293C179.637 307.293 179.475 307.35 179.338 307.457C179.2 307.564 179.093 307.716 179.03 307.894C178.966 308.073 178.95 308.268 178.982 308.457C179.014 308.646 179.094 308.82 179.211 308.956C179.328 309.093 179.477 309.186 179.639 309.223C179.802 309.261 179.97 309.241 180.123 309.168C180.275 309.094 180.406 308.969 180.498 308.808C180.59 308.648 180.639 308.46 180.639 308.268C180.639 308.139 180.617 308.012 180.575 307.894C180.533 307.776 180.472 307.669 180.394 307.578C180.316 307.488 180.224 307.416 180.123 307.367C180.021 307.318 179.912 307.293 179.802 307.293Z"
    fill="#174E7B" />
  <path
    d="M178.801 309.633C178.569 309.633 178.342 309.553 178.15 309.403C177.957 309.254 177.807 309.04 177.718 308.791C177.629 308.541 177.606 308.267 177.651 308.002C177.696 307.737 177.808 307.494 177.972 307.303C178.136 307.112 178.345 306.982 178.572 306.929C178.8 306.876 179.035 306.903 179.249 307.007C179.464 307.11 179.647 307.285 179.776 307.51C179.904 307.735 179.973 307.998 179.973 308.268C179.973 308.631 179.85 308.978 179.63 309.234C179.41 309.49 179.112 309.633 178.801 309.633ZM178.801 307.685C178.702 307.685 178.605 307.719 178.522 307.784C178.441 307.847 178.376 307.939 178.338 308.045C178.301 308.151 178.29 308.269 178.31 308.382C178.329 308.495 178.377 308.599 178.447 308.681C178.517 308.762 178.606 308.818 178.703 308.84C178.8 308.863 178.901 308.851 178.993 308.807C179.084 308.763 179.162 308.688 179.217 308.592C179.273 308.496 179.302 308.383 179.302 308.268C179.302 308.114 179.249 307.965 179.155 307.856C179.061 307.746 178.934 307.685 178.801 307.685Z"
    fill="#174E7B" />
  <path opacity="0.2"
    d="M178.801 310.8C178.371 310.8 177.951 310.651 177.593 310.373C177.236 310.095 176.957 309.699 176.792 309.236C176.628 308.773 176.585 308.264 176.669 307.773C176.753 307.282 176.96 306.831 177.264 306.476C177.568 306.122 177.955 305.881 178.377 305.783C178.799 305.686 179.236 305.736 179.633 305.927C180.03 306.119 180.37 306.444 180.609 306.86C180.848 307.276 180.975 307.766 180.975 308.268C180.975 308.939 180.746 309.583 180.339 310.058C179.931 310.533 179.378 310.8 178.801 310.8ZM178.801 307.293C178.636 307.293 178.474 307.35 178.337 307.457C178.199 307.564 178.092 307.716 178.028 307.894C177.965 308.073 177.948 308.268 177.981 308.457C178.013 308.646 178.092 308.82 178.21 308.956C178.327 309.093 178.475 309.186 178.638 309.223C178.8 309.261 178.968 309.241 179.121 309.168C179.275 309.094 179.405 308.969 179.497 308.808C179.589 308.648 179.638 308.46 179.638 308.268C179.638 308.139 179.616 308.012 179.574 307.894C179.532 307.776 179.47 307.669 179.393 307.578C179.315 307.488 179.223 307.416 179.121 307.367C179.02 307.318 178.911 307.293 178.801 307.293Z"
    fill="#174E7B" />
  <path d="M22.4659 269.902H21.1284V397.665H22.4659V269.902Z" fill="#174E7B" />
  <path opacity="0.2" d="M23.8028 266.788H22.4653V397.666H23.8028V266.788Z" fill="#174E7B" />
  <path opacity="0.3" d="M21.1283 269.902H19.7908V397.665H21.1283V269.902Z" fill="white" />
  <path d="M30.1556 253.15H28.8181V368.449H30.1556V253.15Z" fill="#174E7B" />
  <path opacity="0.2" d="M31.4928 253.15H30.1553V368.449H31.4928V253.15Z" fill="#174E7B" />
  <path opacity="0.3" d="M28.8175 253.15H27.48V368.449H28.8175V253.15Z" fill="white" />
  <path opacity="0.2"
    d="M166.57 464.668C159.388 464.654 152.504 461.321 147.43 455.401C142.356 449.48 139.506 441.457 139.506 433.091V402.337H146.865V433.085C146.865 436.947 147.7 440.747 149.292 444.134C150.885 447.522 153.184 450.388 155.977 452.468C158.77 454.548 161.969 455.776 165.276 456.038C168.585 456.299 171.896 455.587 174.905 453.966C177.915 452.345 180.525 449.867 182.496 446.761C184.467 443.656 185.735 440.023 186.184 436.196C186.632 432.37 186.246 428.473 185.061 424.866C183.876 421.259 181.93 418.058 179.404 415.557L184.168 409.027C188.252 413.072 191.215 418.436 192.682 424.443C194.148 430.449 194.054 436.827 192.409 442.77C190.764 448.714 187.644 453.955 183.441 457.833C179.239 461.711 174.144 464.05 168.801 464.555C168.057 464.63 167.313 464.668 166.57 464.668Z"
    fill="#42B3FF" />
  <path opacity="0.2"
    d="M163.502 451.326C162.706 451.324 161.911 451.256 161.123 451.12L162.193 442.641C163.621 442.882 165.077 442.711 166.434 442.14C167.79 441.569 169.006 440.618 169.971 439.369C170.936 438.121 171.623 436.615 171.969 434.984C172.315 433.353 172.311 431.648 171.957 430.02C171.602 428.391 170.908 426.889 169.936 425.648C168.965 424.407 167.745 423.463 166.385 422.902C165.026 422.341 163.568 422.178 162.142 422.43C160.716 422.682 159.365 423.339 158.209 424.344L153.815 417.469C155.862 415.696 158.239 414.513 160.754 414.019C163.269 413.524 165.848 413.731 168.28 414.623C170.712 415.515 172.929 417.065 174.747 419.148C176.564 421.231 177.933 423.787 178.738 426.605C179.543 429.423 179.764 432.424 179.381 435.36C178.998 438.297 178.022 441.086 176.534 443.497C175.045 445.91 173.088 447.876 170.82 449.236C168.553 450.596 166.041 451.309 163.491 451.319L163.502 451.326Z"
    fill="white" />
  <path opacity="0.2"
    d="M165.927 397.666C168.882 397.666 171.277 394.875 171.277 391.434C171.277 387.992 168.882 385.202 165.927 385.202C162.972 385.202 160.577 387.992 160.577 391.434C160.577 394.875 162.972 397.666 165.927 397.666Z"
    fill="white" />
  <path
    d="M176.45 426.06C176.311 426.581 176.024 427.032 175.636 427.339C175.906 427.549 176.212 427.684 176.534 427.731C176.855 427.78 177.181 427.74 177.487 427.616C177.793 427.492 178.07 427.287 178.296 427.017C178.522 426.746 178.691 426.419 178.789 426.06C188.152 392.866 208.033 296.898 146.018 238.353L145.961 240.561C205.198 299.258 185.699 393.277 176.45 426.06Z"
    fill="white" />
  <path
    d="M145.301 330.277C145.301 330.277 172.62 369.908 176.325 425.483C176.36 426.047 176.563 426.579 176.898 426.988C177.233 427.398 177.68 427.659 178.162 427.727C178.644 427.795 179.132 427.667 179.541 427.362C179.95 427.058 180.256 426.597 180.406 426.06C189.763 392.866 209.649 296.898 147.645 238.353"
    fill="#1780D9" />
  <path opacity="0.8"
    d="M182.848 415.937C183.007 400.53 179.632 384.387 175.21 369.929C172.933 362.53 170.406 355.576 167.919 349.377C160.126 330.035 156.489 308.776 157.322 287.432C157.811 275.074 158.209 261.212 158.209 248.868C153.309 241.801 154.977 241.165 148.283 234.847L145.938 326.771C145.938 326.771 173.258 366.402 176.963 421.976C176.979 422.318 177.059 422.651 177.196 422.954C177.334 423.256 177.526 423.52 177.76 423.727"
    fill="#174E7B" />
  <path
    d="M182.813 360.249C182.582 360.249 182.355 360.169 182.162 360.019C181.969 359.868 181.819 359.656 181.73 359.406C181.641 359.157 181.618 358.882 181.664 358.617C181.709 358.352 181.82 358.109 181.984 357.918C182.148 357.727 182.357 357.597 182.584 357.544C182.812 357.492 183.048 357.519 183.262 357.622C183.476 357.726 183.659 357.901 183.788 358.125C183.917 358.349 183.986 358.614 183.986 358.884C183.986 359.245 183.862 359.593 183.643 359.849C183.422 360.105 183.124 360.249 182.813 360.249ZM182.813 358.3C182.714 358.3 182.617 358.335 182.535 358.398C182.452 358.463 182.389 358.553 182.351 358.66C182.312 358.767 182.303 358.884 182.322 358.997C182.341 359.11 182.389 359.214 182.459 359.296C182.529 359.377 182.619 359.433 182.715 359.455C182.813 359.478 182.913 359.467 183.005 359.422C183.097 359.378 183.175 359.304 183.23 359.208C183.285 359.111 183.314 358.999 183.314 358.884C183.31 358.732 183.255 358.589 183.162 358.484C183.068 358.378 182.943 358.32 182.813 358.32V358.3Z"
    fill="#174E7B" />
  <path opacity="0.2"
    d="M182.814 361.443C182.384 361.443 181.963 361.295 181.606 361.016C181.248 360.738 180.97 360.343 180.805 359.88C180.641 359.417 180.597 358.908 180.682 358.417C180.765 357.926 180.972 357.474 181.276 357.12C181.58 356.766 181.968 356.525 182.39 356.427C182.811 356.329 183.249 356.38 183.646 356.571C184.043 356.763 184.383 357.088 184.621 357.504C184.86 357.92 184.988 358.41 184.988 358.911C184.988 359.582 184.759 360.227 184.351 360.701C183.943 361.177 183.39 361.443 182.814 361.443ZM182.814 357.936C182.648 357.936 182.486 357.993 182.349 358.101C182.212 358.207 182.104 358.36 182.041 358.538C181.978 358.716 181.961 358.912 181.993 359.101C182.025 359.29 182.105 359.464 182.222 359.6C182.339 359.736 182.488 359.829 182.65 359.867C182.813 359.904 182.981 359.885 183.134 359.811C183.287 359.737 183.418 359.613 183.509 359.452C183.601 359.292 183.65 359.104 183.65 358.911C183.65 358.652 183.562 358.404 183.406 358.222C183.248 358.039 183.036 357.936 182.814 357.936Z"
    fill="#174E7B" />
  <path d="M172.615 269.511H171.277V401.172H172.615V269.511Z" fill="#174E7B" />
  <path opacity="0.2" d="M171.276 269.12H169.939V390.26H171.276V269.12Z" fill="#174E7B" />
  <path opacity="0.3" d="M173.952 273.412H172.615V401.175H173.952V273.412Z" fill="white" />
  <path d="M164.925 256.655H163.588V371.955H164.925V256.655Z" fill="#174E7B" />
  <path opacity="0.2" d="M163.588 256.655H162.25V368.057H163.588V256.655Z" fill="#174E7B" />
  <path opacity="0.3" d="M166.262 256.655H164.924V371.955H166.262V256.655Z" fill="white" />
  <path
    d="M178.437 427.936C178.247 427.936 178.057 427.923 177.868 427.896C176.807 427.759 175.821 427.192 175.082 426.294C174.344 425.396 173.899 424.224 173.827 422.984C170.241 368.934 143.616 329.774 143.349 329.383L147.259 325.723C147.543 326.134 154.345 336.065 161.67 352.997C168.243 368.185 176.428 391.998 178.653 420.147C183.206 403.493 189.809 372.706 188.283 339.141C186.348 296.607 172.119 262.518 146.058 237.896L149.217 233.355C163.638 246.812 175.067 264.117 182.535 283.805C188.767 300.286 192.387 318.795 193.298 338.83C194.937 374.934 187.424 407.842 182.797 424.244C182.502 425.32 181.921 426.258 181.136 426.922C180.352 427.586 179.407 427.942 178.437 427.936Z"
    fill="#174E7B" />
  <path opacity="0.2"
    d="M54.5889 475.937C48.2844 475.96 42.1267 473.724 36.9503 469.532C31.7744 465.34 27.8296 459.396 25.652 452.505C23.4744 445.614 23.1688 438.109 24.7766 431.009C26.3845 423.908 29.8279 417.556 34.6401 412.812L39.4039 419.342C36.4101 422.306 34.1051 426.101 32.701 430.376C31.2974 434.652 30.8404 439.27 31.372 443.805C31.9036 448.34 33.4067 452.647 35.7431 456.327C38.0795 460.007 41.1734 462.944 44.7403 464.865C48.3071 466.786 52.2315 467.631 56.1524 467.32C60.0733 467.01 63.8632 465.556 67.1746 463.09C70.4853 460.625 73.2104 457.228 75.0978 453.214C76.9856 449.199 77.9748 444.695 77.9754 440.118V372.73H85.3345V440.118C85.3345 449.613 82.0966 458.719 76.3328 465.432C70.569 472.146 62.7517 475.918 54.6003 475.918L54.5889 475.937Z"
    fill="#42B3FF" />
  <path opacity="0.2"
    d="M110.901 492.336C106.34 492.327 101.969 490.211 98.7449 486.453C95.5218 482.694 93.7096 477.6 93.7068 472.288V405.861H101.066V472.288C101.067 474.216 101.485 476.113 102.281 477.804C103.076 479.494 104.224 480.925 105.619 481.962C107.015 483.001 108.611 483.613 110.263 483.743C111.915 483.874 113.567 483.518 115.07 482.708C116.573 481.899 117.876 480.662 118.86 479.112C119.844 477.561 120.477 475.747 120.702 473.837C120.926 471.927 120.734 469.981 120.143 468.18C119.552 466.379 118.582 464.779 117.321 463.53L122.085 457C124.681 459.57 126.564 462.978 127.497 466.794C128.43 470.611 128.369 474.663 127.325 478.44C126.28 482.217 124.297 485.548 121.627 488.012C118.957 490.475 115.719 491.962 112.324 492.282C111.846 492.318 111.372 492.336 110.901 492.336Z"
    fill="white" />
  <path opacity="0.2" d="M100.383 373.125H93.0239V393.769H100.383V373.125Z" fill="white" />
  <path opacity="0.2"
    d="M56.4902 458.727C55.694 458.726 54.8989 458.658 54.1111 458.522L55.1812 450.043C56.6086 450.284 58.0651 450.112 59.4219 449.542C60.7782 448.971 61.9933 448.019 62.9586 446.771C63.9239 445.523 64.6103 444.017 64.9569 442.386C65.303 440.755 65.299 439.05 64.9444 437.422C64.5898 435.793 63.8955 434.291 62.9239 433.05C61.9524 431.808 60.7327 430.865 59.373 430.304C58.0138 429.743 56.5562 429.58 55.1299 429.832C53.7042 430.083 52.353 430.74 51.1971 431.745L46.8032 424.871C48.8493 423.097 51.2272 421.915 53.7418 421.421C56.2563 420.926 58.8357 421.133 61.2677 422.025C63.7002 422.916 65.9165 424.467 67.7344 426.55C69.5523 428.633 70.9205 431.189 71.7259 434.007C72.5312 436.825 72.7515 439.825 72.3685 442.762C71.9854 445.699 71.0093 448.488 69.5215 450.899C68.0332 453.312 66.0753 455.278 63.8078 456.638C61.5409 457.997 59.0292 458.711 56.4788 458.721L56.4902 458.727Z"
    fill="white" />
  <path opacity="0.2"
    d="M118.442 447.135C116.128 447.135 113.866 446.336 111.942 444.838C110.017 443.34 108.518 441.211 107.631 438.721C106.746 436.231 106.514 433.49 106.965 430.846C107.417 428.202 108.532 425.773 110.168 423.867C111.805 421.961 113.89 420.663 116.16 420.136C118.43 419.611 120.783 419.88 122.921 420.912C125.059 421.944 126.886 423.691 128.172 425.932C129.458 428.174 130.144 430.809 130.144 433.505C130.14 437.118 128.906 440.582 126.712 443.137C124.519 445.692 121.545 447.129 118.442 447.135ZM118.442 428.44C117.582 428.44 116.742 428.737 116.027 429.294C115.312 429.85 114.754 430.641 114.425 431.567C114.096 432.492 114.01 433.511 114.178 434.493C114.346 435.476 114.76 436.378 115.368 437.087C115.976 437.795 116.751 438.277 117.594 438.473C118.438 438.668 119.312 438.568 120.107 438.184C120.901 437.801 121.58 437.151 122.058 436.319C122.536 435.486 122.791 434.506 122.791 433.505C122.79 432.162 122.331 430.875 121.516 429.925C120.701 428.976 119.596 428.442 118.442 428.44Z"
    fill="white" />
  <path opacity="0.2"
    d="M60.5649 412.467C58.2518 412.463 55.9917 411.659 54.0703 410.158C52.1494 408.657 50.6531 406.527 49.7709 404.037C48.8881 401.546 48.6593 398.807 49.1129 396.165C49.5666 393.522 50.6827 391.096 52.319 389.193C53.9559 387.289 56.0407 385.993 58.3093 385.468C60.5785 384.944 62.9303 385.214 65.0669 386.245C67.2041 387.277 69.0305 389.023 70.3162 391.263C71.6013 393.503 72.2883 396.136 72.2894 398.831C72.2866 402.45 71.0498 405.919 68.8512 408.476C66.6525 411.034 63.6719 412.469 60.5649 412.467ZM60.5649 393.772C59.7049 393.772 58.8643 394.069 58.1488 394.626C57.434 395.182 56.8768 395.974 56.5478 396.899C56.2182 397.825 56.1323 398.843 56.3002 399.826C56.4681 400.808 56.8819 401.71 57.4903 402.419C58.0982 403.127 58.8728 403.61 59.7168 403.805C60.5603 404 61.4346 403.9 62.2291 403.517C63.0236 403.134 63.7026 402.484 64.1801 401.651C64.6582 400.819 64.9132 399.839 64.9132 398.837C64.9132 397.493 64.455 396.205 63.64 395.254C62.8244 394.303 61.7186 393.768 60.5649 393.766V393.772Z"
    fill="white" />
  <path opacity="0.2"
    d="M139.507 483.751C140.984 483.751 142.182 482.355 142.182 480.635C142.182 478.914 140.984 477.519 139.507 477.519C138.029 477.519 136.832 478.914 136.832 480.635C136.832 482.355 138.029 483.751 139.507 483.751Z"
    fill="white" />
  <path
    d="M15.09 427.545C14.1224 427.547 13.1793 427.191 12.3973 426.526C11.6159 425.863 11.0359 424.926 10.7416 423.852C6.10873 407.451 -1.4041 374.549 0.235065 338.438C1.14571 318.404 4.78829 299.894 10.9978 283.414C18.4662 263.725 29.8942 246.421 44.316 232.963L47.4748 237.505C21.3905 262.133 7.17874 296.195 5.24362 338.75C3.71829 372.315 10.366 403.102 14.8737 419.755C17.0991 391.613 25.2835 367.793 31.8572 352.605C39.1879 335.674 45.9836 325.743 46.2682 325.332L50.1783 328.991C50.0758 329.144 43.3484 339.002 36.2682 355.39C29.74 370.505 21.5669 394.43 19.7001 422.592C19.6278 423.833 19.1839 425.005 18.4451 425.903C17.7064 426.801 16.7206 427.368 15.6591 427.505C15.4702 427.531 15.2801 427.545 15.09 427.545Z"
    fill="#174E7B" />
  <path
    d="M102.836 4.57846C102.138 3.65923 101.281 2.9232 100.32 2.41909C99.3591 1.91498 98.3175 1.6543 97.264 1.6543C96.2105 1.6543 95.169 1.91498 94.2082 2.41909C93.2475 2.9232 92.3898 3.65923 91.692 4.57846C75.6362 25.7463 30.3999 93.8244 30.3999 188.977C30.3999 282.114 47.742 323.94 54.5035 336.701C55.9492 339.426 59.0966 341.183 62.5286 341.183H132.005C135.454 341.183 138.596 339.439 140.03 336.701C146.792 323.94 164.151 282.114 164.151 188.977C164.151 93.8244 118.898 25.7463 102.836 4.57846Z"
    fill="#1780D9" />
  <path d="M97.7086 83.3242H96.3711V340.408H97.7086V83.3242Z" fill="#174E7B" />
  <path opacity="0.2" d="M96.3702 83.3242H95.0327V340.408H96.3702V83.3242Z" fill="#174E7B" />
  <path opacity="0.3" d="M99.0453 83.3242H97.7078V340.408H99.0453V83.3242Z" fill="white" />
  <path
    d="M142 81H52C57.4877 66.6925 63.9278 52.8359 71.2702 39.5404C71.9122 38.38 72.5479 37.2463 73.1785 36.1394C86.0063 15.3324 95.8323 4 95.8323 4C95.8323 4 109.503 19.758 125.618 48.2434L125.851 48.6631C131.143 58.1438 136.651 68.9578 142 81Z"
    fill="#ECF2FA" />
  <path
    d="M140.844 79.8576L135.927 79.0356C127.805 65.1999 105.34 36.9648 74.3784 33.0733C74.9476 31.827 77.2242 29.2813 77.7933 28.0946C82.2384 19.5824 86.2851 13.8611 89.5919 8.41172C90.4724 6.95212 91.6374 5.75676 92.992 4.92403C94.3466 4.09124 95.8509 3.64486 97.3825 3.62157C98.914 3.59826 100.428 3.99871 101.801 4.78998C103.173 5.58121 104.365 6.7407 105.278 8.17306C112.265 19.0421 118.624 30.4413 124.31 42.2949C124.379 42.4407 125.118 42.5932 125.192 42.7457C130.002 52.9285 138.841 59.2133 140.844 79.8576Z"
    fill="#ACD2E0" />
  <path
    d="M65.1185 71.0251C64.8288 71.0244 64.5442 70.9362 64.2926 70.7692C64.0411 70.6021 63.831 70.3621 63.683 70.0724C63.5351 69.782 63.4543 69.4525 63.4486 69.1151C63.4429 68.7777 63.5123 68.4449 63.65 68.1479C65.2778 64.6608 67.065 61.154 68.8464 57.7663C70.5539 54.4516 72.3069 51.0772 73.8777 47.736C74.0991 47.3033 74.456 46.9873 74.8732 46.8543C75.2904 46.7213 75.7354 46.7816 76.1151 47.0225C76.4953 47.2634 76.7798 47.6663 76.9102 48.1466C77.0411 48.6269 77.0064 49.1474 76.8145 49.5988C75.2152 53.0196 73.4338 56.4537 71.6922 59.7751C69.9506 63.0964 68.1634 66.59 66.5698 70.0041C66.4281 70.3097 66.2186 70.565 65.9636 70.7446C65.7081 70.9243 65.4167 71.0211 65.1185 71.0251Z"
    fill="white" />
  <g opacity="0.4">
    <path opacity="0.4"
      d="M113.958 151.461C116.11 147.403 117.635 143.963 117.868 144.082C118.102 144.201 116.866 147.861 114.681 151.978C112.495 156.095 110.247 159.025 110.071 158.859C109.894 158.693 111.824 155.531 113.958 151.461Z"
      fill="#174E7B" />
    <path opacity="0.4"
      d="M117.819 155.123C119.213 152.386 120.178 150.054 119.975 149.914C119.772 149.774 118.478 151.879 117.085 154.616C115.692 157.353 114.727 159.684 114.929 159.825C115.132 159.965 116.426 157.86 117.819 155.123Z"
      fill="#174E7B" />
    <path opacity="0.4"
      d="M114.805 154.159C117.947 155.638 120.571 156.658 120.497 156.93C120.423 157.202 117.651 156.592 114.475 155.081C111.299 153.569 108.914 151.766 109.028 151.554C109.142 151.342 111.658 152.694 114.805 154.159Z"
      fill="#174E7B" />
    <path opacity="0.4"
      d="M117.776 153.163C120.622 154.721 123.029 155.702 122.961 155.974C122.893 156.245 120.332 155.649 117.418 154.064C114.504 152.48 112.46 150.557 112.591 150.358C112.722 150.16 114.93 151.631 117.776 153.163Z"
      fill="#174E7B" />
  </g>
  <path
    d="M75.716 343.131H63.519C60.0699 343.131 56.9282 341.381 55.4939 338.643C48.7381 325.848 31.396 283.924 31.396 190.561C31.396 99.134 72.9442 32.6403 90.5879 8.59521C74.7825 30.4061 40.5594 88.149 40.5594 179.138L60.622 146.349C60.2065 147.622 19.6885 284.905 75.716 343.131Z"
    fill="#42B3FF" />
  <path
    d="M67.5312 341.375H64.1845C60.7355 341.375 57.5937 339.625 56.1595 336.887C49.4036 324.092 32.0615 282.167 32.0615 188.804C32.0615 97.3775 73.6097 30.8838 91.2193 6.85205C82.2438 19.2425 67.2693 43.3141 56.0456 78.4504C44.5317 108.542 35.3968 145.918 35.3968 188.765C35.3968 282.134 52.7389 324.059 59.4947 336.847C60.946 339.625 64.0878 341.375 67.5312 341.375Z"
    fill="white" />
  <path opacity="0.8"
    d="M116.78 341.183H128.977C132.426 341.183 135.568 339.44 137.002 336.708C143.758 323.953 161.1 282.148 161.1 189.05C161.1 97.9019 119.552 31.5876 101.908 7.60889C117.713 29.3535 155.619 86.9169 155.619 177.661L138.254 144.964C138.647 146.237 172.813 283.122 116.78 341.183Z"
    fill="#174E7B" />
  <g opacity="0.9">
    <path opacity="0.9"
      d="M54.6519 111.77C55.2227 109.168 55.9086 106.601 56.7065 104.08C57.3656 102.018 58.126 100.002 58.9831 98.0408C60.4572 94.7261 61.7321 92.8367 62.2614 93.0953C62.7908 93.3538 62.5346 95.6874 61.8118 99.2474C61.4532 101.031 60.9979 103.146 60.4743 105.446L58.7839 112.97L57.1504 120.548C56.661 122.888 56.2 124.97 55.7902 126.74C54.9649 130.273 54.2592 132.468 53.6672 132.401C53.0753 132.335 52.7281 129.995 52.8021 126.236C52.8579 124.041 53.0212 121.852 53.2916 119.679C53.628 117.018 54.0821 114.378 54.6519 111.77Z"
      fill="white" />
  </g>
  <g opacity="0.9">
    <path opacity="0.9"
      d="M53.1799 142.043C53.6716 138.869 53.1298 136.097 51.9699 135.854C50.8099 135.61 49.4707 137.986 48.979 141.16C48.4872 144.335 49.0285 147.106 50.189 147.349C51.3489 147.593 52.6875 145.218 53.1799 142.043Z"
      fill="white" />
  </g>
  <g opacity="0.2">
    <path opacity="0.2"
      d="M86.9462 22.6246C89.718 20.2844 92.2962 18.2492 94.1858 16.8503C96.0754 15.4515 97.2934 14.6427 97.3617 14.7687C97.43 14.8947 96.3315 15.8758 94.5159 17.4205L87.4357 23.387L80.3725 29.4397C78.5512 30.9645 77.4015 31.8793 77.3275 31.7799C77.2535 31.6804 78.2723 30.5667 80.0025 28.8961C81.7327 27.2255 84.1744 24.9781 86.9462 22.6246Z"
      fill="#174E7B" />
    <path opacity="0.2"
      d="M87.9699 26.4183C94.0656 23.6936 98.9774 21.4065 99.0741 21.665C99.1197 21.791 97.9358 22.5268 96.0064 23.5743C94.077 24.6217 91.3223 25.9808 88.2773 27.3464C85.2323 28.7121 82.4093 29.8325 80.3604 30.5551C78.3114 31.2777 77.0137 31.649 76.9796 31.523C76.8942 31.2578 81.88 29.143 87.9699 26.4183Z"
      fill="#174E7B" />
  </g>
  <path
    d="M91.1858 127.919C90.9542 127.919 90.7277 127.839 90.5347 127.689C90.3418 127.539 90.1915 127.325 90.1027 127.076C90.0139 126.827 89.9906 126.552 90.0361 126.288C90.0811 126.022 90.1926 125.779 90.3571 125.588C90.521 125.397 90.7299 125.267 90.957 125.214C91.1847 125.162 91.4203 125.189 91.6349 125.292C91.8489 125.395 92.0322 125.57 92.1608 125.795C92.2894 126.02 92.3583 126.284 92.3583 126.554C92.3583 126.916 92.2348 127.263 92.0151 127.519C91.7954 127.775 91.4971 127.919 91.1858 127.919ZM91.1858 125.971C91.0868 125.971 90.99 126.004 90.9075 126.069C90.8255 126.133 90.7612 126.224 90.7231 126.331C90.6855 126.437 90.6753 126.555 90.6946 126.667C90.714 126.781 90.7618 126.885 90.8318 126.966C90.9018 127.048 90.9912 127.103 91.0885 127.126C91.1852 127.148 91.286 127.137 91.3776 127.093C91.4693 127.048 91.5472 126.973 91.6024 126.878C91.6577 126.782 91.6867 126.669 91.6867 126.554C91.6867 126.399 91.6343 126.25 91.5398 126.141C91.4459 126.032 91.319 125.971 91.1858 125.971Z"
    fill="#174E7B" />
  <path opacity="0.2"
    d="M91.1857 129.087C90.7554 129.087 90.3353 128.939 89.9779 128.66C89.6205 128.382 89.3416 127.987 89.1771 127.524C89.0126 127.061 88.9694 126.552 89.053 126.061C89.1373 125.57 89.3444 125.118 89.6484 124.764C89.9523 124.41 90.3399 124.169 90.7616 124.071C91.1834 123.973 91.6205 124.024 92.0178 124.215C92.415 124.407 92.7543 124.731 92.9933 125.148C93.2323 125.564 93.3598 126.054 93.3598 126.555C93.3598 127.227 93.131 127.871 92.7229 128.346C92.3154 128.82 91.7622 129.087 91.1857 129.087ZM91.1857 125.58C91.02 125.58 90.8584 125.637 90.7207 125.745C90.5835 125.852 90.4759 126.004 90.4127 126.182C90.3496 126.36 90.3331 126.556 90.3649 126.745C90.3974 126.934 90.4771 127.108 90.5943 127.244C90.711 127.38 90.8601 127.473 91.0223 127.511C91.1845 127.548 91.353 127.529 91.5061 127.455C91.6586 127.382 91.7895 127.256 91.8812 127.097C91.9734 126.936 92.0223 126.748 92.0223 126.555C92.024 126.426 92.0035 126.298 91.962 126.178C91.9204 126.058 91.859 125.949 91.7816 125.857C91.7036 125.765 91.6108 125.692 91.5084 125.643C91.4065 125.593 91.2966 125.567 91.1857 125.567V125.58Z"
    fill="#174E7B" />
  <path
    d="M91.1858 101.236C90.9542 101.236 90.7277 101.155 90.5347 101.006C90.3418 100.855 90.1915 100.642 90.1027 100.393C90.0139 100.143 89.9906 99.8684 90.0361 99.6039C90.0811 99.3388 90.1926 99.0956 90.3571 98.9047C90.521 98.7138 90.7299 98.5839 90.957 98.5309C91.1847 98.4785 91.4203 98.5057 91.6349 98.6084C91.8489 98.7118 92.0322 98.8868 92.1608 99.1115C92.2894 99.3362 92.3583 99.5999 92.3583 99.8703C92.3583 100.232 92.2348 100.58 92.0151 100.835C91.7954 101.092 91.4971 101.236 91.1858 101.236ZM91.1858 99.2871C91.0868 99.2871 90.99 99.3209 90.9075 99.3852C90.8255 99.4495 90.7612 99.5403 90.7231 99.647C90.6855 99.7537 90.6753 99.871 90.6946 99.9837C90.714 100.097 90.7618 100.201 90.8318 100.283C90.9018 100.364 90.9912 100.42 91.0885 100.442C91.1852 100.465 91.286 100.453 91.3776 100.409C91.4693 100.365 91.5472 100.29 91.6024 100.194C91.6577 100.098 91.6867 99.9857 91.6867 99.8703C91.6855 99.7166 91.632 99.5701 91.5381 99.4621C91.4442 99.354 91.3179 99.2937 91.1858 99.2937V99.2871Z"
    fill="#174E7B" />
  <path opacity="0.2"
    d="M91.1857 102.408C90.7554 102.408 90.3353 102.259 89.9779 101.981C89.6205 101.702 89.3416 101.307 89.1771 100.845C89.0126 100.382 88.9694 99.8721 89.053 99.3809C89.1373 98.8896 89.3444 98.4388 89.6484 98.0848C89.9523 97.7301 90.3399 97.4888 90.7616 97.3914C91.1834 97.2939 91.6205 97.3436 92.0178 97.5352C92.415 97.7275 92.7543 98.0517 92.9933 98.468C93.2323 98.885 93.3598 99.3742 93.3598 99.8754C93.3598 100.547 93.131 101.191 92.7229 101.666C92.3154 102.141 91.7622 102.408 91.1857 102.408ZM91.1857 98.9009C91.02 98.9009 90.8584 98.9579 90.7207 99.0646C90.5835 99.172 90.4759 99.3245 90.4127 99.5022C90.3496 99.6805 90.3331 99.8761 90.3649 100.065C90.3974 100.255 90.4771 100.428 90.5943 100.564C90.711 100.701 90.8601 100.794 91.0223 100.831C91.1845 100.869 91.353 100.849 91.5061 100.776C91.6586 100.702 91.7895 100.577 91.8812 100.416C91.9734 100.257 92.0223 100.068 92.0223 99.8754C92.0223 99.6169 91.9341 99.3689 91.777 99.186C91.6205 99.0037 91.4076 98.9009 91.1857 98.9009Z"
    fill="#174E7B" />
  <path
    d="M102.887 109.807C102.656 109.807 102.429 109.727 102.236 109.577C102.043 109.427 101.893 109.214 101.804 108.964C101.715 108.714 101.692 108.44 101.738 108.175C101.783 107.911 101.895 107.667 102.059 107.476C102.222 107.286 102.431 107.155 102.658 107.103C102.886 107.05 103.122 107.077 103.336 107.18C103.55 107.284 103.734 107.459 103.862 107.683C103.991 107.908 104.06 108.172 104.06 108.441C104.06 108.621 104.03 108.799 103.97 108.964C103.912 109.13 103.825 109.28 103.716 109.407C103.608 109.534 103.479 109.634 103.336 109.703C103.194 109.772 103.041 109.807 102.887 109.807ZM102.887 107.858C102.788 107.858 102.691 107.893 102.609 107.957C102.527 108.021 102.463 108.112 102.425 108.219C102.387 108.325 102.377 108.442 102.396 108.555C102.415 108.669 102.463 108.773 102.533 108.854C102.603 108.936 102.693 108.992 102.79 109.013C102.887 109.036 102.987 109.025 103.079 108.98C103.171 108.936 103.249 108.862 103.304 108.766C103.359 108.67 103.388 108.557 103.388 108.441C103.388 108.287 103.336 108.139 103.242 108.029C103.148 107.92 103.02 107.858 102.887 107.858Z"
    fill="#174E7B" />
  <path opacity="0.2"
    d="M102.888 110.98C102.457 110.98 102.037 110.832 101.68 110.554C101.322 110.276 101.044 109.88 100.879 109.417C100.715 108.954 100.671 108.445 100.755 107.954C100.839 107.463 101.046 107.011 101.35 106.657C101.654 106.303 102.042 106.062 102.464 105.964C102.885 105.866 103.322 105.917 103.72 106.108C104.117 106.3 104.457 106.625 104.695 107.041C104.934 107.457 105.062 107.947 105.062 108.448C105.062 109.119 104.833 109.764 104.425 110.239C104.017 110.714 103.464 110.98 102.888 110.98ZM102.888 107.473C102.722 107.473 102.56 107.531 102.423 107.638C102.285 107.745 102.178 107.897 102.115 108.075C102.051 108.253 102.035 108.449 102.067 108.638C102.099 108.827 102.179 109.001 102.296 109.137C102.413 109.273 102.562 109.366 102.724 109.404C102.886 109.442 103.055 109.422 103.208 109.348C103.361 109.275 103.491 109.15 103.583 108.989C103.675 108.829 103.724 108.641 103.724 108.448C103.724 108.19 103.636 107.942 103.479 107.759C103.322 107.576 103.11 107.473 102.888 107.473Z"
    fill="#174E7B" />
  <path
    d="M102.887 206.796C102.656 206.796 102.429 206.716 102.236 206.566C102.043 206.416 101.893 206.203 101.804 205.953C101.715 205.704 101.692 205.429 101.738 205.164C101.783 204.9 101.895 204.657 102.059 204.466C102.222 204.274 102.431 204.144 102.658 204.092C102.886 204.039 103.122 204.066 103.336 204.169C103.55 204.273 103.734 204.448 103.862 204.672C103.991 204.896 104.06 205.161 104.06 205.431C104.06 205.793 103.936 206.14 103.716 206.396C103.497 206.652 103.199 206.796 102.887 206.796ZM102.887 204.847C102.788 204.847 102.691 204.882 102.609 204.946C102.527 205.01 102.463 205.101 102.425 205.207C102.387 205.314 102.377 205.431 102.396 205.545C102.415 205.658 102.463 205.761 102.533 205.843C102.603 205.924 102.693 205.98 102.79 206.003C102.887 206.025 102.987 206.014 103.079 205.969C103.171 205.926 103.249 205.851 103.304 205.755C103.359 205.659 103.388 205.546 103.388 205.431C103.387 205.278 103.333 205.13 103.24 205.022C103.146 204.914 103.019 204.854 102.887 204.854V204.847Z"
    fill="#174E7B" />
  <path opacity="0.2"
    d="M102.888 207.97C102.457 207.97 102.037 207.822 101.68 207.544C101.322 207.266 101.044 206.87 100.879 206.407C100.715 205.945 100.671 205.435 100.755 204.944C100.839 204.453 101.046 204.001 101.35 203.647C101.654 203.293 102.042 203.052 102.464 202.955C102.885 202.857 103.322 202.907 103.72 203.098C104.117 203.29 104.457 203.615 104.695 204.031C104.934 204.448 105.062 204.938 105.062 205.438C105.062 206.11 104.833 206.754 104.425 207.229C104.017 207.704 103.464 207.97 102.888 207.97ZM102.888 204.464C102.722 204.464 102.56 204.521 102.423 204.628C102.285 204.735 102.178 204.887 102.115 205.065C102.051 205.243 102.035 205.439 102.067 205.628C102.099 205.817 102.179 205.991 102.296 206.127C102.413 206.263 102.562 206.356 102.724 206.394C102.886 206.432 103.055 206.413 103.208 206.338C103.361 206.265 103.491 206.14 103.583 205.98C103.675 205.819 103.724 205.631 103.724 205.438C103.725 205.309 103.704 205.182 103.662 205.063C103.621 204.944 103.559 204.836 103.481 204.745C103.403 204.654 103.311 204.582 103.209 204.532C103.107 204.483 102.998 204.457 102.888 204.457V204.464Z"
    fill="#174E7B" />
  <path
    d="M103.251 226.663C103.02 226.663 102.793 226.583 102.6 226.433C102.407 226.283 102.257 226.07 102.168 225.82C102.08 225.571 102.057 225.297 102.102 225.032C102.147 224.766 102.259 224.523 102.423 224.332C102.587 224.142 102.796 224.012 103.023 223.959C103.25 223.906 103.486 223.933 103.701 224.037C103.915 224.14 104.098 224.315 104.226 224.539C104.356 224.764 104.424 225.028 104.424 225.298C104.424 225.66 104.3 226.007 104.081 226.264C103.861 226.52 103.563 226.663 103.251 226.663ZM103.251 224.715C103.152 224.715 103.056 224.749 102.974 224.813C102.891 224.877 102.827 224.968 102.789 225.075C102.751 225.181 102.741 225.299 102.76 225.412C102.78 225.525 102.827 225.629 102.897 225.71C102.967 225.792 103.057 225.847 103.154 225.87C103.251 225.893 103.352 225.881 103.443 225.837C103.535 225.792 103.613 225.718 103.668 225.622C103.723 225.526 103.752 225.413 103.752 225.298C103.752 225.144 103.7 224.995 103.606 224.886C103.512 224.776 103.385 224.715 103.251 224.715Z"
    fill="#174E7B" />
  <path opacity="0.2"
    d="M103.252 227.833C102.822 227.833 102.401 227.685 102.044 227.407C101.686 227.129 101.408 226.733 101.243 226.27C101.079 225.808 101.035 225.298 101.12 224.807C101.203 224.316 101.41 223.864 101.714 223.51C102.018 223.156 102.406 222.915 102.828 222.817C103.249 222.72 103.686 222.77 104.084 222.961C104.481 223.153 104.821 223.478 105.059 223.894C105.298 224.311 105.426 224.801 105.426 225.301C105.426 225.973 105.197 226.617 104.789 227.092C104.381 227.567 103.828 227.833 103.252 227.833ZM103.252 224.327C103.086 224.327 102.924 224.384 102.787 224.491C102.649 224.598 102.542 224.75 102.479 224.928C102.416 225.106 102.399 225.302 102.431 225.491C102.463 225.68 102.543 225.854 102.66 225.99C102.777 226.126 102.926 226.219 103.088 226.257C103.251 226.295 103.419 226.275 103.572 226.201C103.725 226.128 103.856 226.003 103.947 225.843C104.039 225.682 104.088 225.494 104.088 225.301C104.084 225.046 103.994 224.803 103.837 224.625C103.681 224.446 103.471 224.346 103.252 224.346V224.327Z"
    fill="#174E7B" />
  <path
    d="M90.1612 201.348C89.9295 201.348 89.703 201.268 89.51 201.118C89.3171 200.968 89.1668 200.755 89.078 200.506C88.9893 200.256 88.9665 199.981 89.0115 199.717C89.057 199.452 89.1686 199.209 89.3325 199.018C89.4964 198.827 89.7053 198.696 89.9329 198.644C90.16 198.591 90.3956 198.618 90.6102 198.721C90.8242 198.825 91.0075 199 91.1361 199.224C91.2653 199.449 91.3336 199.713 91.3336 199.983C91.3336 200.345 91.2101 200.692 90.9904 200.948C90.7707 201.204 90.4725 201.348 90.1612 201.348ZM90.1612 199.399C90.0621 199.399 89.9654 199.434 89.8834 199.498C89.8009 199.562 89.7366 199.653 89.6984 199.76C89.6609 199.866 89.6506 199.983 89.67 200.097C89.6893 200.21 89.7371 200.314 89.8071 200.396C89.8771 200.477 89.9665 200.533 90.0638 200.555C90.1606 200.577 90.2613 200.566 90.353 200.521C90.4446 200.478 90.5226 200.403 90.5778 200.307C90.633 200.211 90.662 200.098 90.662 199.983C90.662 199.828 90.6096 199.68 90.5157 199.57C90.4218 199.461 90.2943 199.399 90.1612 199.399Z"
    fill="#174E7B" />
  <path opacity="0.2"
    d="M90.1608 202.515C89.7311 202.515 89.3105 202.366 88.9531 202.088C88.5957 201.809 88.3168 201.414 88.1523 200.952C87.9878 200.489 87.9445 199.979 88.0288 199.488C88.1125 198.997 88.3196 198.546 88.6236 198.192C88.9275 197.837 89.3151 197.596 89.7368 197.498C90.1586 197.401 90.5957 197.451 90.9929 197.642C91.3902 197.834 91.73 198.159 91.9685 198.575C92.2075 198.992 92.335 199.481 92.335 199.982C92.335 200.654 92.1062 201.298 91.6981 201.773C91.2906 202.248 90.7374 202.515 90.1608 202.515ZM90.1608 199.008C89.9952 199.008 89.8336 199.065 89.6964 199.172C89.5587 199.279 89.4511 199.431 89.3879 199.609C89.3247 199.787 89.3083 199.983 89.3401 200.172C89.3726 200.362 89.4522 200.535 89.5695 200.671C89.6862 200.808 89.8353 200.901 89.9975 200.938C90.1603 200.975 90.3282 200.956 90.4813 200.883C90.6338 200.809 90.7647 200.684 90.8563 200.523C90.9485 200.364 90.9975 200.175 90.9975 199.982C90.9975 199.724 90.9093 199.476 90.7528 199.293C90.5957 199.111 90.3828 199.008 90.1608 199.008Z"
    fill="#174E7B" />
  <path
    d="M90.1612 221.208C89.9295 221.208 89.703 221.128 89.51 220.978C89.3171 220.828 89.1668 220.615 89.078 220.365C88.9893 220.116 88.9665 219.841 89.0115 219.577C89.057 219.312 89.1686 219.068 89.3325 218.878C89.4964 218.687 89.7053 218.557 89.9329 218.504C90.16 218.451 90.3956 218.478 90.6102 218.581C90.8242 218.685 91.0075 218.86 91.1361 219.084C91.2653 219.309 91.3336 219.573 91.3336 219.842C91.3336 220.205 91.2101 220.552 90.9904 220.808C90.7707 221.064 90.4725 221.208 90.1612 221.208ZM90.1612 219.259C90.0621 219.259 89.9654 219.294 89.8834 219.358C89.8009 219.422 89.7366 219.513 89.6984 219.62C89.6609 219.726 89.6506 219.843 89.67 219.956C89.6893 220.07 89.7371 220.174 89.8071 220.255C89.8771 220.337 89.9665 220.393 90.0638 220.415C90.1606 220.437 90.2613 220.426 90.353 220.381C90.4446 220.338 90.5226 220.263 90.5778 220.167C90.633 220.071 90.662 219.958 90.662 219.842C90.6609 219.689 90.6074 219.543 90.5134 219.435C90.4195 219.327 90.2932 219.266 90.1612 219.266V219.259Z"
    fill="#174E7B" />
  <path opacity="0.2"
    d="M90.1608 222.356C89.7311 222.356 89.3105 222.208 88.9531 221.93C88.5957 221.652 88.3168 221.256 88.1523 220.793C87.9878 220.33 87.9445 219.821 88.0288 219.33C88.1125 218.839 88.3196 218.387 88.6236 218.033C88.9275 217.679 89.3151 217.438 89.7368 217.34C90.1586 217.242 90.5957 217.293 90.9929 217.484C91.3902 217.676 91.73 218.001 91.9685 218.417C92.2075 218.833 92.335 219.323 92.335 219.824C92.335 220.495 92.1062 221.14 91.6981 221.615C91.2906 222.09 90.7374 222.356 90.1608 222.356ZM90.1608 218.849C89.9952 218.849 89.8336 218.907 89.6964 219.014C89.5587 219.121 89.4511 219.273 89.3879 219.451C89.3247 219.629 89.3083 219.825 89.3401 220.014C89.3726 220.203 89.4522 220.377 89.5695 220.513C89.6862 220.649 89.8353 220.742 89.9975 220.78C90.1603 220.818 90.3282 220.798 90.4813 220.724C90.6338 220.65 90.7647 220.526 90.8563 220.365C90.9485 220.205 90.9975 220.017 90.9975 219.824C90.9918 219.57 90.9007 219.329 90.7448 219.152C90.5883 218.975 90.3788 218.876 90.1608 218.876V218.849Z"
    fill="#174E7B" />
  <path
    d="M91.1858 154.602C90.9542 154.602 90.7277 154.522 90.5347 154.372C90.3418 154.221 90.1915 154.008 90.1027 153.759C90.0139 153.51 89.9906 153.235 90.0361 152.97C90.0811 152.705 90.1926 152.462 90.3571 152.271C90.521 152.08 90.7299 151.95 90.957 151.897C91.1847 151.845 91.4203 151.872 91.6349 151.975C91.8489 152.078 92.0322 152.253 92.1608 152.478C92.2894 152.702 92.3583 152.966 92.3583 153.237C92.3583 153.598 92.2348 153.946 92.0151 154.202C91.7954 154.458 91.4971 154.602 91.1858 154.602ZM91.1858 152.653C91.0868 152.653 90.99 152.687 90.9075 152.751C90.8255 152.816 90.7612 152.906 90.7231 153.013C90.6855 153.12 90.6753 153.237 90.6946 153.35C90.714 153.463 90.7618 153.567 90.8318 153.649C90.9018 153.73 90.9912 153.786 91.0885 153.809C91.1852 153.831 91.286 153.819 91.3776 153.775C91.4693 153.731 91.5472 153.656 91.6024 153.561C91.6577 153.465 91.6867 153.352 91.6867 153.237C91.6867 153.081 91.6343 152.933 91.5398 152.824C91.4459 152.714 91.319 152.653 91.1858 152.653Z"
    fill="#174E7B" />
  <path opacity="0.2"
    d="M91.1857 155.77C90.7554 155.77 90.3353 155.622 89.9779 155.343C89.6205 155.065 89.3416 154.67 89.1771 154.207C89.0126 153.744 88.9694 153.235 89.053 152.744C89.1373 152.252 89.3444 151.801 89.6484 151.447C89.9523 151.092 90.3399 150.852 90.7616 150.753C91.1834 150.656 91.6205 150.706 92.0178 150.898C92.415 151.09 92.7543 151.414 92.9933 151.831C93.2323 152.247 93.3598 152.736 93.3598 153.238C93.3598 153.909 93.131 154.554 92.7229 155.028C92.3154 155.503 91.7622 155.77 91.1857 155.77ZM91.1857 152.263C91.02 152.263 90.8584 152.32 90.7207 152.427C90.5835 152.534 90.4759 152.687 90.4127 152.864C90.3496 153.043 90.3331 153.239 90.3649 153.428C90.3974 153.617 90.4771 153.79 90.5943 153.926C90.711 154.063 90.8601 154.156 91.0223 154.194C91.1845 154.231 91.353 154.211 91.5061 154.138C91.6586 154.064 91.7895 153.939 91.8812 153.779C91.9734 153.619 92.0223 153.43 92.0223 153.238C92.0223 152.979 91.9341 152.731 91.777 152.548C91.6205 152.366 91.4076 152.263 91.1857 152.263Z"
    fill="#174E7B" />
  <path
    d="M117.936 73.1917C117.704 73.1917 117.477 73.1115 117.284 72.9617C117.092 72.8113 116.941 72.5985 116.852 72.3486C116.764 72.0994 116.74 71.825 116.786 71.5599C116.831 71.2948 116.942 71.0516 117.107 70.8607C117.271 70.6698 117.48 70.5399 117.707 70.4869C117.934 70.4345 118.17 70.4617 118.385 70.5651C118.599 70.6685 118.782 70.8435 118.911 71.0675C119.039 71.2922 119.108 71.556 119.108 71.8264C119.108 72.0053 119.078 72.1829 119.019 72.3486C118.96 72.5143 118.874 72.6648 118.765 72.792C118.656 72.9186 118.526 73.0194 118.385 73.0876C118.242 73.1566 118.09 73.1917 117.936 73.1917ZM117.936 71.2431C117.837 71.2431 117.74 71.2776 117.657 71.3412C117.575 71.4055 117.511 71.4963 117.473 71.603C117.435 71.7097 117.425 71.827 117.444 71.9404C117.464 72.053 117.512 72.1571 117.582 72.2386C117.652 72.3201 117.741 72.3758 117.838 72.3983C117.935 72.4209 118.036 72.4096 118.127 72.3652C118.219 72.3208 118.297 72.2466 118.352 72.1505C118.407 72.0544 118.436 71.9417 118.436 71.8264C118.436 71.6719 118.384 71.5235 118.29 71.4141C118.196 71.3048 118.069 71.2431 117.936 71.2431Z"
    fill="#174E7B" />
  <path opacity="0.2"
    d="M117.935 74.3608C117.505 74.3608 117.085 74.2123 116.728 73.9339C116.37 73.6561 116.091 73.2603 115.927 72.7976C115.762 72.3349 115.719 71.8257 115.803 71.3345C115.887 70.8432 116.094 70.3918 116.398 70.0378C116.702 69.6837 117.09 69.4424 117.511 69.3443C117.933 69.2469 118.37 69.2973 118.768 69.4888C119.165 69.6804 119.504 70.0053 119.743 70.4216C119.982 70.8379 120.11 71.3279 120.11 71.8284C120.11 72.4999 119.881 73.1443 119.473 73.619C119.065 74.0943 118.512 74.3608 117.935 74.3608ZM117.935 70.8538C117.77 70.8538 117.608 70.9109 117.47 71.0183C117.333 71.125 117.226 71.2775 117.162 71.4558C117.099 71.6335 117.083 71.8297 117.115 72.0186C117.147 72.2076 117.227 72.3813 117.344 72.5178C117.461 72.6537 117.61 72.7466 117.772 72.7843C117.934 72.8221 118.103 72.8022 118.256 72.7287C118.408 72.6551 118.539 72.5304 118.631 72.37C118.723 72.2096 118.772 72.0213 118.772 71.8284C118.772 71.5698 118.684 71.3219 118.527 71.1396C118.37 70.9566 118.157 70.8538 117.935 70.8538Z"
    fill="#174E7B" />
  <path
    d="M75.8018 73.1917C75.5701 73.1917 75.343 73.1115 75.1501 72.9617C74.9577 72.8113 74.8075 72.5985 74.7187 72.3486C74.6299 72.0994 74.6066 71.825 74.6521 71.5599C74.6971 71.2948 74.8086 71.0516 74.9725 70.8607C75.1364 70.6698 75.3453 70.5399 75.573 70.4869C75.8007 70.4345 76.0363 70.4617 76.2503 70.5651C76.4649 70.6685 76.6475 70.8435 76.7767 71.0675C76.9054 71.2922 76.9742 71.556 76.9742 71.8264C76.9742 72.0053 76.9441 72.1829 76.8849 72.3486C76.8263 72.5143 76.7397 72.6648 76.631 72.792C76.5218 72.9186 76.3926 73.0194 76.2503 73.0876C76.108 73.1566 75.9555 73.1917 75.8018 73.1917ZM75.8018 71.2431C75.7027 71.2431 75.606 71.2776 75.5235 71.3412C75.4409 71.4055 75.3772 71.4963 75.3391 71.603C75.3009 71.7097 75.2913 71.827 75.3106 71.9404C75.33 72.053 75.3778 72.1571 75.4478 72.2386C75.5178 72.3201 75.6071 72.3758 75.7039 72.3983C75.8012 72.4209 75.902 72.4096 75.9936 72.3652C76.0852 72.3208 76.1632 72.2466 76.2184 72.1505C76.2731 72.0544 76.3026 71.9417 76.3026 71.8264C76.3026 71.6719 76.2497 71.5235 76.1558 71.4141C76.0619 71.3048 75.9344 71.2431 75.8018 71.2431Z"
    fill="#174E7B" />
  <path opacity="0.2"
    d="M75.8015 74.3608C75.3717 74.3608 74.9512 74.2123 74.5937 73.9339C74.2363 73.6561 73.9574 73.2603 73.7929 72.7976C73.6284 72.3349 73.5852 71.8257 73.6694 71.3345C73.7531 70.8432 73.9603 70.3918 74.2642 70.0378C74.5681 69.6837 74.9557 69.4424 75.3774 69.3443C75.7992 69.2469 76.2363 69.2973 76.6336 69.4888C77.0308 69.6804 77.3706 70.0053 77.6091 70.4216C77.8481 70.8379 77.9756 71.3279 77.9756 71.8284C77.9756 72.4999 77.7468 73.1443 77.3388 73.619C76.9312 74.0943 76.378 74.3608 75.8015 74.3608ZM75.8015 70.8538C75.6358 70.8538 75.4742 70.9109 75.3365 71.0183C75.1993 71.125 75.0917 71.2775 75.0285 71.4558C74.9654 71.6335 74.9489 71.8297 74.9807 72.0186C75.0132 72.2076 75.0929 72.3813 75.2101 72.5178C75.3268 72.6537 75.4759 72.7466 75.6381 72.7843C75.8009 72.8221 75.9688 72.8022 76.1219 72.7287C76.2744 72.6551 76.4053 72.5304 76.497 72.37C76.5892 72.2096 76.6381 72.0213 76.6381 71.8284C76.6381 71.5698 76.5499 71.3219 76.3934 71.1396C76.2363 70.9566 76.0234 70.8538 75.8015 70.8538Z"
    fill="#174E7B" />
  <path
    d="M96.8714 73.1917C96.6397 73.1917 96.4126 73.1115 96.2203 72.9617C96.0273 72.8113 95.8771 72.5985 95.7883 72.3486C95.6995 72.0994 95.6761 71.825 95.7217 71.5599C95.7666 71.2948 95.8782 71.0516 96.0421 70.8607C96.206 70.6698 96.4149 70.5399 96.6426 70.4869C96.8702 70.4345 97.1059 70.4617 97.3199 70.5651C97.5344 70.6685 97.7171 70.8435 97.8463 71.0675C97.975 71.2922 98.0438 71.556 98.0438 71.8264C98.0438 72.0053 98.0137 72.1829 97.9545 72.3486C97.8958 72.5143 97.8093 72.6648 97.7006 72.792C97.5914 72.9186 97.4622 73.0194 97.3199 73.0876C97.1776 73.1566 97.0256 73.1917 96.8714 73.1917ZM96.8714 71.2431C96.7723 71.2431 96.6756 71.2776 96.5931 71.3412C96.5105 71.4055 96.4468 71.4963 96.4086 71.603C96.3705 71.7097 96.3608 71.827 96.3802 71.9404C96.3995 72.053 96.4474 72.1571 96.5174 72.2386C96.5874 72.3201 96.6767 72.3758 96.7735 72.3983C96.8708 72.4209 96.9716 72.4096 97.0632 72.3652C97.1548 72.3208 97.2328 72.2466 97.288 72.1505C97.3426 72.0544 97.3722 71.9417 97.3722 71.8264C97.3722 71.6719 97.3193 71.5235 97.2254 71.4141C97.1315 71.3048 97.004 71.2431 96.8714 71.2431Z"
    fill="#174E7B" />
  <path opacity="0.2"
    d="M96.871 74.3608C96.4413 74.3608 96.0207 74.2123 95.6633 73.9339C95.3059 73.6561 95.027 73.2603 94.8625 72.7976C94.698 72.3349 94.6548 71.8257 94.739 71.3345C94.8227 70.8432 95.0298 70.3918 95.3337 70.0378C95.6377 69.6837 96.0253 69.4424 96.447 69.3443C96.8688 69.2469 97.3059 69.2973 97.7031 69.4888C98.1004 69.6804 98.4402 70.0053 98.6787 70.4216C98.9177 70.8379 99.0452 71.3279 99.0452 71.8284C99.0452 72.4999 98.8164 73.1443 98.4083 73.619C98.0008 74.0943 97.4476 74.3608 96.871 74.3608ZM96.871 70.8538C96.7054 70.8538 96.5438 70.9109 96.4066 71.0183C96.2689 71.125 96.1613 71.2775 96.0981 71.4558C96.035 71.6335 96.0184 71.8297 96.0503 72.0186C96.0828 72.2076 96.1624 72.3813 96.2797 72.5178C96.3964 72.6537 96.5455 72.7466 96.7077 72.7843C96.8705 72.8221 97.0384 72.8022 97.1915 72.7287C97.344 72.6551 97.4749 72.5304 97.5665 72.37C97.6587 72.2096 97.7077 72.0213 97.7077 71.8284C97.7077 71.5698 97.6195 71.3219 97.463 71.1396C97.3059 70.9566 97.093 70.8538 96.871 70.8538Z"
    fill="#174E7B" />
  <path
    d="M91.1858 250.816C90.9542 250.816 90.7277 250.736 90.5347 250.585C90.3418 250.435 90.1915 250.222 90.1027 249.973C90.0139 249.724 89.9906 249.449 90.0361 249.184C90.0811 248.919 90.1926 248.676 90.3571 248.485C90.521 248.294 90.7299 248.164 90.957 248.111C91.1847 248.059 91.4203 248.085 91.6349 248.189C91.8489 248.292 92.0322 248.467 92.1608 248.692C92.2894 248.916 92.3583 249.18 92.3583 249.451C92.3583 249.812 92.2348 250.16 92.0151 250.416C91.7954 250.672 91.4971 250.816 91.1858 250.816ZM91.1858 248.867C91.0868 248.867 90.99 248.901 90.9075 248.965C90.8255 249.03 90.7612 249.121 90.7231 249.227C90.6855 249.334 90.6753 249.451 90.6946 249.564C90.714 249.677 90.7618 249.781 90.8318 249.863C90.9018 249.944 90.9912 250 91.0885 250.023C91.1852 250.045 91.286 250.033 91.3776 249.989C91.4693 249.945 91.5472 249.87 91.6024 249.774C91.6577 249.679 91.6867 249.566 91.6867 249.451C91.6855 249.297 91.632 249.15 91.5381 249.042C91.4442 248.934 91.3179 248.874 91.1858 248.874V248.867Z"
    fill="#174E7B" />
  <path opacity="0.2"
    d="M91.1857 251.984C90.7554 251.984 90.3353 251.836 89.9779 251.557C89.6205 251.279 89.3416 250.884 89.1771 250.421C89.0126 249.958 88.9694 249.449 89.053 248.958C89.1373 248.466 89.3444 248.015 89.6484 247.661C89.9523 247.306 90.3399 247.066 90.7616 246.968C91.1834 246.87 91.6205 246.92 92.0178 247.112C92.415 247.304 92.7543 247.628 92.9933 248.044C93.2323 248.461 93.3598 248.95 93.3598 249.452C93.3598 250.123 93.131 250.768 92.7229 251.242C92.3154 251.717 91.7622 251.984 91.1857 251.984ZM91.1857 248.477C91.02 248.477 90.8584 248.534 90.7207 248.641C90.5835 248.748 90.4759 248.901 90.4127 249.078C90.3496 249.257 90.3331 249.452 90.3649 249.642C90.3974 249.831 90.4771 250.004 90.5943 250.14C90.711 250.277 90.8601 250.37 91.0223 250.408C91.1845 250.445 91.353 250.425 91.5061 250.352C91.6586 250.278 91.7895 250.153 91.8812 249.993C91.9734 249.833 92.0223 249.644 92.0223 249.452C92.0223 249.193 91.9341 248.945 91.777 248.762C91.6205 248.58 91.4076 248.477 91.1857 248.477Z"
    fill="#174E7B" />
  <path
    d="M91.1858 279.368C90.9542 279.368 90.7277 279.288 90.5347 279.138C90.3418 278.988 90.1915 278.775 90.1027 278.525C90.0139 278.276 89.9906 278.001 90.0361 277.736C90.0811 277.471 90.1926 277.228 90.3571 277.037C90.521 276.846 90.7299 276.716 90.957 276.663C91.1847 276.611 91.4203 276.638 91.6349 276.741C91.8489 276.845 92.0322 277.02 92.1608 277.244C92.2894 277.468 92.3583 277.732 92.3583 278.003C92.3583 278.365 92.2348 278.712 92.0151 278.968C91.7954 279.224 91.4971 279.368 91.1858 279.368ZM91.1858 277.419C91.0868 277.419 90.99 277.454 90.9075 277.517C90.8255 277.582 90.7612 277.673 90.7231 277.779C90.6855 277.886 90.6753 278.003 90.6946 278.117C90.714 278.229 90.7618 278.333 90.8318 278.415C90.9018 278.496 90.9912 278.552 91.0885 278.575C91.1852 278.597 91.286 278.586 91.3776 278.541C91.4693 278.497 91.5472 278.423 91.6024 278.327C91.6577 278.231 91.6867 278.118 91.6867 278.003C91.6838 277.85 91.6298 277.705 91.5364 277.599C91.4425 277.492 91.3167 277.433 91.1858 277.433V277.419Z"
    fill="#174E7B" />
  <path opacity="0.2"
    d="M91.1857 280.551C90.7554 280.551 90.3353 280.402 89.9779 280.124C89.6205 279.846 89.3416 279.45 89.1771 278.987C89.0126 278.524 88.9694 278.015 89.053 277.524C89.1373 277.033 89.3444 276.582 89.6484 276.227C89.9523 275.873 90.3399 275.632 90.7616 275.534C91.1834 275.437 91.6205 275.487 92.0178 275.678C92.415 275.871 92.7543 276.195 92.9933 276.611C93.2323 277.028 93.3598 277.517 93.3598 278.018C93.3598 278.69 93.131 279.334 92.7229 279.809C92.3154 280.284 91.7622 280.551 91.1857 280.551ZM91.1857 277.044C91.02 277.044 90.8584 277.101 90.7207 277.208C90.5835 277.315 90.4759 277.467 90.4127 277.645C90.3496 277.824 90.3331 278.019 90.3649 278.208C90.3974 278.398 90.4771 278.571 90.5943 278.707C90.711 278.844 90.8601 278.937 91.0223 278.974C91.1845 279.012 91.353 278.992 91.5061 278.919C91.6586 278.845 91.7895 278.72 91.8812 278.559C91.9734 278.4 92.0223 278.211 92.0223 278.018C92.0223 277.76 91.9341 277.512 91.777 277.329C91.6205 277.147 91.4076 277.044 91.1857 277.044Z"
    fill="#174E7B" />
  <path
    d="M91.1858 307.948C90.9542 307.948 90.7277 307.868 90.5347 307.718C90.3418 307.568 90.1915 307.355 90.1027 307.105C90.0139 306.856 89.9906 306.581 90.0361 306.316C90.0811 306.052 90.1926 305.808 90.3571 305.618C90.521 305.427 90.7299 305.296 90.957 305.244C91.1847 305.191 91.4203 305.218 91.6349 305.321C91.8489 305.425 92.0322 305.6 92.1608 305.824C92.2894 306.049 92.3583 306.313 92.3583 306.583C92.3583 306.945 92.2348 307.292 92.0151 307.548C91.7954 307.804 91.4971 307.948 91.1858 307.948ZM91.1858 305.999C91.0868 305.999 90.99 306.034 90.9075 306.098C90.8255 306.162 90.7612 306.253 90.7231 306.36C90.6855 306.466 90.6753 306.583 90.6946 306.697C90.714 306.81 90.7618 306.913 90.8318 306.995C90.9018 307.077 90.9912 307.132 91.0885 307.154C91.1852 307.177 91.286 307.166 91.3776 307.121C91.4693 307.078 91.5472 307.003 91.6024 306.907C91.6577 306.811 91.6867 306.698 91.6867 306.583C91.6867 306.428 91.6343 306.28 91.5398 306.17C91.4459 306.061 91.319 305.999 91.1858 305.999Z"
    fill="#174E7B" />
  <path opacity="0.2"
    d="M91.1857 309.116C90.7554 309.116 90.3353 308.968 89.9779 308.69C89.6205 308.412 89.3416 308.016 89.1771 307.553C89.0126 307.091 88.9694 306.581 89.053 306.09C89.1373 305.599 89.3444 305.148 89.6484 304.793C89.9523 304.439 90.3399 304.198 90.7616 304.101C91.1834 304.003 91.6205 304.053 92.0178 304.245C92.415 304.436 92.7543 304.761 92.9933 305.177C93.2323 305.594 93.3598 306.084 93.3598 306.584C93.3598 307.256 93.131 307.9 92.7229 308.375C92.3154 308.85 91.7622 309.116 91.1857 309.116ZM91.1857 305.61C91.02 305.61 90.8584 305.667 90.7207 305.774C90.5835 305.881 90.4759 306.033 90.4127 306.211C90.3496 306.39 90.3331 306.585 90.3649 306.774C90.3974 306.963 90.4771 307.137 90.5943 307.274C90.711 307.409 90.8601 307.503 91.0223 307.54C91.1845 307.578 91.353 307.559 91.5061 307.485C91.6586 307.411 91.7895 307.286 91.8812 307.126C91.9734 306.965 92.0223 306.777 92.0223 306.584C92.0223 306.326 91.9341 306.078 91.777 305.895C91.6205 305.712 91.4076 305.61 91.1857 305.61Z"
    fill="#174E7B" />
  <path
    d="M91.1858 336.509C90.9542 336.509 90.7277 336.429 90.5347 336.279C90.3418 336.13 90.1915 335.916 90.1027 335.667C90.0139 335.417 89.9906 335.143 90.0361 334.878C90.0811 334.613 90.1926 334.37 90.3571 334.179C90.521 333.988 90.7299 333.858 90.957 333.805C91.1847 333.752 91.4203 333.779 91.6349 333.883C91.8489 333.986 92.0322 334.161 92.1608 334.386C92.2894 334.611 92.3583 334.874 92.3583 335.144C92.3583 335.507 92.2348 335.854 92.0151 336.11C91.7954 336.366 91.4971 336.509 91.1858 336.509ZM91.1858 334.561C91.0868 334.561 90.99 334.595 90.9075 334.66C90.8255 334.723 90.7612 334.815 90.7231 334.921C90.6855 335.027 90.6753 335.145 90.6946 335.258C90.714 335.371 90.7618 335.475 90.8318 335.557C90.9018 335.638 90.9912 335.694 91.0885 335.716C91.1852 335.739 91.286 335.727 91.3776 335.683C91.4693 335.639 91.5472 335.564 91.6024 335.468C91.6577 335.372 91.6867 335.259 91.6867 335.144C91.6867 334.99 91.6343 334.841 91.5398 334.732C91.4459 334.622 91.319 334.561 91.1858 334.561Z"
    fill="#174E7B" />
  <path opacity="0.2"
    d="M91.1857 337.709C90.7554 337.709 90.3353 337.56 89.9779 337.282C89.6205 337.004 89.3416 336.608 89.1771 336.146C89.0126 335.683 88.9694 335.174 89.053 334.682C89.1373 334.191 89.3444 333.74 89.6484 333.386C89.9523 333.032 90.3399 332.79 90.7616 332.693C91.1834 332.595 91.6205 332.645 92.0178 332.837C92.415 333.028 92.7543 333.353 92.9933 333.77C93.2323 334.186 93.3598 334.676 93.3598 335.176C93.3598 335.848 93.131 336.492 92.7229 336.968C92.3154 337.442 91.7622 337.709 91.1857 337.709ZM91.1857 334.202C91.02 334.202 90.8584 334.259 90.7207 334.366C90.5835 334.474 90.4759 334.625 90.4127 334.804C90.3496 334.981 90.3331 335.178 90.3649 335.367C90.3974 335.556 90.4771 335.729 90.5943 335.866C90.711 336.002 90.8601 336.094 91.0223 336.132C91.1845 336.17 91.353 336.151 91.5061 336.077C91.6586 336.003 91.7895 335.878 91.8812 335.718C91.9734 335.558 92.0223 335.369 92.0223 335.176C92.0252 335.046 92.0058 334.917 91.9654 334.796C91.9244 334.674 91.8635 334.564 91.7855 334.47C91.7076 334.377 91.6142 334.303 91.5112 334.252C91.4082 334.202 91.2972 334.175 91.1857 334.175V334.202Z"
    fill="#174E7B" />
  <path opacity="0.6"
    d="M98.8749 193.943C114.482 193.943 127.133 179.206 127.133 161.028C127.133 142.849 114.482 128.112 98.8749 128.112C83.2682 128.112 70.6165 142.849 70.6165 161.028C70.6165 179.206 83.2682 193.943 98.8749 193.943Z"
    fill="#5C7869" />
  <path
    d="M99.2111 181.871C114.818 181.871 127.47 167.134 127.47 148.956C127.47 130.777 114.818 116.041 99.2111 116.041C83.6043 116.041 70.9526 130.777 70.9526 148.956C70.9526 167.134 83.6043 181.871 99.2111 181.871Z"
    fill="#94E0F7" />
  <path opacity="0.2"
    d="M98.8752 179.93C94.0135 179.93 89.2611 178.25 85.2184 175.104C81.1757 171.958 78.0254 167.486 76.1649 162.254C74.3043 157.022 73.8177 151.265 74.7659 145.711C75.7147 140.157 78.0556 135.055 81.4933 131.051C84.931 127.046 89.3112 124.319 94.0795 123.215C98.8479 122.11 103.79 122.677 108.282 124.844C112.774 127.011 116.613 130.681 119.314 135.39C122.015 140.098 123.457 145.634 123.457 151.297C123.451 158.889 120.859 166.167 116.25 171.535C111.642 176.904 105.393 179.923 98.8752 179.93ZM98.8752 124.62C94.3442 124.62 89.9156 126.185 86.1478 129.117C82.3806 132.049 79.4443 136.216 77.7107 141.092C75.977 145.968 75.5229 151.333 76.4073 156.509C77.2912 161.685 79.4728 166.44 82.6765 170.172C85.8803 173.903 89.9623 176.445 94.4062 177.475C98.8496 178.504 103.456 177.976 107.642 175.956C111.828 173.937 115.406 170.516 117.923 166.128C120.44 161.74 121.784 156.581 121.784 151.304C121.779 144.228 119.364 137.443 115.069 132.439C110.775 127.435 104.95 124.621 98.8752 124.613V124.62Z"
    fill="#174E7B" />
  <path
    d="M108.664 119.599L92.54 182.678C88.4245 181.391 84.614 179.031 81.396 175.777L96.1086 118.273C100.326 117.612 104.617 118.065 108.664 119.599Z"
    fill="white" />
  <path
    d="M117.64 125.309L102.723 183.648C101.777 183.76 100.827 183.816 99.8768 183.814C98.7357 183.815 97.5951 183.735 96.4619 183.575L112.358 121.371C114.239 122.452 116.011 123.772 117.64 125.309Z"
    fill="white" />
  <path opacity="0.8"
    d="M78.9769 158.237C78.8175 158.236 78.6633 158.168 78.5421 158.047C78.4214 157.926 78.3412 157.758 78.3167 157.574C77.3514 150.443 78.5148 143.142 81.6121 136.89C83.3651 133.389 85.4254 131.288 87.7419 130.658C87.8301 130.626 87.9234 130.614 88.0156 130.625C88.1078 130.636 88.1966 130.669 88.2774 130.722C88.3583 130.775 88.4283 130.848 88.484 130.934C88.5392 131.02 88.5791 131.119 88.6007 131.224C88.6218 131.329 88.624 131.438 88.6075 131.544C88.591 131.65 88.5557 131.751 88.504 131.84C88.4522 131.93 88.385 132.006 88.307 132.064C88.2285 132.121 88.1408 132.16 88.0492 132.176C86.1084 132.707 84.3326 134.563 82.7731 137.679C79.8306 143.621 78.7259 150.559 79.6428 157.335C79.6565 157.437 79.6525 157.541 79.6314 157.641C79.6104 157.741 79.5717 157.836 79.5187 157.918C79.4658 158.001 79.3992 158.071 79.323 158.123C79.2461 158.176 79.1619 158.209 79.0737 158.223L78.9769 158.237Z"
    fill="white" />
  <path
    d="M118.272 153.408C118.04 153.408 117.813 153.328 117.621 153.178C117.428 153.028 117.278 152.815 117.189 152.565C117.1 152.316 117.077 152.041 117.122 151.776C117.167 151.511 117.279 151.268 117.443 151.077C117.607 150.886 117.816 150.756 118.043 150.703C118.271 150.651 118.507 150.678 118.721 150.781C118.935 150.885 119.118 151.06 119.247 151.284C119.376 151.508 119.444 151.772 119.444 152.043C119.444 152.405 119.321 152.752 119.101 153.008C118.881 153.264 118.583 153.408 118.272 153.408ZM118.272 151.459C118.173 151.459 118.076 151.494 117.994 151.558C117.911 151.622 117.847 151.713 117.809 151.819C117.771 151.926 117.761 152.043 117.781 152.157C117.8 152.269 117.848 152.373 117.918 152.455C117.988 152.536 118.077 152.592 118.174 152.615C118.271 152.637 118.372 152.626 118.464 152.582C118.555 152.537 118.633 152.463 118.689 152.367C118.743 152.271 118.773 152.158 118.773 152.043C118.767 151.893 118.712 151.751 118.619 151.647C118.525 151.544 118.401 151.486 118.272 151.486V151.459Z"
    fill="#174E7B" />
  <path opacity="0.2"
    d="M118.272 154.603C117.842 154.603 117.421 154.454 117.064 154.176C116.707 153.898 116.428 153.502 116.263 153.04C116.099 152.577 116.055 152.068 116.14 151.576C116.223 151.085 116.43 150.634 116.734 150.28C117.038 149.926 117.426 149.684 117.848 149.587C118.269 149.489 118.706 149.539 119.104 149.731C119.501 149.922 119.841 150.247 120.08 150.664C120.318 151.08 120.446 151.57 120.446 152.07C120.446 152.742 120.217 153.386 119.809 153.861C119.401 154.336 118.848 154.603 118.272 154.603ZM118.272 151.096C118.107 151.096 117.944 151.153 117.807 151.26C117.67 151.367 117.562 151.519 117.499 151.698C117.436 151.875 117.419 152.072 117.452 152.261C117.483 152.45 117.563 152.623 117.68 152.76C117.797 152.896 117.946 152.989 118.109 153.026C118.271 153.064 118.439 153.045 118.592 152.971C118.745 152.897 118.876 152.772 118.968 152.612C119.059 152.452 119.108 152.263 119.108 152.07C119.108 151.942 119.087 151.816 119.045 151.698C119.003 151.579 118.941 151.472 118.864 151.382C118.786 151.291 118.693 151.219 118.592 151.17C118.491 151.121 118.382 151.096 118.272 151.096Z"
    fill="#174E7B" />
  <path
    d="M98.8748 188.294C92.5913 188.294 86.449 186.124 81.2242 182.057C75.9999 177.992 71.9276 172.212 69.523 165.45C67.1183 158.688 66.4894 151.248 67.7153 144.069C68.9413 136.891 71.9669 130.297 76.4103 125.122C80.8531 119.946 86.5139 116.422 92.6767 114.994C98.8395 113.566 105.228 114.299 111.033 117.1C116.838 119.9 121.8 124.644 125.291 130.729C128.781 136.815 130.645 143.969 130.645 151.288C130.636 161.1 127.286 170.506 121.33 177.444C115.374 184.382 107.298 188.284 98.8748 188.294ZM98.8748 122.463C93.9806 122.463 89.1957 124.154 85.1263 127.321C81.0569 130.489 77.885 134.99 76.0119 140.257C74.1388 145.524 73.6488 151.321 74.6038 156.912C75.5583 162.503 77.9151 167.64 81.3762 171.671C84.8372 175.702 89.2464 178.447 94.0472 179.559C98.8475 180.672 103.823 180.101 108.345 177.919C112.867 175.738 116.732 172.043 119.451 167.303C122.17 162.562 123.622 156.989 123.622 151.288C123.612 143.648 121.002 136.323 116.363 130.92C111.724 125.518 105.435 122.479 98.8748 122.47V122.463Z"
    fill="#174E7B" />
  <path
    d="M80.9461 339.625V282.784C80.9256 263.56 87.1447 245.036 98.3565 230.929C109.363 244.997 115.454 263.353 115.431 282.387V339.552"
    fill="#ECF2FA" />
  <path
    d="M100.719 238.533C90.7984 251.993 85.3465 269.148 85.3516 286.888V342.748H81.3391V286.888C81.3391 267.932 87.5685 249.695 98.7495 235.921C99.4211 236.778 100.077 237.649 100.719 238.533Z"
    fill="white" />
  <path
    d="M112.085 285.786V341.964L98.2432 341.997C111.123 311.847 107.037 271.221 104.424 250.511C109.453 261.346 112.086 273.469 112.085 285.786Z"
    fill="#ACD2E0" />
  <g opacity="0.4">
    <path opacity="0.4"
      d="M67.4747 238.719C69.6261 234.661 71.1515 231.221 71.3848 231.34C71.6182 231.459 70.3831 235.119 68.1975 239.236C66.012 243.353 63.7638 246.283 63.5874 246.117C63.411 245.951 65.3404 242.782 67.4747 238.719Z"
      fill="#174E7B" />
    <path opacity="0.4"
      d="M70.8855 241.291C72.2697 238.547 73.227 236.21 73.0232 236.072C72.82 235.933 71.5337 238.044 70.1496 240.787C68.7659 243.53 67.8086 245.866 68.0118 246.006C68.215 246.145 69.5019 244.034 70.8855 241.291Z"
      fill="#174E7B" />
    <path opacity="0.4"
      d="M68.3226 241.411C71.4643 242.889 74.0881 243.91 74.0141 244.182C73.9401 244.454 71.1683 243.844 67.9924 242.332C64.8166 240.821 62.4318 239.017 62.5457 238.805C62.6595 238.593 65.1751 239.946 68.3226 241.411Z"
      fill="#174E7B" />
    <path opacity="0.4"
      d="M71.2935 240.422C74.1392 241.979 76.5468 242.961 76.4785 243.232C76.4102 243.504 73.849 242.908 70.9349 241.323C68.0208 239.739 65.9776 237.816 66.1085 237.617C66.2394 237.418 68.4477 238.89 71.2935 240.422Z"
      fill="#174E7B" />
  </g>
  <path
    d="M91.5213 269.121C91.2896 269.121 91.0625 269.041 90.8702 268.891C90.6772 268.74 90.527 268.528 90.4382 268.278C90.3494 268.029 90.326 267.754 90.3716 267.489C90.4165 267.224 90.5281 266.981 90.692 266.79C90.8565 266.599 91.0654 266.469 91.2925 266.416C91.5201 266.364 91.7558 266.391 91.9698 266.494C92.1843 266.598 92.3676 266.773 92.4962 266.997C92.6249 267.221 92.6937 267.485 92.6937 267.756C92.6937 268.117 92.5702 268.465 92.3505 268.721C92.1303 268.977 91.832 269.121 91.5213 269.121ZM91.5213 267.172C91.4222 267.172 91.3255 267.206 91.243 267.27C91.1604 267.335 91.0967 267.426 91.0585 267.532C91.0204 267.639 91.0107 267.756 91.0301 267.87C91.0494 267.982 91.0973 268.086 91.1673 268.168C91.2373 268.249 91.3266 268.305 91.4234 268.328C91.5207 268.35 91.6214 268.338 91.7131 268.294C91.8047 268.25 91.8827 268.175 91.9379 268.08C91.9925 267.984 92.0221 267.871 92.0221 267.756C92.0204 267.602 91.9675 267.455 91.8736 267.347C91.7797 267.239 91.6533 267.179 91.5213 267.179V267.172Z"
    fill="#174E7B" />
  <path opacity="0.2"
    d="M91.5217 270.294C91.092 270.294 90.6714 270.146 90.3139 269.867C89.9565 269.589 89.6776 269.194 89.5131 268.731C89.3486 268.268 89.3054 267.759 89.3896 267.268C89.4733 266.777 89.6805 266.325 89.9844 265.971C90.2883 265.617 90.6759 265.376 91.0976 265.278C91.5194 265.18 91.9565 265.231 92.3538 265.422C92.751 265.614 93.0908 265.938 93.3299 266.355C93.5683 266.772 93.6958 267.261 93.6958 267.762C93.6958 268.434 93.467 269.078 93.059 269.553C92.6514 270.027 92.0982 270.294 91.5217 270.294ZM91.5217 266.787C91.3566 266.787 91.1944 266.844 91.0572 266.952C90.9195 267.059 90.8119 267.211 90.7488 267.389C90.6856 267.567 90.6691 267.763 90.7015 267.952C90.7334 268.141 90.8131 268.315 90.9303 268.451C91.047 268.587 91.1961 268.68 91.3589 268.718C91.5211 268.755 91.689 268.736 91.8421 268.662C91.9946 268.589 92.1255 268.463 92.2177 268.304C92.3094 268.143 92.3583 267.955 92.3583 267.762C92.36 267.633 92.3395 267.505 92.298 267.385C92.257 267.265 92.1956 267.156 92.1176 267.064C92.0396 266.972 91.9468 266.899 91.845 266.85C91.7425 266.8 91.6327 266.774 91.5217 266.774V266.787Z"
    fill="#174E7B" />
  <path
    d="M91.5213 325.994C91.2896 325.994 91.0625 325.914 90.8702 325.764C90.6772 325.613 90.527 325.401 90.4382 325.151C90.3494 324.901 90.326 324.627 90.3716 324.362C90.4165 324.097 90.5281 323.854 90.692 323.663C90.8565 323.472 91.0654 323.342 91.2925 323.29C91.5201 323.237 91.7558 323.264 91.9698 323.367C92.1843 323.471 92.3676 323.646 92.4962 323.87C92.6249 324.094 92.6937 324.359 92.6937 324.628C92.6937 324.99 92.5702 325.338 92.3505 325.594C92.1303 325.85 91.832 325.994 91.5213 325.994ZM91.5213 324.045C91.4222 324.045 91.3255 324.08 91.243 324.143C91.1604 324.208 91.0967 324.298 91.0585 324.405C91.0204 324.512 91.0107 324.629 91.0301 324.742C91.0494 324.855 91.0973 324.959 91.1673 325.041C91.2373 325.122 91.3266 325.178 91.4234 325.2C91.5207 325.223 91.6214 325.212 91.7131 325.167C91.8047 325.123 91.8827 325.049 91.9379 324.953C91.9925 324.856 92.0221 324.744 92.0221 324.628C92.0221 324.474 91.9692 324.326 91.8753 324.216C91.7814 324.107 91.6539 324.045 91.5213 324.045Z"
    fill="#174E7B" />
  <path opacity="0.2"
    d="M91.5217 327.16C91.092 327.16 90.6714 327.012 90.3139 326.734C89.9565 326.456 89.6776 326.06 89.5131 325.597C89.3486 325.134 89.3054 324.625 89.3896 324.134C89.4733 323.643 89.6805 323.191 89.9844 322.837C90.2883 322.483 90.6759 322.242 91.0976 322.145C91.5194 322.046 91.9565 322.097 92.3538 322.288C92.751 322.48 93.0908 322.805 93.3299 323.221C93.5683 323.638 93.6958 324.127 93.6958 324.628C93.6958 325.3 93.467 325.944 93.059 326.419C92.6514 326.894 92.0982 327.16 91.5217 327.16ZM91.5217 323.653C91.3566 323.653 91.1944 323.71 91.0572 323.818C90.9195 323.925 90.8119 324.077 90.7488 324.255C90.6856 324.433 90.6691 324.629 90.7015 324.818C90.7334 325.007 90.8131 325.181 90.9303 325.317C91.047 325.453 91.1961 325.546 91.3589 325.584C91.5211 325.622 91.689 325.603 91.8421 325.528C91.9946 325.455 92.1255 325.33 92.2177 325.17C92.3094 325.009 92.3583 324.821 92.3583 324.628C92.3583 324.369 92.2701 324.121 92.1136 323.939C91.9565 323.756 91.7436 323.653 91.5217 323.653Z"
    fill="#174E7B" />
  <path
    d="M91.5213 297.561C91.2896 297.561 91.0625 297.48 90.8702 297.331C90.6772 297.181 90.527 296.967 90.4382 296.718C90.3494 296.468 90.326 296.194 90.3716 295.929C90.4165 295.664 90.5281 295.421 90.692 295.23C90.8565 295.039 91.0654 294.909 91.2925 294.857C91.5201 294.803 91.7558 294.831 91.9698 294.934C92.1843 295.037 92.3676 295.212 92.4962 295.437C92.6249 295.662 92.6937 295.926 92.6937 296.195C92.6937 296.558 92.5702 296.905 92.3505 297.161C92.1303 297.417 91.832 297.561 91.5213 297.561ZM91.5213 295.612C91.4222 295.612 91.3255 295.647 91.243 295.711C91.1604 295.774 91.0967 295.866 91.0585 295.973C91.0204 296.079 91.0107 296.196 91.0301 296.309C91.0494 296.423 91.0973 296.526 91.1673 296.608C91.2373 296.69 91.3266 296.745 91.4234 296.767C91.5207 296.79 91.6214 296.779 91.7131 296.734C91.8047 296.69 91.8827 296.616 91.9379 296.519C91.9925 296.423 92.0221 296.311 92.0221 296.195C92.0221 296.041 91.9692 295.892 91.8753 295.783C91.7814 295.674 91.6539 295.612 91.5213 295.612Z"
    fill="#174E7B" />
  <path opacity="0.2"
    d="M91.5217 298.726C91.092 298.726 90.6714 298.578 90.3139 298.299C89.9565 298.021 89.6776 297.625 89.5131 297.162C89.3486 296.7 89.3054 296.19 89.3896 295.699C89.4733 295.208 89.6805 294.757 89.9844 294.403C90.2883 294.048 90.6759 293.807 91.0976 293.71C91.5194 293.612 91.9565 293.662 92.3538 293.854C92.751 294.045 93.0908 294.37 93.3299 294.786C93.5683 295.203 93.6958 295.693 93.6958 296.194C93.6958 296.865 93.467 297.509 93.059 297.984C92.6514 298.459 92.0982 298.726 91.5217 298.726ZM91.5217 295.219C91.3566 295.219 91.1944 295.276 91.0572 295.383C90.9195 295.49 90.8119 295.642 90.7488 295.821C90.6856 295.999 90.6691 296.194 90.7015 296.383C90.7334 296.573 90.8131 296.746 90.9303 296.883C91.047 297.019 91.1961 297.112 91.3589 297.149C91.5211 297.187 91.689 297.168 91.8421 297.094C91.9946 297.02 92.1255 296.895 92.2177 296.735C92.3094 296.575 92.3583 296.386 92.3583 296.194C92.3583 295.935 92.2701 295.687 92.1136 295.504C91.9565 295.321 91.7436 295.219 91.5217 295.219Z"
    fill="#174E7B" />
  <path
    d="M102.221 269.121C101.99 269.121 101.763 269.041 101.57 268.891C101.377 268.74 101.227 268.528 101.138 268.278C101.049 268.029 101.026 267.754 101.072 267.489C101.116 267.224 101.229 266.981 101.393 266.79C101.556 266.599 101.765 266.469 101.992 266.416C102.22 266.364 102.456 266.391 102.67 266.494C102.884 266.598 103.068 266.773 103.196 266.997C103.325 267.221 103.394 267.485 103.394 267.756C103.394 268.117 103.27 268.465 103.05 268.721C102.831 268.977 102.533 269.121 102.221 269.121ZM102.221 267.172C102.122 267.172 102.025 267.206 101.943 267.27C101.861 267.335 101.797 267.426 101.759 267.532C101.721 267.639 101.711 267.756 101.73 267.87C101.749 267.982 101.797 268.086 101.867 268.168C101.937 268.249 102.027 268.305 102.124 268.328C102.221 268.35 102.321 268.338 102.413 268.294C102.505 268.25 102.583 268.175 102.638 268.08C102.693 267.984 102.722 267.871 102.722 267.756C102.721 267.602 102.667 267.455 102.574 267.347C102.48 267.239 102.353 267.179 102.221 267.179V267.172Z"
    fill="#174E7B" />
  <path opacity="0.2"
    d="M102.221 270.294C101.791 270.294 101.371 270.146 101.013 269.867C100.656 269.589 100.377 269.194 100.213 268.731C100.048 268.268 100.005 267.759 100.089 267.268C100.173 266.777 100.38 266.325 100.684 265.971C100.988 265.617 101.375 265.376 101.797 265.278C102.219 265.18 102.656 265.231 103.053 265.422C103.451 265.614 103.79 265.938 104.029 266.355C104.268 266.772 104.395 267.261 104.395 267.762C104.395 268.434 104.166 269.078 103.758 269.553C103.351 270.027 102.798 270.294 102.221 270.294ZM102.221 266.787C102.056 266.787 101.894 266.844 101.756 266.952C101.619 267.059 101.511 267.211 101.448 267.389C101.385 267.567 101.369 267.763 101.4 267.952C101.433 268.141 101.513 268.315 101.63 268.451C101.746 268.587 101.896 268.68 102.058 268.718C102.221 268.755 102.388 268.736 102.542 268.662C102.694 268.589 102.825 268.463 102.917 268.304C103.009 268.143 103.058 267.955 103.058 267.762C103.06 267.633 103.039 267.505 102.997 267.385C102.956 267.265 102.894 267.156 102.817 267.064C102.739 266.972 102.646 266.899 102.544 266.85C102.442 266.8 102.332 266.774 102.221 266.774V266.787Z"
    fill="#174E7B" />
  <path
    d="M102.221 325.994C101.99 325.994 101.763 325.914 101.57 325.764C101.377 325.613 101.227 325.401 101.138 325.151C101.049 324.901 101.026 324.627 101.072 324.362C101.116 324.097 101.229 323.854 101.393 323.663C101.556 323.472 101.765 323.342 101.992 323.29C102.22 323.237 102.456 323.264 102.67 323.367C102.884 323.471 103.068 323.646 103.196 323.87C103.325 324.094 103.394 324.359 103.394 324.628C103.394 324.99 103.27 325.338 103.05 325.594C102.831 325.85 102.533 325.994 102.221 325.994ZM102.221 324.045C102.122 324.045 102.025 324.08 101.943 324.143C101.861 324.208 101.797 324.298 101.759 324.405C101.721 324.512 101.711 324.629 101.73 324.742C101.749 324.855 101.797 324.959 101.867 325.041C101.937 325.122 102.027 325.178 102.124 325.2C102.221 325.223 102.321 325.212 102.413 325.167C102.505 325.123 102.583 325.049 102.638 324.953C102.693 324.856 102.722 324.744 102.722 324.628C102.722 324.474 102.67 324.326 102.576 324.216C102.482 324.107 102.354 324.045 102.221 324.045Z"
    fill="#174E7B" />
  <path opacity="0.2"
    d="M102.221 327.16C101.791 327.16 101.371 327.012 101.013 326.734C100.656 326.456 100.377 326.06 100.213 325.597C100.048 325.134 100.005 324.625 100.089 324.134C100.173 323.643 100.38 323.191 100.684 322.837C100.988 322.483 101.375 322.242 101.797 322.145C102.219 322.046 102.656 322.097 103.053 322.288C103.451 322.48 103.79 322.805 104.029 323.221C104.268 323.638 104.395 324.127 104.395 324.628C104.395 325.3 104.166 325.944 103.758 326.419C103.351 326.894 102.798 327.16 102.221 327.16ZM102.221 323.653C102.056 323.653 101.894 323.71 101.756 323.818C101.619 323.925 101.511 324.077 101.448 324.255C101.385 324.433 101.369 324.629 101.4 324.818C101.433 325.007 101.513 325.181 101.63 325.317C101.746 325.453 101.896 325.546 102.058 325.584C102.221 325.622 102.388 325.603 102.542 325.528C102.694 325.455 102.825 325.33 102.917 325.17C103.009 325.009 103.058 324.821 103.058 324.628C103.058 324.5 103.036 324.373 102.994 324.255C102.952 324.137 102.89 324.029 102.813 323.939C102.735 323.848 102.643 323.777 102.542 323.728C102.44 323.679 102.331 323.653 102.221 323.653Z"
    fill="#174E7B" />
  <path
    d="M102.221 297.561C101.99 297.561 101.763 297.48 101.57 297.331C101.377 297.181 101.227 296.967 101.138 296.718C101.049 296.468 101.026 296.194 101.072 295.929C101.116 295.664 101.229 295.421 101.393 295.23C101.556 295.039 101.765 294.909 101.992 294.857C102.22 294.803 102.456 294.831 102.67 294.934C102.884 295.037 103.068 295.212 103.196 295.437C103.325 295.662 103.394 295.926 103.394 296.195C103.394 296.558 103.27 296.905 103.05 297.161C102.831 297.417 102.533 297.561 102.221 297.561ZM102.221 295.612C102.122 295.612 102.025 295.647 101.943 295.711C101.861 295.774 101.797 295.866 101.759 295.973C101.721 296.079 101.711 296.196 101.73 296.309C101.749 296.423 101.797 296.526 101.867 296.608C101.937 296.69 102.027 296.745 102.124 296.767C102.221 296.79 102.321 296.779 102.413 296.734C102.505 296.69 102.583 296.616 102.638 296.519C102.693 296.423 102.722 296.311 102.722 296.195C102.722 296.041 102.67 295.892 102.576 295.783C102.482 295.674 102.354 295.612 102.221 295.612Z"
    fill="#174E7B" />
  <path opacity="0.2"
    d="M102.221 298.726C101.791 298.726 101.371 298.578 101.013 298.299C100.656 298.021 100.377 297.625 100.213 297.162C100.048 296.7 100.005 296.19 100.089 295.699C100.173 295.208 100.38 294.757 100.684 294.403C100.988 294.048 101.375 293.807 101.797 293.71C102.219 293.612 102.656 293.662 103.053 293.854C103.451 294.045 103.79 294.37 104.029 294.786C104.268 295.203 104.395 295.693 104.395 296.194C104.395 296.865 104.166 297.509 103.758 297.984C103.351 298.459 102.798 298.726 102.221 298.726ZM102.221 295.219C102.056 295.219 101.894 295.276 101.756 295.383C101.619 295.49 101.511 295.642 101.448 295.821C101.385 295.999 101.369 296.194 101.4 296.383C101.433 296.573 101.513 296.746 101.63 296.883C101.746 297.019 101.896 297.112 102.058 297.149C102.221 297.187 102.388 297.168 102.542 297.094C102.694 297.02 102.825 296.895 102.917 296.735C103.009 296.575 103.058 296.386 103.058 296.194C103.058 296.066 103.036 295.939 102.994 295.821C102.952 295.703 102.89 295.595 102.813 295.504C102.735 295.414 102.643 295.342 102.542 295.294C102.44 295.244 102.331 295.219 102.221 295.219Z"
    fill="#174E7B" />
  <path d="M97.7086 234.847H96.3711V340.408H97.7086V234.847Z" fill="#174E7B" />
  <path opacity="0.2" d="M96.7008 238.738H95.3633V339.234H96.7008V238.738Z" fill="#174E7B" />
  <path opacity="0.8" d="M99.3763 238.738H98.0388V338.843H99.3763V238.738Z" fill="white" />
  <path
    d="M118.106 363.968H75.636C70.9809 363.963 66.5176 361.806 63.2256 357.972C59.9336 354.137 58.0822 348.939 58.0776 343.516V340.593H135.665V343.516C135.66 348.939 133.809 354.137 130.517 357.972C127.225 361.806 122.762 363.963 118.106 363.968ZM63.348 346.44C63.9297 349.737 65.4692 352.7 67.7077 354.829C69.9462 356.958 72.7464 358.123 75.636 358.128H118.106C120.996 358.123 123.797 356.958 126.035 354.829C128.274 352.7 129.813 349.737 130.394 346.44H63.348Z"
    fill="#174E7B" />
  <path opacity="0.15"
    d="M132.546 103.636C134.879 102.981 137.341 103.432 139.389 104.891C141.437 106.348 142.904 108.695 143.468 111.412L145.619 121.794C146.182 124.512 145.794 127.378 144.542 129.764C143.29 132.15 141.277 133.859 138.943 134.516C136.61 135.17 134.149 134.719 132.1 133.261C130.052 131.802 128.585 129.457 128.021 126.739L125.87 116.358C125.308 113.64 125.696 110.772 126.947 108.387C128.199 106.002 130.213 104.293 132.546 103.636Z"
    fill="white" />
  <path opacity="0.15"
    d="M124.509 99.0499C126.498 97.482 128.939 96.8979 131.297 97.4263C133.655 97.9547 135.735 99.5524 137.082 101.867C138.428 104.183 138.93 107.026 138.476 109.773C138.022 112.519 136.651 114.943 134.663 116.512C132.675 118.08 130.234 118.663 127.876 118.135C125.519 117.606 123.438 116.009 122.091 113.694C120.745 111.379 120.244 108.535 120.697 105.789C121.151 103.042 122.522 100.618 124.509 99.0499Z"
    fill="white" />
  <g opacity="0.4">
    <path opacity="0.4"
      d="M132.016 179.119C134.168 175.062 135.693 171.621 135.926 171.74C136.16 171.86 134.925 175.519 132.739 179.636C130.554 183.753 128.305 186.683 128.129 186.517C127.952 186.352 129.882 183.189 132.016 179.119Z"
      fill="#174E7B" />
    <path opacity="0.4"
      d="M135.427 181.695C136.811 178.952 137.768 176.615 137.565 176.476C137.362 176.337 136.075 178.448 134.691 181.191C133.307 183.934 132.35 186.271 132.553 186.41C132.757 186.549 134.043 184.438 135.427 181.695Z"
      fill="#174E7B" />
    <path opacity="0.4"
      d="M132.848 181.818C135.99 183.296 138.613 184.317 138.539 184.589C138.465 184.861 135.694 184.251 132.518 182.739C129.342 181.228 126.957 179.425 127.071 179.213C127.185 179 129.718 180.346 132.848 181.818Z"
      fill="#174E7B" />
    <path opacity="0.4"
      d="M135.836 180.822C138.681 182.38 141.089 183.361 141.021 183.633C140.952 183.904 138.391 183.308 135.477 181.723C132.563 180.139 130.52 178.216 130.651 178.017C130.782 177.819 132.99 179.264 135.836 180.822Z"
      fill="#174E7B" />
  </g>
  <g opacity="0.4">
    <path opacity="0.4"
      d="M104.93 59.1463C107.082 55.089 108.607 51.6483 108.84 51.7677C109.074 51.887 107.839 55.5465 105.653 59.6634C103.468 63.7802 101.219 66.7103 101.043 66.5445C100.867 66.3788 102.79 63.2167 104.93 59.1463Z"
      fill="#174E7B" />
    <path opacity="0.4"
      d="M108.337 61.7288C109.721 58.9856 110.678 56.6491 110.475 56.5099C110.272 56.3708 108.985 58.4818 107.601 61.2249C106.217 63.9681 105.26 66.3049 105.463 66.4434C105.666 66.5827 106.953 64.4719 108.337 61.7288Z"
      fill="#174E7B" />
    <path opacity="0.4"
      d="M105.773 61.8448C108.914 63.3232 111.538 64.3441 111.464 64.6156C111.39 64.8875 108.618 64.2778 105.442 62.7663C102.267 61.2548 99.8818 59.4516 99.9956 59.2394C100.109 59.0273 102.631 60.3731 105.773 61.8448Z"
      fill="#174E7B" />
    <path opacity="0.4"
      d="M108.75 60.8487C111.595 62.4067 114.002 63.3878 113.934 63.6596C113.866 63.9314 111.305 63.3348 108.39 61.7504C105.476 60.1659 103.433 58.2434 103.564 58.0445C103.695 57.8456 105.904 59.3173 108.75 60.8487Z"
      fill="#174E7B" />
  </g>
  <path d="M136.33 77.6753H52.7275V79.6244H136.33V77.6753Z" fill="#ACD2E0" />
  <path d="M143.758 84.8103H50.3604L51.4987 78.9697H143.189L143.758 84.8103Z" fill="#174E7B" />
  <path
    d="M131.339 344.106H61.8398C57.4971 344.106 53.6041 341.859 51.6804 338.239C44.3212 324.318 27.2068 281.955 27.2068 188.878C27.2068 97.6563 68.4647 30.8643 86.2052 6.38166C87.4818 4.61939 89.0732 3.20298 90.8683 2.23136C92.6628 1.25974 94.6184 0.756341 96.598 0.756348C98.5775 0.756341 100.533 1.25974 102.328 2.23136C104.123 3.20298 105.715 4.61939 106.991 6.38166C124.726 30.8643 165.989 97.6563 165.972 188.878C165.972 281.935 148.858 324.331 141.498 338.239C139.603 341.852 135.693 344.106 131.339 344.106ZM96.5809 6.60043C94.5592 6.59884 92.6031 7.43283 91.0601 8.95389C90.6907 9.31738 90.3475 9.71654 90.0356 10.1472C72.6537 34.1392 32.221 99.5788 32.221 188.878C32.221 228.794 35.3969 263.565 41.6576 292.231C46.8198 315.858 52.8244 329.276 55.949 335.17C56.928 337.02 59.3013 338.259 61.8398 338.259H131.339C133.895 338.259 136.257 337.02 137.224 335.177C140.349 329.27 146.331 315.845 151.521 292.224C157.782 263.559 160.958 228.787 160.958 188.871C160.958 99.5788 120.548 34.1392 103.155 10.1472C102.429 9.1419 101.54 8.31388 100.539 7.7108C99.5382 7.10778 98.4443 6.74164 97.3208 6.63358C97.0743 6.6115 96.8273 6.60043 96.5809 6.60043Z"
    fill="#174E7B" />
  <path
    d="M82.1135 340.48H77.0992V284.62C77.0696 264.909 83.5477 245.939 95.1926 231.638L97.031 229.377L98.8523 231.651C110.289 245.909 116.642 264.702 116.621 284.216V340.394H111.607V284.229C111.623 267.289 106.439 250.9 96.9911 238.022C87.365 250.952 82.077 267.499 82.1021 284.614L82.1135 340.48Z"
    fill="#174E7B" />
  <path
    d="M179.803 308.852C179.571 308.852 179.344 308.771 179.151 308.621C178.958 308.471 178.808 308.258 178.719 308.008C178.631 307.759 178.608 307.484 178.653 307.22C178.698 306.955 178.81 306.711 178.974 306.521C179.138 306.33 179.347 306.2 179.574 306.147C179.801 306.094 180.037 306.121 180.252 306.224C180.466 306.328 180.649 306.503 180.777 306.727C180.907 306.952 180.975 307.216 180.975 307.486C180.975 307.848 180.851 308.195 180.632 308.451C180.412 308.708 180.114 308.852 179.803 308.852ZM179.803 306.903C179.703 306.903 179.607 306.937 179.525 307.001C179.442 307.065 179.378 307.156 179.34 307.263C179.302 307.37 179.292 307.487 179.311 307.6C179.331 307.713 179.378 307.817 179.448 307.898C179.518 307.98 179.608 308.036 179.705 308.058C179.802 308.081 179.903 308.069 179.994 308.025C180.086 307.981 180.164 307.906 180.219 307.81C180.274 307.714 180.303 307.602 180.303 307.486C180.302 307.332 180.249 307.186 180.155 307.078C180.061 306.97 179.935 306.91 179.803 306.91V306.903Z"
    fill="#174E7B" />
  <path opacity="0.2"
    d="M179.802 310.026C179.373 310.026 178.952 309.878 178.595 309.599C178.237 309.321 177.958 308.925 177.794 308.462C177.629 307.999 177.586 307.49 177.67 306.999C177.754 306.508 177.961 306.057 178.265 305.702C178.569 305.348 178.957 305.107 179.378 305.01C179.8 304.912 180.237 304.962 180.635 305.153C181.032 305.345 181.372 305.67 181.61 306.086C181.849 306.502 181.977 306.992 181.977 307.494C181.977 308.165 181.748 308.809 181.34 309.284C180.932 309.759 180.379 310.026 179.802 310.026ZM179.802 306.519C179.637 306.519 179.475 306.576 179.338 306.683C179.2 306.79 179.093 306.942 179.03 307.12C178.966 307.299 178.95 307.494 178.982 307.683C179.014 307.873 179.094 308.046 179.211 308.182C179.328 308.319 179.477 308.412 179.639 308.449C179.802 308.487 179.97 308.467 180.123 308.394C180.275 308.32 180.406 308.195 180.498 308.035C180.59 307.875 180.639 307.686 180.639 307.494C180.639 307.235 180.551 306.987 180.394 306.804C180.237 306.621 180.024 306.519 179.802 306.519Z"
    fill="#174E7B" />
</svg>